<svg xmlns="http://www.w3.org/2000/svg" xmlns:xlink="http://www.w3.org/1999/xlink" width="1024" zoomAndPan="magnify" viewBox="0 0 768 767.999994" height="1024" preserveAspectRatio="xMidYMid meet" version="1.0"><defs><clipPath id="e16f40a2b8"><path d="M 122 261 L 736.832031 261 L 736.832031 621.761719 L 122 621.761719 Z M 122 261 " clip-rule="nonzero"/></clipPath></defs><path fill="#fcce44" d="M 403.402344 370.957031 C 403.402344 445.675781 342.816406 506.246094 268.078125 506.246094 C 204.414062 506.246094 151.015625 462.289062 136.59375 403.078125 C 134.085938 392.785156 132.753906 382.023438 132.753906 370.957031 C 132.753906 296.242188 193.339844 235.667969 268.078125 235.667969 C 279.703125 235.667969 290.984375 237.136719 301.75 239.890625 C 360.199219 254.855469 403.402344 307.859375 403.402344 370.957031 Z M 403.402344 370.957031 " fill-opacity="1" fill-rule="nonzero"/><path fill="#fbb821" d="M 403.402344 370.957031 C 403.402344 445.675781 342.816406 506.246094 268.078125 506.246094 C 204.414062 506.246094 151.015625 462.289062 136.59375 403.078125 C 141.570312 408.554688 152.308594 428.078125 170.085938 418.035156 C 189.601562 407.007812 185.359375 372.230469 233.71875 334.0625 C 282.078125 295.894531 322.804688 312.007812 321.953125 308.617188 C 321.28125 305.917969 314.6875 262.886719 301.753906 239.894531 C 360.199219 254.859375 403.402344 307.863281 403.402344 370.960938 Z M 403.402344 370.957031 " fill-opacity="1" fill-rule="nonzero"/><g clip-path="url(#e16f40a2b8)"><path fill="#f4f7fe" d="M 659.128906 386.378906 C 653.183594 316.210938 594.332031 261.117188 522.605469 261.117188 C 467.988281 261.117188 420.839844 293.0625 398.824219 339.285156 C 383.3125 332.121094 366.039062 328.121094 347.828125 328.121094 C 281.296875 328.121094 227.234375 381.476562 226.101562 447.71875 L 209.539062 447.71875 C 161.507812 447.71875 122.574219 486.644531 122.574219 534.660156 C 122.574219 582.675781 161.507812 621.597656 209.539062 621.597656 L 581.148438 621.597656 C 586.449219 621.597656 591.636719 621.125 596.675781 620.214844 C 602.679688 621.125 608.828125 621.597656 615.082031 621.597656 C 682.324219 621.597656 736.832031 567.105469 736.832031 499.882812 C 736.832031 448.191406 704.597656 404.023438 659.128906 386.378906 Z M 659.128906 386.378906 " fill-opacity="1" fill-rule="nonzero"/><path fill="#d1e1ee" d="M 736.832031 499.882812 C 736.832031 567.105469 682.324219 621.601562 615.085938 621.601562 C 608.828125 621.601562 602.679688 621.128906 596.675781 620.21875 C 591.636719 621.125 586.449219 621.601562 581.148438 621.601562 L 209.539062 621.601562 C 186.761719 621.601562 166.03125 612.847656 150.527344 598.519531 C 141.511719 590.1875 134.265625 579.976562 129.410156 568.5 C 125.007812 558.097656 122.574219 546.664062 122.574219 534.660156 C 122.574219 486.644531 161.507812 447.71875 209.535156 447.71875 L 226.101562 447.71875 C 227.234375 381.476562 281.296875 328.125 347.832031 328.125 C 366.039062 328.125 383.3125 332.121094 398.824219 339.285156 C 420.839844 293.0625 467.992188 261.113281 522.605469 261.113281 C 538.769531 261.113281 554.28125 263.914062 568.683594 269.054688 C 618.171875 286.714844 654.519531 332.023438 659.128906 386.378906 C 704.597656 404.027344 736.832031 448.191406 736.832031 499.882812 Z M 736.832031 499.882812 " fill-opacity="1" fill-rule="nonzero"/></g><path fill="#f4f7fe" d="M 699.503906 479.527344 C 699.503906 546.75 644.992188 601.246094 577.753906 601.246094 C 571.496094 601.246094 565.351562 600.773438 559.347656 599.863281 C 554.308594 600.769531 549.117188 601.246094 543.816406 601.246094 L 172.207031 601.246094 C 164.722656 601.246094 157.457031 600.300781 150.527344 598.519531 C 141.511719 590.191406 134.265625 579.976562 129.410156 568.5 C 125.007812 558.101562 122.574219 546.664062 122.574219 534.660156 C 122.574219 486.644531 161.507812 447.71875 209.535156 447.71875 L 226.101562 447.71875 C 227.234375 381.476562 281.296875 328.125 347.828125 328.125 C 366.039062 328.125 383.3125 332.125 398.824219 339.285156 C 420.839844 293.066406 467.992188 261.117188 522.605469 261.117188 C 538.769531 261.117188 554.28125 263.914062 568.683594 269.054688 C 598.375 291.863281 618.453125 326.558594 621.796875 366.023438 C 667.269531 383.671875 699.5 427.832031 699.5 479.527344 Z M 699.503906 479.527344 " fill-opacity="1" fill-rule="nonzero"/><path fill="#fcce44" d="M 311.394531 133.832031 L 312.992188 134.160156 C 314.003906 134.367188 314.984375 134.671875 315.9375 135.074219 C 316.886719 135.476562 317.792969 135.96875 318.644531 136.546875 C 319.5 137.125 320.292969 137.78125 321.015625 138.515625 C 321.742188 139.253906 322.390625 140.050781 322.957031 140.914062 C 323.523438 141.777344 324.003906 142.683594 324.390625 143.640625 C 324.78125 144.597656 325.074219 145.582031 325.269531 146.597656 C 325.460938 147.609375 325.554688 148.632812 325.550781 149.667969 C 325.542969 150.699219 325.433594 151.722656 325.226562 152.734375 L 313.609375 209.160156 C 313.402344 210.171875 313.097656 211.152344 312.695312 212.105469 C 312.292969 213.054688 311.804688 213.960938 311.222656 214.8125 C 310.644531 215.667969 309.988281 216.457031 309.253906 217.183594 C 308.515625 217.910156 307.71875 218.554688 306.855469 219.125 C 305.992188 219.691406 305.082031 220.167969 304.125 220.558594 C 303.171875 220.945312 302.183594 221.238281 301.171875 221.433594 C 300.15625 221.628906 299.132812 221.722656 298.101562 221.714844 C 297.066406 221.707031 296.042969 221.601562 295.035156 221.394531 L 293.4375 221.066406 C 292.425781 220.855469 291.445312 220.550781 290.492188 220.148438 C 289.539062 219.75 288.636719 219.257812 287.78125 218.679688 C 286.929688 218.101562 286.136719 217.441406 285.414062 216.707031 C 284.6875 215.972656 284.039062 215.175781 283.472656 214.3125 C 282.902344 213.449219 282.425781 212.539062 282.035156 211.582031 C 281.648438 210.628906 281.355469 209.640625 281.160156 208.628906 C 280.964844 207.613281 280.871094 206.589844 280.878906 205.558594 C 280.886719 204.527344 280.992188 203.503906 281.203125 202.492188 L 292.820312 146.0625 C 293.027344 145.054688 293.332031 144.070312 293.734375 143.121094 C 294.136719 142.167969 294.625 141.265625 295.203125 140.410156 C 295.785156 139.558594 296.441406 138.765625 297.175781 138.042969 C 297.910156 137.316406 298.710938 136.667969 299.574219 136.101562 C 300.4375 135.535156 301.34375 135.054688 302.300781 134.667969 C 303.257812 134.277344 304.246094 133.984375 305.257812 133.792969 C 306.273438 133.597656 307.296875 133.503906 308.328125 133.507812 C 309.363281 133.515625 310.382812 133.625 311.394531 133.832031 Z M 311.394531 133.832031 " fill-opacity="1" fill-rule="nonzero"/><path fill="#fcce44" d="M 427.6875 207.242188 L 429.007812 208.203125 C 429.839844 208.808594 430.609375 209.492188 431.308594 210.25 C 432.011719 211.011719 432.628906 211.828125 433.167969 212.710938 C 433.707031 213.589844 434.15625 214.515625 434.511719 215.484375 C 434.867188 216.453125 435.125 217.449219 435.289062 218.46875 C 435.449219 219.488281 435.507812 220.515625 435.464844 221.546875 C 435.425781 222.578125 435.28125 223.59375 435.042969 224.597656 C 434.800781 225.601562 434.460938 226.574219 434.027344 227.511719 C 433.59375 228.449219 433.074219 229.335938 432.46875 230.167969 L 398.554688 276.746094 C 397.945312 277.582031 397.261719 278.351562 396.503906 279.050781 C 395.746094 279.75 394.925781 280.371094 394.042969 280.910156 C 393.164062 281.449219 392.238281 281.894531 391.269531 282.25 C 390.300781 282.609375 389.304688 282.867188 388.285156 283.027344 C 387.265625 283.1875 386.238281 283.246094 385.207031 283.207031 C 384.175781 283.164062 383.15625 283.023438 382.152344 282.78125 C 381.148438 282.539062 380.175781 282.203125 379.238281 281.769531 C 378.300781 281.335938 377.414062 280.816406 376.582031 280.207031 L 375.261719 279.25 C 374.429688 278.640625 373.660156 277.957031 372.960938 277.199219 C 372.261719 276.441406 371.640625 275.621094 371.101562 274.738281 C 370.5625 273.859375 370.113281 272.933594 369.757812 271.964844 C 369.402344 270.996094 369.144531 270 368.980469 268.980469 C 368.820312 267.960938 368.761719 266.9375 368.804688 265.902344 C 368.84375 264.871094 368.988281 263.855469 369.226562 262.851562 C 369.46875 261.847656 369.808594 260.875 370.242188 259.9375 C 370.675781 259.003906 371.195312 258.117188 371.804688 257.28125 L 405.714844 210.703125 C 406.324219 209.867188 407.007812 209.101562 407.765625 208.398438 C 408.523438 207.699219 409.34375 207.082031 410.226562 206.542969 C 411.105469 206.003906 412.03125 205.554688 413 205.199219 C 413.96875 204.84375 414.964844 204.582031 415.984375 204.421875 C 417.003906 204.261719 418.03125 204.203125 419.0625 204.242188 C 420.09375 204.285156 421.113281 204.425781 422.117188 204.667969 C 423.121094 204.910156 424.09375 205.25 425.03125 205.683594 C 425.96875 206.113281 426.855469 206.636719 427.6875 207.242188 Z M 427.6875 207.242188 " fill-opacity="1" fill-rule="nonzero"/><path fill="#fcce44" d="M 154.320312 165.707031 L 155.734375 164.890625 C 156.628906 164.375 157.5625 163.949219 158.542969 163.617188 C 159.519531 163.289062 160.519531 163.054688 161.546875 162.917969 C 162.570312 162.785156 163.597656 162.75 164.625 162.816406 C 165.65625 162.886719 166.671875 163.054688 167.667969 163.320312 C 168.667969 163.585938 169.628906 163.949219 170.554688 164.40625 C 171.480469 164.863281 172.355469 165.40625 173.171875 166.035156 C 173.992188 166.664062 174.742188 167.363281 175.425781 168.140625 C 176.105469 168.917969 176.703125 169.753906 177.21875 170.648438 L 206.03125 220.539062 C 206.550781 221.433594 206.972656 222.371094 207.304688 223.347656 C 207.636719 224.324219 207.871094 225.324219 208.003906 226.347656 C 208.140625 227.375 208.175781 228.398438 208.105469 229.429688 C 208.039062 230.460938 207.871094 231.476562 207.605469 232.472656 C 207.335938 233.46875 206.976562 234.429688 206.519531 235.355469 C 206.0625 236.28125 205.519531 237.15625 204.890625 237.976562 C 204.261719 238.792969 203.558594 239.542969 202.78125 240.222656 C 202.003906 240.90625 201.171875 241.503906 200.277344 242.019531 L 198.863281 242.835938 C 197.96875 243.351562 197.035156 243.773438 196.054688 244.105469 C 195.078125 244.4375 194.078125 244.671875 193.054688 244.808594 C 192.027344 244.941406 191 244.976562 189.972656 244.90625 C 188.941406 244.839844 187.925781 244.671875 186.929688 244.40625 C 185.929688 244.136719 184.96875 243.777344 184.042969 243.320312 C 183.117188 242.863281 182.242188 242.320312 181.425781 241.691406 C 180.605469 241.0625 179.855469 240.359375 179.175781 239.585938 C 178.492188 238.808594 177.894531 237.972656 177.378906 237.078125 L 148.566406 187.1875 C 148.046875 186.292969 147.625 185.355469 147.292969 184.378906 C 146.960938 183.402344 146.726562 182.398438 146.59375 181.375 C 146.457031 180.351562 146.425781 179.324219 146.492188 178.296875 C 146.558594 177.265625 146.726562 176.25 146.992188 175.253906 C 147.261719 174.257812 147.621094 173.296875 148.078125 172.367188 C 148.535156 171.441406 149.078125 170.570312 149.707031 169.75 C 150.335938 168.933594 151.039062 168.183594 151.816406 167.5 C 152.59375 166.820312 153.429688 166.222656 154.320312 165.707031 Z M 154.320312 165.707031 " fill-opacity="1" fill-rule="nonzero"/><path fill="#fcce44" d="M 55.371094 249.804688 L 56.125 248.359375 C 56.605469 247.445312 57.167969 246.585938 57.816406 245.78125 C 58.464844 244.976562 59.183594 244.246094 59.976562 243.582031 C 60.769531 242.921875 61.617188 242.339844 62.523438 241.847656 C 63.429688 241.351562 64.378906 240.949219 65.363281 240.640625 C 66.347656 240.332031 67.355469 240.125 68.382812 240.011719 C 69.410156 239.902344 70.4375 239.894531 71.464844 239.984375 C 72.492188 240.078125 73.503906 240.269531 74.496094 240.558594 C 75.484375 240.851562 76.4375 241.234375 77.351562 241.714844 L 128.417969 268.414062 C 129.332031 268.890625 130.191406 269.453125 130.996094 270.101562 C 131.800781 270.75 132.535156 271.472656 133.195312 272.261719 C 133.859375 273.054688 134.4375 273.90625 134.933594 274.808594 C 135.425781 275.714844 135.828125 276.664062 136.136719 277.648438 C 136.445312 278.632812 136.65625 279.640625 136.765625 280.664062 C 136.878906 281.691406 136.886719 282.71875 136.792969 283.75 C 136.703125 284.777344 136.511719 285.785156 136.21875 286.777344 C 135.929688 287.765625 135.542969 288.71875 135.066406 289.636719 L 134.308594 291.078125 C 133.832031 291.992188 133.269531 292.851562 132.621094 293.65625 C 131.972656 294.460938 131.253906 295.195312 130.460938 295.855469 C 129.667969 296.519531 128.816406 297.097656 127.910156 297.59375 C 127.003906 298.085938 126.058594 298.488281 125.074219 298.796875 C 124.089844 299.105469 123.082031 299.316406 122.054688 299.425781 C 121.027344 299.535156 120 299.546875 118.972656 299.453125 C 117.941406 299.363281 116.933594 299.171875 115.941406 298.878906 C 114.953125 298.589844 114 298.203125 113.082031 297.726562 L 62.019531 271.027344 C 61.105469 270.546875 60.242188 269.984375 59.441406 269.335938 C 58.636719 268.6875 57.902344 267.96875 57.238281 267.175781 C 56.578125 266.382812 56 265.535156 55.503906 264.628906 C 55.007812 263.722656 54.605469 262.777344 54.296875 261.792969 C 53.988281 260.804688 53.78125 259.800781 53.667969 258.773438 C 53.558594 257.746094 53.550781 256.71875 53.640625 255.691406 C 53.734375 254.664062 53.925781 253.652344 54.214844 252.664062 C 54.507812 251.671875 54.890625 250.71875 55.371094 249.804688 Z M 55.371094 249.804688 " fill-opacity="1" fill-rule="nonzero"/><path fill="#fcce44" d="M 33.011719 365.691406 L 32.828125 364.070312 C 32.714844 363.046875 32.703125 362.019531 32.789062 360.988281 C 32.878906 359.960938 33.066406 358.949219 33.351562 357.957031 C 33.640625 356.96875 34.019531 356.011719 34.496094 355.097656 C 34.96875 354.179688 35.53125 353.316406 36.175781 352.511719 C 36.820312 351.703125 37.535156 350.96875 38.324219 350.304688 C 39.117188 349.636719 39.960938 349.054688 40.867188 348.558594 C 41.773438 348.058594 42.714844 347.652344 43.699219 347.339844 C 44.683594 347.027344 45.691406 346.8125 46.714844 346.699219 L 103.988281 340.308594 C 105.011719 340.195312 106.042969 340.179688 107.070312 340.269531 C 108.097656 340.355469 109.109375 340.542969 110.101562 340.828125 C 111.09375 341.117188 112.046875 341.496094 112.964844 341.972656 C 113.882812 342.445312 114.746094 343.007812 115.550781 343.652344 C 116.359375 344.296875 117.09375 345.011719 117.761719 345.804688 C 118.425781 346.59375 119.007812 347.4375 119.507812 348.34375 C 120.003906 349.246094 120.410156 350.191406 120.722656 351.175781 C 121.035156 352.160156 121.25 353.164062 121.363281 354.191406 L 121.546875 355.808594 C 121.660156 356.835938 121.671875 357.863281 121.585938 358.894531 C 121.496094 359.921875 121.308594 360.933594 121.023438 361.921875 C 120.734375 362.914062 120.355469 363.871094 119.878906 364.785156 C 119.40625 365.703125 118.84375 366.566406 118.199219 367.371094 C 117.554688 368.179688 116.839844 368.914062 116.046875 369.578125 C 115.257812 370.246094 114.410156 370.828125 113.507812 371.324219 C 112.601562 371.824219 111.660156 372.230469 110.675781 372.542969 C 109.691406 372.855469 108.683594 373.066406 107.65625 373.183594 L 50.386719 379.574219 C 49.359375 379.6875 48.332031 379.703125 47.304688 379.613281 C 46.273438 379.527344 45.265625 379.339844 44.273438 379.050781 C 43.28125 378.765625 42.324219 378.386719 41.410156 377.910156 C 40.492188 377.433594 39.628906 376.875 38.824219 376.230469 C 38.015625 375.585938 37.28125 374.871094 36.613281 374.078125 C 35.949219 373.289062 35.367188 372.441406 34.867188 371.539062 C 34.371094 370.636719 33.964844 369.691406 33.652344 368.707031 C 33.339844 367.722656 33.125 366.71875 33.011719 365.691406 Z M 33.011719 365.691406 " fill-opacity="1" fill-rule="nonzero"/><path fill="#fcce44" d="M 64.070312 475.484375 L 63.199219 474.105469 C 62.652344 473.234375 62.191406 472.3125 61.824219 471.347656 C 61.453125 470.382812 61.183594 469.394531 61.011719 468.375 C 60.835938 467.355469 60.765625 466.332031 60.792969 465.300781 C 60.824219 464.269531 60.953125 463.25 61.179688 462.242188 C 61.410156 461.234375 61.734375 460.261719 62.15625 459.316406 C 62.578125 458.375 63.089844 457.484375 63.6875 456.640625 C 64.285156 455.796875 64.957031 455.023438 65.707031 454.3125 C 66.457031 453.605469 67.269531 452.972656 68.144531 452.425781 L 116.929688 421.757812 C 117.804688 421.210938 118.722656 420.75 119.6875 420.382812 C 120.652344 420.011719 121.644531 419.742188 122.660156 419.570312 C 123.679688 419.394531 124.707031 419.324219 125.738281 419.351562 C 126.769531 419.382812 127.789062 419.511719 128.796875 419.738281 C 129.804688 419.96875 130.777344 420.292969 131.722656 420.714844 C 132.664062 421.136719 133.558594 421.648438 134.398438 422.242188 C 135.242188 422.839844 136.019531 423.515625 136.726562 424.265625 C 137.4375 425.015625 138.066406 425.828125 138.617188 426.699219 L 139.484375 428.082031 C 140.035156 428.953125 140.492188 429.875 140.863281 430.839844 C 141.230469 431.800781 141.5 432.792969 141.675781 433.8125 C 141.847656 434.828125 141.921875 435.855469 141.890625 436.886719 C 141.863281 437.917969 141.734375 438.9375 141.503906 439.945312 C 141.273438 440.953125 140.949219 441.925781 140.527344 442.867188 C 140.105469 443.8125 139.597656 444.703125 139 445.546875 C 138.402344 446.386719 137.726562 447.164062 136.976562 447.875 C 136.226562 448.582031 135.414062 449.210938 134.542969 449.761719 L 85.757812 480.429688 C 84.882812 480.976562 83.960938 481.4375 82.996094 481.804688 C 82.035156 482.171875 81.042969 482.445312 80.023438 482.617188 C 79.003906 482.792969 77.980469 482.863281 76.949219 482.835938 C 75.914062 482.804688 74.894531 482.675781 73.890625 482.449219 C 72.882812 482.21875 71.90625 481.894531 70.964844 481.472656 C 70.019531 481.050781 69.128906 480.539062 68.285156 479.941406 C 67.445312 479.347656 66.667969 478.671875 65.957031 477.921875 C 65.25 477.171875 64.617188 476.359375 64.070312 475.484375 Z M 64.070312 475.484375 " fill-opacity="1" fill-rule="nonzero"/></svg>