<svg xmlns="http://www.w3.org/2000/svg" xmlns:xlink="http://www.w3.org/1999/xlink" width="500" zoomAndPan="magnify" viewBox="0 0 375 374.999991" height="500" preserveAspectRatio="xMidYMid meet" version="1.0"><defs><g/><clipPath id="b3c6f24796"><path d="M 104.816406 37.292969 L 270.164062 37.292969 L 270.164062 217.5 L 104.816406 217.5 Z M 104.816406 37.292969 " clip-rule="nonzero"/></clipPath><clipPath id="c109b7fbeb"><path d="M 249.914062 217.5 L 125.066406 217.5 C 113.882812 217.5 104.816406 208.433594 104.816406 197.25 L 104.816406 57.75 C 104.816406 46.566406 113.882812 37.5 125.066406 37.5 L 249.914062 37.5 C 261.097656 37.5 270.164062 46.566406 270.164062 57.75 L 270.164062 197.25 C 270.164062 208.433594 261.097656 217.5 249.914062 217.5 Z M 249.914062 217.5 " clip-rule="nonzero"/></clipPath><clipPath id="9c1f3d1de2"><path d="M 0.816406 0.503906 L 166.164062 0.503906 L 166.164062 180.5 L 0.816406 180.5 Z M 0.816406 0.503906 " clip-rule="nonzero"/></clipPath><clipPath id="543a3e9138"><path d="M 145.914062 180.5 L 21.066406 180.5 C 9.882812 180.5 0.816406 171.433594 0.816406 160.25 L 0.816406 20.75 C 0.816406 9.566406 9.882812 0.5 21.066406 0.5 L 145.914062 0.5 C 157.097656 0.5 166.164062 9.566406 166.164062 20.75 L 166.164062 160.25 C 166.164062 171.433594 157.097656 180.5 145.914062 180.5 Z M 145.914062 180.5 " clip-rule="nonzero"/></clipPath><radialGradient gradientTransform="matrix(-1, 0, 0, -1, 166.164929, 180.503252)" gradientUnits="userSpaceOnUse" r="244.418637" cx="0" id="df96a40bdd" cy="0" fx="0" fy="0"><stop stop-opacity="1" stop-color="rgb(13.383484%, 0%, 33.462524%)" offset="0"/><stop stop-opacity="1" stop-color="rgb(13.467407%, 0%, 33.662415%)" offset="0.0078125"/><stop stop-opacity="1" stop-color="rgb(13.522339%, 0%, 33.795166%)" offset="0.0117188"/><stop stop-opacity="1" stop-color="rgb(13.577271%, 0%, 33.927917%)" offset="0.015625"/><stop stop-opacity="1" stop-color="rgb(13.632202%, 0%, 34.062195%)" offset="0.0195312"/><stop stop-opacity="1" stop-color="rgb(13.687134%, 0%, 34.194946%)" offset="0.0234375"/><stop stop-opacity="1" stop-color="rgb(13.742065%, 0%, 34.327698%)" offset="0.0273438"/><stop stop-opacity="1" stop-color="rgb(13.798523%, 0%, 34.461975%)" offset="0.03125"/><stop stop-opacity="1" stop-color="rgb(13.853455%, 0%, 34.594727%)" offset="0.0351562"/><stop stop-opacity="1" stop-color="rgb(13.908386%, 0%, 34.727478%)" offset="0.0390625"/><stop stop-opacity="1" stop-color="rgb(13.963318%, 0%, 34.861755%)" offset="0.0429688"/><stop stop-opacity="1" stop-color="rgb(14.01825%, 0%, 34.994507%)" offset="0.046875"/><stop stop-opacity="1" stop-color="rgb(14.073181%, 0%, 35.128784%)" offset="0.0507812"/><stop stop-opacity="1" stop-color="rgb(14.129639%, 0%, 35.261536%)" offset="0.0546875"/><stop stop-opacity="1" stop-color="rgb(14.18457%, 0%, 35.394287%)" offset="0.0585938"/><stop stop-opacity="1" stop-color="rgb(14.239502%, 0%, 35.528564%)" offset="0.0625"/><stop stop-opacity="1" stop-color="rgb(14.294434%, 0%, 35.661316%)" offset="0.0664062"/><stop stop-opacity="1" stop-color="rgb(14.349365%, 0%, 35.794067%)" offset="0.0703125"/><stop stop-opacity="1" stop-color="rgb(14.404297%, 0%, 35.928345%)" offset="0.0742188"/><stop stop-opacity="1" stop-color="rgb(14.459229%, 0%, 36.061096%)" offset="0.078125"/><stop stop-opacity="1" stop-color="rgb(14.515686%, 0%, 36.193848%)" offset="0.0820312"/><stop stop-opacity="1" stop-color="rgb(14.570618%, 0%, 36.328125%)" offset="0.0859375"/><stop stop-opacity="1" stop-color="rgb(14.625549%, 0%, 36.460876%)" offset="0.0898438"/><stop stop-opacity="1" stop-color="rgb(14.680481%, 0%, 36.593628%)" offset="0.09375"/><stop stop-opacity="1" stop-color="rgb(14.735413%, 0%, 36.727905%)" offset="0.0976562"/><stop stop-opacity="1" stop-color="rgb(14.790344%, 0%, 36.860657%)" offset="0.101562"/><stop stop-opacity="1" stop-color="rgb(14.845276%, 0%, 36.993408%)" offset="0.105469"/><stop stop-opacity="1" stop-color="rgb(14.901733%, 0%, 37.127686%)" offset="0.109375"/><stop stop-opacity="1" stop-color="rgb(14.956665%, 0%, 37.260437%)" offset="0.113281"/><stop stop-opacity="1" stop-color="rgb(15.011597%, 0%, 37.393188%)" offset="0.117188"/><stop stop-opacity="1" stop-color="rgb(15.066528%, 0%, 37.527466%)" offset="0.121094"/><stop stop-opacity="1" stop-color="rgb(15.12146%, 0%, 37.660217%)" offset="0.125"/><stop stop-opacity="1" stop-color="rgb(15.176392%, 0%, 37.792969%)" offset="0.128906"/><stop stop-opacity="1" stop-color="rgb(15.231323%, 0%, 37.927246%)" offset="0.132812"/><stop stop-opacity="1" stop-color="rgb(15.287781%, 0%, 38.059998%)" offset="0.136719"/><stop stop-opacity="1" stop-color="rgb(15.342712%, 0%, 38.192749%)" offset="0.140625"/><stop stop-opacity="1" stop-color="rgb(15.397644%, 0%, 38.327026%)" offset="0.144531"/><stop stop-opacity="1" stop-color="rgb(15.452576%, 0%, 38.459778%)" offset="0.148438"/><stop stop-opacity="1" stop-color="rgb(15.507507%, 0%, 38.594055%)" offset="0.152344"/><stop stop-opacity="1" stop-color="rgb(15.562439%, 0%, 38.726807%)" offset="0.15625"/><stop stop-opacity="1" stop-color="rgb(15.617371%, 0%, 38.859558%)" offset="0.160156"/><stop stop-opacity="1" stop-color="rgb(15.673828%, 0%, 38.993835%)" offset="0.164062"/><stop stop-opacity="1" stop-color="rgb(15.72876%, 0%, 39.126587%)" offset="0.167969"/><stop stop-opacity="1" stop-color="rgb(15.783691%, 0%, 39.259338%)" offset="0.171875"/><stop stop-opacity="1" stop-color="rgb(15.838623%, 0%, 39.393616%)" offset="0.175781"/><stop stop-opacity="1" stop-color="rgb(15.893555%, 0%, 39.526367%)" offset="0.179688"/><stop stop-opacity="1" stop-color="rgb(15.948486%, 0%, 39.659119%)" offset="0.183594"/><stop stop-opacity="1" stop-color="rgb(16.004944%, 0%, 39.793396%)" offset="0.1875"/><stop stop-opacity="1" stop-color="rgb(16.059875%, 0%, 39.926147%)" offset="0.191406"/><stop stop-opacity="1" stop-color="rgb(16.114807%, 0%, 40.058899%)" offset="0.195312"/><stop stop-opacity="1" stop-color="rgb(16.169739%, 0%, 40.193176%)" offset="0.199219"/><stop stop-opacity="1" stop-color="rgb(16.22467%, 0%, 40.325928%)" offset="0.203125"/><stop stop-opacity="1" stop-color="rgb(16.279602%, 0%, 40.458679%)" offset="0.207031"/><stop stop-opacity="1" stop-color="rgb(16.334534%, 0%, 40.592957%)" offset="0.210938"/><stop stop-opacity="1" stop-color="rgb(16.390991%, 0%, 40.725708%)" offset="0.214844"/><stop stop-opacity="1" stop-color="rgb(16.445923%, 0%, 40.858459%)" offset="0.21875"/><stop stop-opacity="1" stop-color="rgb(16.500854%, 0%, 40.992737%)" offset="0.222656"/><stop stop-opacity="1" stop-color="rgb(16.555786%, 0%, 41.125488%)" offset="0.226562"/><stop stop-opacity="1" stop-color="rgb(16.610718%, 0%, 41.25824%)" offset="0.230469"/><stop stop-opacity="1" stop-color="rgb(16.665649%, 0%, 41.392517%)" offset="0.234375"/><stop stop-opacity="1" stop-color="rgb(16.720581%, 0%, 41.525269%)" offset="0.238281"/><stop stop-opacity="1" stop-color="rgb(16.777039%, 0%, 41.659546%)" offset="0.242188"/><stop stop-opacity="1" stop-color="rgb(16.83197%, 0%, 41.792297%)" offset="0.246094"/><stop stop-opacity="1" stop-color="rgb(16.886902%, 0%, 41.925049%)" offset="0.25"/><stop stop-opacity="1" stop-color="rgb(16.969299%, 0%, 42.124939%)" offset="0.253906"/><stop stop-opacity="1" stop-color="rgb(17.079163%, 0%, 42.391968%)" offset="0.261719"/><stop stop-opacity="1" stop-color="rgb(17.190552%, 0%, 42.658997%)" offset="0.269531"/><stop stop-opacity="1" stop-color="rgb(17.300415%, 0%, 42.9245%)" offset="0.277344"/><stop stop-opacity="1" stop-color="rgb(17.410278%, 0%, 43.191528%)" offset="0.285156"/><stop stop-opacity="1" stop-color="rgb(17.520142%, 0%, 43.458557%)" offset="0.292969"/><stop stop-opacity="1" stop-color="rgb(17.631531%, 0%, 43.72406%)" offset="0.300781"/><stop stop-opacity="1" stop-color="rgb(17.741394%, 0%, 43.991089%)" offset="0.308594"/><stop stop-opacity="1" stop-color="rgb(17.851257%, 0%, 44.258118%)" offset="0.316406"/><stop stop-opacity="1" stop-color="rgb(17.962646%, 0%, 44.523621%)" offset="0.324219"/><stop stop-opacity="1" stop-color="rgb(18.07251%, 0%, 44.790649%)" offset="0.332031"/><stop stop-opacity="1" stop-color="rgb(18.182373%, 0%, 45.057678%)" offset="0.339844"/><stop stop-opacity="1" stop-color="rgb(18.293762%, 0%, 45.324707%)" offset="0.347656"/><stop stop-opacity="1" stop-color="rgb(18.403625%, 0%, 45.59021%)" offset="0.355469"/><stop stop-opacity="1" stop-color="rgb(18.513489%, 0%, 45.857239%)" offset="0.363281"/><stop stop-opacity="1" stop-color="rgb(18.623352%, 0%, 46.124268%)" offset="0.371094"/><stop stop-opacity="1" stop-color="rgb(18.734741%, 0%, 46.389771%)" offset="0.378906"/><stop stop-opacity="1" stop-color="rgb(18.844604%, 0%, 46.656799%)" offset="0.386719"/><stop stop-opacity="1" stop-color="rgb(18.954468%, 0%, 46.923828%)" offset="0.394531"/><stop stop-opacity="1" stop-color="rgb(19.065857%, 0%, 47.189331%)" offset="0.402344"/><stop stop-opacity="1" stop-color="rgb(19.17572%, 0%, 47.45636%)" offset="0.410156"/><stop stop-opacity="1" stop-color="rgb(19.285583%, 0%, 47.723389%)" offset="0.417969"/><stop stop-opacity="1" stop-color="rgb(19.395447%, 0%, 47.988892%)" offset="0.425781"/><stop stop-opacity="1" stop-color="rgb(19.506836%, 0%, 48.25592%)" offset="0.433594"/><stop stop-opacity="1" stop-color="rgb(19.616699%, 0%, 48.522949%)" offset="0.441406"/><stop stop-opacity="1" stop-color="rgb(19.726562%, 0%, 48.789978%)" offset="0.449219"/><stop stop-opacity="1" stop-color="rgb(19.837952%, 0%, 49.055481%)" offset="0.457031"/><stop stop-opacity="1" stop-color="rgb(19.947815%, 0%, 49.32251%)" offset="0.464844"/><stop stop-opacity="1" stop-color="rgb(20.057678%, 0%, 49.589539%)" offset="0.472656"/><stop stop-opacity="1" stop-color="rgb(20.169067%, 0%, 49.855042%)" offset="0.480469"/><stop stop-opacity="1" stop-color="rgb(20.278931%, 0%, 50.12207%)" offset="0.488281"/><stop stop-opacity="1" stop-color="rgb(20.388794%, 0%, 50.389099%)" offset="0.496094"/><stop stop-opacity="1" stop-color="rgb(20.471191%, 0%, 50.588989%)" offset="0.503906"/><stop stop-opacity="1" stop-color="rgb(20.527649%, 0%, 50.721741%)" offset="0.507812"/><stop stop-opacity="1" stop-color="rgb(20.582581%, 0%, 50.854492%)" offset="0.511719"/><stop stop-opacity="1" stop-color="rgb(20.637512%, 0%, 50.98877%)" offset="0.515625"/><stop stop-opacity="1" stop-color="rgb(20.692444%, 0%, 51.121521%)" offset="0.519531"/><stop stop-opacity="1" stop-color="rgb(20.747375%, 0%, 51.255798%)" offset="0.523438"/><stop stop-opacity="1" stop-color="rgb(20.802307%, 0%, 51.38855%)" offset="0.527344"/><stop stop-opacity="1" stop-color="rgb(20.857239%, 0%, 51.521301%)" offset="0.53125"/><stop stop-opacity="1" stop-color="rgb(20.913696%, 0%, 51.655579%)" offset="0.535156"/><stop stop-opacity="1" stop-color="rgb(20.968628%, 0%, 51.78833%)" offset="0.539062"/><stop stop-opacity="1" stop-color="rgb(21.02356%, 0%, 51.921082%)" offset="0.542969"/><stop stop-opacity="1" stop-color="rgb(21.078491%, 0%, 52.055359%)" offset="0.546875"/><stop stop-opacity="1" stop-color="rgb(21.133423%, 0%, 52.18811%)" offset="0.550781"/><stop stop-opacity="1" stop-color="rgb(21.188354%, 0%, 52.320862%)" offset="0.554688"/><stop stop-opacity="1" stop-color="rgb(21.243286%, 0%, 52.455139%)" offset="0.558594"/><stop stop-opacity="1" stop-color="rgb(21.299744%, 0%, 52.587891%)" offset="0.5625"/><stop stop-opacity="1" stop-color="rgb(21.354675%, 0%, 52.720642%)" offset="0.566406"/><stop stop-opacity="1" stop-color="rgb(21.409607%, 0%, 52.854919%)" offset="0.570312"/><stop stop-opacity="1" stop-color="rgb(21.464539%, 0%, 52.987671%)" offset="0.574219"/><stop stop-opacity="1" stop-color="rgb(21.51947%, 0%, 53.120422%)" offset="0.578125"/><stop stop-opacity="1" stop-color="rgb(21.574402%, 0%, 53.2547%)" offset="0.582031"/><stop stop-opacity="1" stop-color="rgb(21.630859%, 0%, 53.387451%)" offset="0.585938"/><stop stop-opacity="1" stop-color="rgb(21.685791%, 0%, 53.520203%)" offset="0.589844"/><stop stop-opacity="1" stop-color="rgb(21.740723%, 0%, 53.65448%)" offset="0.59375"/><stop stop-opacity="1" stop-color="rgb(21.795654%, 0%, 53.787231%)" offset="0.597656"/><stop stop-opacity="1" stop-color="rgb(21.850586%, 0%, 53.919983%)" offset="0.601562"/><stop stop-opacity="1" stop-color="rgb(21.905518%, 0%, 54.05426%)" offset="0.605469"/><stop stop-opacity="1" stop-color="rgb(21.960449%, 0%, 54.187012%)" offset="0.609375"/><stop stop-opacity="1" stop-color="rgb(22.016907%, 0%, 54.321289%)" offset="0.613281"/><stop stop-opacity="1" stop-color="rgb(22.071838%, 0%, 54.454041%)" offset="0.617188"/><stop stop-opacity="1" stop-color="rgb(22.12677%, 0%, 54.586792%)" offset="0.621094"/><stop stop-opacity="1" stop-color="rgb(22.181702%, 0%, 54.721069%)" offset="0.625"/><stop stop-opacity="1" stop-color="rgb(22.264099%, 0%, 54.920959%)" offset="0.628906"/><stop stop-opacity="1" stop-color="rgb(22.373962%, 0%, 55.186462%)" offset="0.636719"/><stop stop-opacity="1" stop-color="rgb(22.485352%, 0%, 55.453491%)" offset="0.644531"/><stop stop-opacity="1" stop-color="rgb(22.595215%, 0%, 55.72052%)" offset="0.652344"/><stop stop-opacity="1" stop-color="rgb(22.705078%, 0%, 55.986023%)" offset="0.660156"/><stop stop-opacity="1" stop-color="rgb(22.816467%, 0%, 56.253052%)" offset="0.667969"/><stop stop-opacity="1" stop-color="rgb(22.926331%, 0%, 56.520081%)" offset="0.675781"/><stop stop-opacity="1" stop-color="rgb(23.036194%, 0%, 56.785583%)" offset="0.683594"/><stop stop-opacity="1" stop-color="rgb(23.147583%, 0%, 57.052612%)" offset="0.691406"/><stop stop-opacity="1" stop-color="rgb(23.257446%, 0%, 57.319641%)" offset="0.699219"/><stop stop-opacity="1" stop-color="rgb(23.36731%, 0%, 57.585144%)" offset="0.707031"/><stop stop-opacity="1" stop-color="rgb(23.477173%, 0%, 57.852173%)" offset="0.714844"/><stop stop-opacity="1" stop-color="rgb(23.588562%, 0%, 58.119202%)" offset="0.722656"/><stop stop-opacity="1" stop-color="rgb(23.698425%, 0%, 58.38623%)" offset="0.730469"/><stop stop-opacity="1" stop-color="rgb(23.808289%, 0%, 58.651733%)" offset="0.738281"/><stop stop-opacity="1" stop-color="rgb(23.919678%, 0%, 58.918762%)" offset="0.746094"/><stop stop-opacity="1" stop-color="rgb(24.002075%, 0%, 59.118652%)" offset="0.753906"/><stop stop-opacity="1" stop-color="rgb(24.057007%, 0%, 59.251404%)" offset="0.757812"/><stop stop-opacity="1" stop-color="rgb(24.111938%, 0%, 59.385681%)" offset="0.761719"/><stop stop-opacity="1" stop-color="rgb(24.16687%, 0%, 59.518433%)" offset="0.765625"/><stop stop-opacity="1" stop-color="rgb(24.221802%, 0%, 59.651184%)" offset="0.769531"/><stop stop-opacity="1" stop-color="rgb(24.278259%, 0%, 59.785461%)" offset="0.773438"/><stop stop-opacity="1" stop-color="rgb(24.333191%, 0%, 59.918213%)" offset="0.777344"/><stop stop-opacity="1" stop-color="rgb(24.388123%, 0%, 60.050964%)" offset="0.78125"/><stop stop-opacity="1" stop-color="rgb(24.443054%, 0%, 60.185242%)" offset="0.785156"/><stop stop-opacity="1" stop-color="rgb(24.497986%, 0%, 60.317993%)" offset="0.789062"/><stop stop-opacity="1" stop-color="rgb(24.552917%, 0%, 60.450745%)" offset="0.792969"/><stop stop-opacity="1" stop-color="rgb(24.607849%, 0%, 60.585022%)" offset="0.796875"/><stop stop-opacity="1" stop-color="rgb(24.664307%, 0%, 60.717773%)" offset="0.800781"/><stop stop-opacity="1" stop-color="rgb(24.719238%, 0%, 60.852051%)" offset="0.804688"/><stop stop-opacity="1" stop-color="rgb(24.77417%, 0%, 60.984802%)" offset="0.808594"/><stop stop-opacity="1" stop-color="rgb(24.829102%, 0%, 61.117554%)" offset="0.8125"/><stop stop-opacity="1" stop-color="rgb(24.911499%, 0%, 61.317444%)" offset="0.816406"/><stop stop-opacity="1" stop-color="rgb(25.022888%, 0%, 61.584473%)" offset="0.824219"/><stop stop-opacity="1" stop-color="rgb(25.132751%, 0%, 61.851501%)" offset="0.832031"/><stop stop-opacity="1" stop-color="rgb(25.242615%, 0%, 62.117004%)" offset="0.839844"/><stop stop-opacity="1" stop-color="rgb(25.352478%, 0%, 62.384033%)" offset="0.847656"/><stop stop-opacity="1" stop-color="rgb(25.463867%, 0%, 62.651062%)" offset="0.855469"/><stop stop-opacity="1" stop-color="rgb(25.57373%, 0%, 62.916565%)" offset="0.863281"/><stop stop-opacity="1" stop-color="rgb(25.683594%, 0%, 63.183594%)" offset="0.871094"/><stop stop-opacity="1" stop-color="rgb(25.767517%, 0%, 63.383484%)" offset="0.878906"/><stop stop-opacity="1" stop-color="rgb(25.822449%, 0%, 63.516235%)" offset="0.882812"/><stop stop-opacity="1" stop-color="rgb(25.87738%, 0%, 63.650513%)" offset="0.886719"/><stop stop-opacity="1" stop-color="rgb(25.932312%, 0%, 63.783264%)" offset="0.890625"/><stop stop-opacity="1" stop-color="rgb(25.987244%, 0%, 63.917542%)" offset="0.894531"/><stop stop-opacity="1" stop-color="rgb(26.042175%, 0%, 64.050293%)" offset="0.898438"/><stop stop-opacity="1" stop-color="rgb(26.097107%, 0%, 64.183044%)" offset="0.902344"/><stop stop-opacity="1" stop-color="rgb(26.153564%, 0%, 64.317322%)" offset="0.90625"/><stop stop-opacity="1" stop-color="rgb(26.235962%, 0%, 64.517212%)" offset="0.910156"/><stop stop-opacity="1" stop-color="rgb(26.345825%, 0%, 64.782715%)" offset="0.917969"/><stop stop-opacity="1" stop-color="rgb(26.455688%, 0%, 65.049744%)" offset="0.925781"/><stop stop-opacity="1" stop-color="rgb(26.567078%, 0%, 65.316772%)" offset="0.933594"/><stop stop-opacity="1" stop-color="rgb(26.649475%, 0%, 65.516663%)" offset="0.941406"/><stop stop-opacity="1" stop-color="rgb(26.704407%, 0%, 65.649414%)" offset="0.945312"/><stop stop-opacity="1" stop-color="rgb(26.759338%, 0%, 65.782166%)" offset="0.949219"/><stop stop-opacity="1" stop-color="rgb(26.81427%, 0%, 65.916443%)" offset="0.953125"/><stop stop-opacity="1" stop-color="rgb(26.898193%, 0%, 66.116333%)" offset="0.957031"/><stop stop-opacity="1" stop-color="rgb(27.008057%, 0%, 66.381836%)" offset="0.964844"/><stop stop-opacity="1" stop-color="rgb(27.090454%, 0%, 66.581726%)" offset="0.972656"/><stop stop-opacity="1" stop-color="rgb(27.145386%, 0%, 66.716003%)" offset="0.976562"/><stop stop-opacity="1" stop-color="rgb(27.227783%, 0%, 66.915894%)" offset="0.980469"/><stop stop-opacity="1" stop-color="rgb(27.311707%, 0%, 67.115784%)" offset="0.988281"/><stop stop-opacity="1" stop-color="rgb(27.394104%, 0%, 67.315674%)" offset="0.992188"/><stop stop-opacity="1" stop-color="rgb(27.449036%, 0%, 67.449951%)" offset="1"/></radialGradient><clipPath id="ea2606854f"><rect x="0" width="167" y="0" height="181"/></clipPath><clipPath id="311ff6588d"><path d="M 160.175781 135.117188 L 168.066406 135.117188 L 168.066406 177.59375 L 160.175781 177.59375 Z M 160.175781 135.117188 " clip-rule="nonzero"/></clipPath><clipPath id="36a0edfd19"><path d="M 163.761719 135.117188 L 164.484375 135.117188 C 165.433594 135.117188 166.347656 135.496094 167.019531 136.167969 C 167.691406 136.839844 168.066406 137.75 168.066406 138.699219 L 168.066406 174.003906 C 168.066406 174.953125 167.691406 175.867188 167.019531 176.539062 C 166.347656 177.210938 165.433594 177.585938 164.484375 177.585938 L 163.761719 177.585938 C 162.808594 177.585938 161.898438 177.210938 161.226562 176.539062 C 160.554688 175.867188 160.175781 174.953125 160.175781 174.003906 L 160.175781 138.699219 C 160.175781 137.75 160.554688 136.839844 161.226562 136.167969 C 161.898438 135.496094 162.808594 135.117188 163.761719 135.117188 Z M 163.761719 135.117188 " clip-rule="nonzero"/></clipPath><clipPath id="fc30b4c503"><path d="M 0.175781 0.117188 L 8.066406 0.117188 L 8.066406 42.59375 L 0.175781 42.59375 Z M 0.175781 0.117188 " clip-rule="nonzero"/></clipPath><clipPath id="cbb4d572b7"><path d="M 3.761719 0.117188 L 4.484375 0.117188 C 5.433594 0.117188 6.347656 0.496094 7.019531 1.167969 C 7.691406 1.839844 8.066406 2.75 8.066406 3.699219 L 8.066406 39.003906 C 8.066406 39.953125 7.691406 40.867188 7.019531 41.539062 C 6.347656 42.210938 5.433594 42.585938 4.484375 42.585938 L 3.761719 42.585938 C 2.808594 42.585938 1.898438 42.210938 1.226562 41.539062 C 0.554688 40.867188 0.175781 39.953125 0.175781 39.003906 L 0.175781 3.699219 C 0.175781 2.75 0.554688 1.839844 1.226562 1.167969 C 1.898438 0.496094 2.808594 0.117188 3.761719 0.117188 Z M 3.761719 0.117188 " clip-rule="nonzero"/></clipPath><clipPath id="c833323bf4"><rect x="0" width="9" y="0" height="43"/></clipPath><clipPath id="e491318d27"><path d="M 181.929688 109.195312 L 189.636719 109.195312 L 189.636719 177.609375 L 181.929688 177.609375 Z M 181.929688 109.195312 " clip-rule="nonzero"/></clipPath><clipPath id="6d71e04bb4"><path d="M 185.511719 109.195312 L 186.054688 109.195312 C 187.003906 109.195312 187.917969 109.574219 188.589844 110.246094 C 189.261719 110.917969 189.636719 111.828125 189.636719 112.78125 L 189.636719 174.003906 C 189.636719 174.953125 189.261719 175.867188 188.589844 176.539062 C 187.917969 177.210938 187.003906 177.585938 186.054688 177.585938 L 185.511719 177.585938 C 184.5625 177.585938 183.652344 177.210938 182.980469 176.539062 C 182.308594 175.867188 181.929688 174.953125 181.929688 174.003906 L 181.929688 112.78125 C 181.929688 111.828125 182.308594 110.917969 182.980469 110.246094 C 183.652344 109.574219 184.5625 109.195312 185.511719 109.195312 Z M 185.511719 109.195312 " clip-rule="nonzero"/></clipPath><clipPath id="ed10b5767b"><path d="M 0.929688 0.195312 L 8.636719 0.195312 L 8.636719 68.601562 L 0.929688 68.601562 Z M 0.929688 0.195312 " clip-rule="nonzero"/></clipPath><clipPath id="19202867a5"><path d="M 4.511719 0.195312 L 5.054688 0.195312 C 6.003906 0.195312 6.917969 0.574219 7.589844 1.246094 C 8.261719 1.917969 8.636719 2.828125 8.636719 3.78125 L 8.636719 65.003906 C 8.636719 65.953125 8.261719 66.867188 7.589844 67.539062 C 6.917969 68.210938 6.003906 68.585938 5.054688 68.585938 L 4.511719 68.585938 C 3.5625 68.585938 2.652344 68.210938 1.980469 67.539062 C 1.308594 66.867188 0.929688 65.953125 0.929688 65.003906 L 0.929688 3.78125 C 0.929688 2.828125 1.308594 1.917969 1.980469 1.246094 C 2.652344 0.574219 3.5625 0.195312 4.511719 0.195312 Z M 4.511719 0.195312 " clip-rule="nonzero"/></clipPath><clipPath id="4475480bf5"><rect x="0" width="9" y="0" height="69"/></clipPath><clipPath id="65e43fc693"><path d="M 203.597656 73.640625 L 211.304688 73.640625 L 211.304688 177.613281 L 203.597656 177.613281 Z M 203.597656 73.640625 " clip-rule="nonzero"/></clipPath><clipPath id="281bae4c42"><path d="M 207.179688 73.640625 L 207.71875 73.640625 C 208.671875 73.640625 209.582031 74.015625 210.253906 74.6875 C 210.925781 75.359375 211.304688 76.273438 211.304688 77.222656 L 211.304688 174.003906 C 211.304688 174.953125 210.925781 175.867188 210.253906 176.539062 C 209.582031 177.210938 208.671875 177.585938 207.71875 177.585938 L 207.179688 177.585938 C 206.230469 177.585938 205.316406 177.210938 204.644531 176.539062 C 203.972656 175.867188 203.597656 174.953125 203.597656 174.003906 L 203.597656 77.222656 C 203.597656 76.273438 203.972656 75.359375 204.644531 74.6875 C 205.316406 74.015625 206.230469 73.640625 207.179688 73.640625 Z M 207.179688 73.640625 " clip-rule="nonzero"/></clipPath><clipPath id="ac1439897f"><path d="M 0.597656 0.640625 L 8.304688 0.640625 L 8.304688 104.601562 L 0.597656 104.601562 Z M 0.597656 0.640625 " clip-rule="nonzero"/></clipPath><clipPath id="ef94ce7078"><path d="M 4.179688 0.640625 L 4.71875 0.640625 C 5.671875 0.640625 6.582031 1.015625 7.253906 1.6875 C 7.925781 2.359375 8.304688 3.273438 8.304688 4.222656 L 8.304688 101.003906 C 8.304688 101.953125 7.925781 102.867188 7.253906 103.539062 C 6.582031 104.210938 5.671875 104.585938 4.71875 104.585938 L 4.179688 104.585938 C 3.230469 104.585938 2.316406 104.210938 1.644531 103.539062 C 0.972656 102.867188 0.597656 101.953125 0.597656 101.003906 L 0.597656 4.222656 C 0.597656 3.273438 0.972656 2.359375 1.644531 1.6875 C 2.316406 1.015625 3.230469 0.640625 4.179688 0.640625 Z M 4.179688 0.640625 " clip-rule="nonzero"/></clipPath><clipPath id="67c395115d"><rect x="0" width="9" y="0" height="105"/></clipPath><clipPath id="ef615ffda4"><rect x="0" width="375" y="0" height="96"/></clipPath></defs><g clip-path="url(#b3c6f24796)"><g clip-path="url(#c109b7fbeb)"><g transform="matrix(1, 0, 0, 1, 104, 37)"><g clip-path="url(#ea2606854f)"><g clip-path="url(#9c1f3d1de2)"><g clip-path="url(#543a3e9138)"><path fill="url(#df96a40bdd)" d="M 166.164062 180.5 L 166.164062 0.503906 L 0.816406 0.503906 L 0.816406 180.5 Z M 166.164062 180.5 " fill-rule="nonzero"/></g></g></g></g></g></g><g clip-path="url(#311ff6588d)"><g clip-path="url(#36a0edfd19)"><g transform="matrix(1, 0, 0, 1, 160, 135)"><g clip-path="url(#c833323bf4)"><g clip-path="url(#fc30b4c503)"><g clip-path="url(#cbb4d572b7)"><path fill="#ffffff" d="M 0.175781 0.117188 L 8.066406 0.117188 L 8.066406 42.59375 L 0.175781 42.59375 Z M 0.175781 0.117188 " fill-opacity="1" fill-rule="nonzero"/></g></g></g></g></g></g><g clip-path="url(#e491318d27)"><g clip-path="url(#6d71e04bb4)"><g transform="matrix(1, 0, 0, 1, 181, 109)"><g clip-path="url(#4475480bf5)"><g clip-path="url(#ed10b5767b)"><g clip-path="url(#19202867a5)"><path fill="#ffffff" d="M 0.929688 0.195312 L 8.636719 0.195312 L 8.636719 68.578125 L 0.929688 68.578125 Z M 0.929688 0.195312 " fill-opacity="1" fill-rule="nonzero"/></g></g></g></g></g></g><g clip-path="url(#65e43fc693)"><g clip-path="url(#281bae4c42)"><g transform="matrix(1, 0, 0, 1, 203, 73)"><g clip-path="url(#67c395115d)"><g clip-path="url(#ac1439897f)"><g clip-path="url(#ef94ce7078)"><path fill="#ffffff" d="M 0.597656 0.640625 L 8.304688 0.640625 L 8.304688 104.582031 L 0.597656 104.582031 Z M 0.597656 0.640625 " fill-opacity="1" fill-rule="nonzero"/></g></g></g></g></g></g><g transform="matrix(1, 0, 0, 1, 0, 206)"><g clip-path="url(#ef615ffda4)"><g fill="#ffffff" fill-opacity="1"><g transform="translate(-3.762952, 76.079751)"><g><path d="M 10.484375 0 C 9.066406 0 7.914062 -0.441406 7.03125 -1.328125 C 6.144531 -2.210938 5.703125 -3.316406 5.703125 -4.640625 L 5.703125 -48.546875 C 5.703125 -49.867188 6.144531 -50.972656 7.03125 -51.859375 C 7.914062 -52.742188 9.015625 -53.1875 10.328125 -53.1875 L 35.03125 -53.1875 C 36.34375 -53.1875 37.441406 -52.769531 38.328125 -51.9375 C 39.210938 -51.101562 39.65625 -50.023438 39.65625 -48.703125 C 39.65625 -47.585938 39.210938 -46.597656 38.328125 -45.734375 C 37.441406 -44.878906 36.34375 -44.453125 35.03125 -44.453125 L 14.515625 -44.453125 L 15.203125 -45.359375 L 15.203125 -30.09375 L 14.671875 -31.078125 L 31.609375 -31.078125 C 32.921875 -31.078125 34.019531 -30.65625 34.90625 -29.8125 C 35.800781 -28.976562 36.25 -27.90625 36.25 -26.59375 C 36.25 -25.476562 35.800781 -24.488281 34.90625 -23.625 C 34.019531 -22.769531 32.921875 -22.34375 31.609375 -22.34375 L 14.515625 -22.34375 L 15.203125 -23.015625 L 15.203125 -4.640625 C 15.203125 -3.316406 14.734375 -2.210938 13.796875 -1.328125 C 12.859375 -0.441406 11.753906 0 10.484375 0 Z M 10.484375 0 "/></g></g></g><g fill="#ffffff" fill-opacity="1"><g transform="translate(38.936274, 76.079751)"><g><path d="M 14.8125 -4.640625 C 14.8125 -3.316406 14.367188 -2.210938 13.484375 -1.328125 C 12.597656 -0.441406 11.5 0 10.1875 0 C 8.914062 0 7.847656 -0.441406 6.984375 -1.328125 C 6.128906 -2.210938 5.703125 -3.316406 5.703125 -4.640625 L 5.703125 -51.59375 C 5.703125 -52.90625 6.144531 -54.003906 7.03125 -54.890625 C 7.914062 -55.785156 9.015625 -56.234375 10.328125 -56.234375 C 11.648438 -56.234375 12.726562 -55.785156 13.5625 -54.890625 C 14.394531 -54.003906 14.8125 -52.90625 14.8125 -51.59375 Z M 14.8125 -4.640625 "/></g></g></g><g fill="#ffffff" fill-opacity="1"><g transform="translate(59.070221, 76.079751)"><g><path d="M 35.109375 -40.65625 C 36.421875 -40.65625 37.503906 -40.210938 38.359375 -39.328125 C 39.222656 -38.441406 39.65625 -37.335938 39.65625 -36.015625 L 39.65625 -16.71875 C 39.65625 -11.34375 38.160156 -7.082031 35.171875 -3.9375 C 32.191406 -0.800781 27.890625 0.765625 22.265625 0.765625 C 16.640625 0.765625 12.34375 -0.800781 9.375 -3.9375 C 6.414062 -7.082031 4.9375 -11.34375 4.9375 -16.71875 L 4.9375 -36.015625 C 4.9375 -37.335938 5.363281 -38.441406 6.21875 -39.328125 C 7.082031 -40.210938 8.175781 -40.65625 9.5 -40.65625 C 10.8125 -40.65625 11.898438 -40.210938 12.765625 -39.328125 C 13.628906 -38.441406 14.0625 -37.335938 14.0625 -36.015625 L 14.0625 -16.71875 C 14.0625 -13.625 14.742188 -11.328125 16.109375 -9.828125 C 17.472656 -8.335938 19.523438 -7.59375 22.265625 -7.59375 C 25.046875 -7.59375 27.117188 -8.335938 28.484375 -9.828125 C 29.859375 -11.328125 30.546875 -13.625 30.546875 -16.71875 L 30.546875 -36.015625 C 30.546875 -37.335938 30.972656 -38.441406 31.828125 -39.328125 C 32.691406 -40.210938 33.785156 -40.65625 35.109375 -40.65625 Z M 35.109375 -40.65625 "/></g></g></g><g fill="#ffffff" fill-opacity="1"><g transform="translate(103.66888, 76.079751)"><g><path d="M 5.78125 -40.65625 C 7.25 -40.65625 8.488281 -40.019531 9.5 -38.75 L 34.875 -7.21875 C 35.53125 -6.40625 35.859375 -5.492188 35.859375 -4.484375 C 35.859375 -3.210938 35.378906 -2.117188 34.421875 -1.203125 C 33.460938 -0.296875 32.398438 0.15625 31.234375 0.15625 C 29.765625 0.15625 28.519531 -0.503906 27.5 -1.828125 L 2.125 -33.359375 C 1.46875 -34.171875 1.140625 -35.082031 1.140625 -36.09375 C 1.140625 -37.40625 1.609375 -38.492188 2.546875 -39.359375 C 3.484375 -40.222656 4.5625 -40.65625 5.78125 -40.65625 Z M 5.84375 0.078125 C 4.832031 0.078125 3.832031 -0.3125 2.84375 -1.09375 C 1.863281 -1.882812 1.375 -2.835938 1.375 -3.953125 C 1.375 -4.960938 1.75 -5.925781 2.5 -6.84375 L 14.140625 -21.046875 L 18.6875 -13.453125 L 9.5 -1.828125 C 8.53125 -0.554688 7.3125 0.078125 5.84375 0.078125 Z M 31.15625 -40.65625 C 32.375 -40.65625 33.398438 -40.234375 34.234375 -39.390625 C 35.066406 -38.554688 35.484375 -37.609375 35.484375 -36.546875 C 35.484375 -36.035156 35.40625 -35.523438 35.25 -35.015625 C 35.101562 -34.515625 34.828125 -34.035156 34.421875 -33.578125 L 22.953125 -19.609375 L 18.15625 -26.21875 L 27.5 -38.59375 C 28.519531 -39.96875 29.738281 -40.65625 31.15625 -40.65625 Z M 31.15625 -40.65625 "/></g></g></g><g fill="#ffffff" fill-opacity="1"><g transform="translate(140.675307, 76.079751)"><g><path d="M 9.421875 -53.1875 C 9.773438 -53.1875 10.140625 -53.109375 10.515625 -52.953125 C 10.898438 -52.804688 11.21875 -52.554688 11.46875 -52.203125 L 32.453125 -20.75 L 30.390625 -20.8125 L 51.4375 -52.203125 C 52 -52.960938 52.6875 -53.289062 53.5 -53.1875 C 54.101562 -53.1875 54.617188 -52.96875 55.046875 -52.53125 C 55.484375 -52.101562 55.703125 -51.5625 55.703125 -50.90625 L 55.703125 -2.28125 C 55.703125 -1.675781 55.472656 -1.144531 55.015625 -0.6875 C 54.554688 -0.226562 54 0 53.34375 0 C 52.632812 0 52.050781 -0.226562 51.59375 -0.6875 C 51.132812 -1.144531 50.90625 -1.675781 50.90625 -2.28125 L 50.90625 -46.28125 L 52.28125 -46.125 L 33.046875 -17.015625 C 32.898438 -16.710938 32.671875 -16.472656 32.359375 -16.296875 C 32.054688 -16.117188 31.707031 -16.054688 31.3125 -16.109375 C 30.957031 -16.054688 30.613281 -16.117188 30.28125 -16.296875 C 29.945312 -16.472656 29.679688 -16.710938 29.484375 -17.015625 L 10.1875 -46.421875 L 11.625 -47.421875 L 11.625 -2.28125 C 11.625 -1.675781 11.40625 -1.144531 10.96875 -0.6875 C 10.539062 -0.226562 10 0 9.34375 0 C 8.6875 0 8.15625 -0.226562 7.75 -0.6875 C 7.34375 -1.144531 7.140625 -1.675781 7.140625 -2.28125 L 7.140625 -50.90625 C 7.140625 -51.519531 7.351562 -52.050781 7.78125 -52.5 C 8.21875 -52.957031 8.765625 -53.1875 9.421875 -53.1875 Z M 9.421875 -53.1875 "/></g></g></g><g fill="#ffffff" fill-opacity="1"><g transform="translate(203.508509, 76.079751)"><g><path d="M 42.171875 -19.453125 C 42.171875 -15.597656 41.332031 -12.140625 39.65625 -9.078125 C 37.988281 -6.015625 35.710938 -3.609375 32.828125 -1.859375 C 29.941406 -0.109375 26.648438 0.765625 22.953125 0.765625 C 19.347656 0.765625 16.085938 -0.109375 13.171875 -1.859375 C 10.265625 -3.609375 7.960938 -6.015625 6.265625 -9.078125 C 4.566406 -12.140625 3.71875 -15.597656 3.71875 -19.453125 C 3.71875 -23.347656 4.566406 -26.816406 6.265625 -29.859375 C 7.960938 -32.898438 10.265625 -35.304688 13.171875 -37.078125 C 16.085938 -38.847656 19.347656 -39.734375 22.953125 -39.734375 C 26.648438 -39.734375 29.941406 -38.847656 32.828125 -37.078125 C 35.710938 -35.304688 37.988281 -32.898438 39.65625 -29.859375 C 41.332031 -26.816406 42.171875 -23.347656 42.171875 -19.453125 Z M 37.609375 -19.453125 C 37.609375 -22.546875 36.972656 -25.296875 35.703125 -27.703125 C 34.441406 -30.109375 32.707031 -32.003906 30.5 -33.390625 C 28.300781 -34.785156 25.785156 -35.484375 22.953125 -35.484375 C 20.210938 -35.484375 17.726562 -34.785156 15.5 -33.390625 C 13.269531 -32.003906 11.507812 -30.109375 10.21875 -27.703125 C 8.925781 -25.296875 8.28125 -22.546875 8.28125 -19.453125 C 8.28125 -16.359375 8.925781 -13.617188 10.21875 -11.234375 C 11.507812 -8.859375 13.269531 -6.972656 15.5 -5.578125 C 17.726562 -4.191406 20.210938 -3.5 22.953125 -3.5 C 25.785156 -3.5 28.300781 -4.191406 30.5 -5.578125 C 32.707031 -6.972656 34.441406 -8.859375 35.703125 -11.234375 C 36.972656 -13.617188 37.609375 -16.359375 37.609375 -19.453125 Z M 37.609375 -19.453125 "/></g></g></g><g fill="#ffffff" fill-opacity="1"><g transform="translate(249.398777, 76.079751)"><g><path d="M 24.3125 -39.734375 C 27.65625 -39.734375 30.328125 -39.0625 32.328125 -37.71875 C 34.328125 -36.382812 35.769531 -34.5625 36.65625 -32.25 C 37.550781 -29.945312 38 -27.40625 38 -24.625 L 38 -2.28125 C 38 -1.675781 37.769531 -1.144531 37.3125 -0.6875 C 36.851562 -0.226562 36.320312 0 35.71875 0 C 35.007812 0 34.453125 -0.226562 34.046875 -0.6875 C 33.640625 -1.144531 33.4375 -1.675781 33.4375 -2.28125 L 33.4375 -24.390625 C 33.4375 -26.421875 33.101562 -28.269531 32.4375 -29.9375 C 31.78125 -31.613281 30.703125 -32.957031 29.203125 -33.96875 C 27.710938 -34.976562 25.753906 -35.484375 23.328125 -35.484375 C 21.148438 -35.484375 19.082031 -34.976562 17.125 -33.96875 C 15.175781 -32.957031 13.59375 -31.613281 12.375 -29.9375 C 11.164062 -28.269531 10.5625 -26.421875 10.5625 -24.390625 L 10.5625 -2.28125 C 10.5625 -1.675781 10.332031 -1.144531 9.875 -0.6875 C 9.414062 -0.226562 8.882812 0 8.28125 0 C 7.570312 0 7.015625 -0.226562 6.609375 -0.6875 C 6.203125 -1.144531 6 -1.675781 6 -2.28125 L 6 -36.328125 C 6 -36.929688 6.210938 -37.457031 6.640625 -37.90625 C 7.078125 -38.363281 7.625 -38.59375 8.28125 -38.59375 C 8.9375 -38.59375 9.476562 -38.363281 9.90625 -37.90625 C 10.34375 -37.457031 10.5625 -36.929688 10.5625 -36.328125 L 10.5625 -29.9375 L 8.8125 -27.203125 C 8.914062 -28.828125 9.4375 -30.382812 10.375 -31.875 C 11.3125 -33.363281 12.515625 -34.703125 13.984375 -35.890625 C 15.453125 -37.085938 17.082031 -38.023438 18.875 -38.703125 C 20.675781 -39.390625 22.488281 -39.734375 24.3125 -39.734375 Z M 24.3125 -39.734375 "/></g></g></g><g fill="#ffffff" fill-opacity="1"><g transform="translate(293.313641, 76.079751)"><g><path d="M 23.5625 0.765625 C 19.65625 0.765625 16.207031 -0.0664062 13.21875 -1.734375 C 10.226562 -3.410156 7.894531 -5.742188 6.21875 -8.734375 C 4.550781 -11.722656 3.71875 -15.21875 3.71875 -19.21875 C 3.71875 -23.53125 4.566406 -27.203125 6.265625 -30.234375 C 7.960938 -33.273438 10.164062 -35.617188 12.875 -37.265625 C 15.582031 -38.910156 18.457031 -39.734375 21.5 -39.734375 C 23.726562 -39.734375 25.894531 -39.34375 28 -38.5625 C 30.101562 -37.78125 31.976562 -36.613281 33.625 -35.0625 C 35.269531 -33.519531 36.585938 -31.632812 37.578125 -29.40625 C 38.566406 -27.175781 39.109375 -24.59375 39.203125 -21.65625 C 39.148438 -21.050781 38.894531 -20.53125 38.4375 -20.09375 C 37.988281 -19.664062 37.460938 -19.453125 36.859375 -19.453125 L 6.375 -19.453125 L 5.46875 -23.5625 L 35.40625 -23.5625 L 34.421875 -22.640625 L 34.421875 -24.15625 C 34.210938 -26.539062 33.453125 -28.566406 32.140625 -30.234375 C 30.828125 -31.910156 29.234375 -33.175781 27.359375 -34.03125 C 25.484375 -34.894531 23.53125 -35.328125 21.5 -35.328125 C 19.976562 -35.328125 18.421875 -35.023438 16.828125 -34.421875 C 15.234375 -33.816406 13.789062 -32.867188 12.5 -31.578125 C 11.207031 -30.285156 10.15625 -28.632812 9.34375 -26.625 C 8.53125 -24.625 8.125 -22.257812 8.125 -19.53125 C 8.125 -16.539062 8.734375 -13.828125 9.953125 -11.390625 C 11.171875 -8.960938 12.929688 -7.039062 15.234375 -5.625 C 17.535156 -4.207031 20.285156 -3.5 23.484375 -3.5 C 25.253906 -3.5 26.847656 -3.75 28.265625 -4.25 C 29.679688 -4.757812 30.921875 -5.429688 31.984375 -6.265625 C 33.046875 -7.097656 33.9375 -7.972656 34.65625 -8.890625 C 35.207031 -9.347656 35.765625 -9.578125 36.328125 -9.578125 C 36.828125 -9.578125 37.265625 -9.375 37.640625 -8.96875 C 38.023438 -8.5625 38.21875 -8.101562 38.21875 -7.59375 C 38.21875 -6.988281 37.960938 -6.457031 37.453125 -6 C 35.941406 -4.175781 33.96875 -2.59375 31.53125 -1.25 C 29.101562 0.09375 26.445312 0.765625 23.5625 0.765625 Z M 23.5625 0.765625 "/></g></g></g><g fill="#ffffff" fill-opacity="1"><g transform="translate(335.860882, 76.079751)"><g><path d="M 34.953125 -39.515625 C 35.609375 -39.515625 36.148438 -39.285156 36.578125 -38.828125 C 37.015625 -38.367188 37.234375 -37.835938 37.234375 -37.234375 L 37.234375 -3.71875 C 37.234375 0.382812 36.421875 3.835938 34.796875 6.640625 C 33.179688 9.453125 31.003906 11.582031 28.265625 13.03125 C 25.523438 14.476562 22.410156 15.203125 18.921875 15.203125 C 16.742188 15.203125 14.726562 14.957031 12.875 14.46875 C 11.03125 13.988281 9.523438 13.367188 8.359375 12.609375 C 7.753906 12.253906 7.296875 11.820312 6.984375 11.3125 C 6.679688 10.8125 6.660156 10.28125 6.921875 9.71875 C 7.171875 9.007812 7.5625 8.539062 8.09375 8.3125 C 8.625 8.09375 9.164062 8.109375 9.71875 8.359375 C 10.582031 8.816406 11.820312 9.375 13.4375 10.03125 C 15.0625 10.6875 16.914062 11.015625 19 11.015625 C 21.78125 11.015625 24.195312 10.429688 26.25 9.265625 C 28.300781 8.097656 29.882812 6.410156 31 4.203125 C 32.113281 2.003906 32.671875 -0.609375 32.671875 -3.640625 L 32.671875 -9.125 L 33.203125 -7.296875 C 32.441406 -5.722656 31.363281 -4.328125 29.96875 -3.109375 C 28.582031 -1.898438 26.988281 -0.953125 25.1875 -0.265625 C 23.382812 0.421875 21.472656 0.765625 19.453125 0.765625 C 16.410156 0.765625 13.890625 0.144531 11.890625 -1.09375 C 9.890625 -2.34375 8.40625 -4.054688 7.4375 -6.234375 C 6.476562 -8.410156 6 -10.96875 6 -13.90625 L 6 -37.234375 C 6 -37.835938 6.203125 -38.367188 6.609375 -38.828125 C 7.015625 -39.285156 7.570312 -39.515625 8.28125 -39.515625 C 8.9375 -39.515625 9.476562 -39.285156 9.90625 -38.828125 C 10.34375 -38.367188 10.5625 -37.835938 10.5625 -37.234375 L 10.5625 -14.59375 C 10.5625 -11.039062 11.332031 -8.300781 12.875 -6.375 C 14.425781 -4.457031 16.945312 -3.5 20.4375 -3.5 C 22.613281 -3.5 24.613281 -4.015625 26.4375 -5.046875 C 28.257812 -6.085938 29.753906 -7.457031 30.921875 -9.15625 C 32.085938 -10.851562 32.671875 -12.664062 32.671875 -14.59375 L 32.671875 -37.234375 C 32.671875 -37.835938 32.882812 -38.367188 33.3125 -38.828125 C 33.75 -39.285156 34.296875 -39.515625 34.953125 -39.515625 Z M 34.953125 -39.515625 "/></g></g></g></g></g><g fill="#ffffff" fill-opacity="1"><g transform="translate(-1.738953, 305.834922)"><g><path d="M 5.046875 0.1875 C 3.816406 0.1875 2.8125 -0.171875 2.03125 -0.890625 C 1.257812 -1.617188 0.875 -2.648438 0.875 -3.984375 L 0.875 -4.734375 L 2.640625 -4.734375 L 2.640625 -3.984375 C 2.640625 -3.128906 2.859375 -2.476562 3.296875 -2.03125 C 3.742188 -1.582031 4.328125 -1.359375 5.046875 -1.359375 C 5.765625 -1.359375 6.34375 -1.582031 6.78125 -2.03125 C 7.21875 -2.476562 7.4375 -3.128906 7.4375 -3.984375 L 7.4375 -13.953125 L 9.1875 -13.953125 L 9.1875 -3.984375 C 9.1875 -2.648438 8.800781 -1.617188 8.03125 -0.890625 C 7.269531 -0.171875 6.273438 0.1875 5.046875 0.1875 Z M 5.046875 0.1875 "/></g></g></g><g fill="#ffffff" fill-opacity="1"><g transform="translate(10.308997, 305.834922)"><g><path d="M 5.75 0.21875 C 4.75 0.21875 3.882812 -0.00390625 3.15625 -0.453125 C 2.4375 -0.898438 1.878906 -1.519531 1.484375 -2.3125 C 1.097656 -3.113281 0.90625 -4.046875 0.90625 -5.109375 C 0.90625 -6.160156 1.097656 -7.09375 1.484375 -7.90625 C 1.867188 -8.71875 2.410156 -9.351562 3.109375 -9.8125 C 3.816406 -10.269531 4.632812 -10.5 5.5625 -10.5 C 6.15625 -10.5 6.722656 -10.398438 7.265625 -10.203125 C 7.804688 -10.003906 8.289062 -9.691406 8.71875 -9.265625 C 9.15625 -8.847656 9.5 -8.304688 9.75 -7.640625 C 10 -6.984375 10.125 -6.195312 10.125 -5.28125 L 10.125 -4.625 L 1.984375 -4.625 L 1.984375 -6.03125 L 9.203125 -6.03125 L 8.453125 -5.53125 C 8.453125 -6.207031 8.335938 -6.804688 8.109375 -7.328125 C 7.890625 -7.859375 7.566406 -8.269531 7.140625 -8.5625 C 6.710938 -8.863281 6.1875 -9.015625 5.5625 -9.015625 C 4.945312 -9.015625 4.414062 -8.863281 3.96875 -8.5625 C 3.519531 -8.257812 3.175781 -7.859375 2.9375 -7.359375 C 2.695312 -6.867188 2.578125 -6.328125 2.578125 -5.734375 L 2.578125 -4.859375 C 2.578125 -4.097656 2.707031 -3.445312 2.96875 -2.90625 C 3.226562 -2.375 3.597656 -1.96875 4.078125 -1.6875 C 4.554688 -1.40625 5.113281 -1.265625 5.75 -1.265625 C 6.175781 -1.265625 6.554688 -1.328125 6.890625 -1.453125 C 7.234375 -1.578125 7.523438 -1.757812 7.765625 -2 C 8.015625 -2.25 8.203125 -2.550781 8.328125 -2.90625 L 9.953125 -2.546875 C 9.796875 -2.003906 9.519531 -1.523438 9.125 -1.109375 C 8.738281 -0.691406 8.257812 -0.363281 7.6875 -0.125 C 7.113281 0.101562 6.46875 0.21875 5.75 0.21875 Z M 5.75 0.21875 "/></g></g></g><g fill="#ffffff" fill-opacity="1"><g transform="translate(22.544286, 305.834922)"><g><path d="M 1.421875 0 L 1.421875 -10.34375 L 3.078125 -10.34375 L 3.078125 0 Z M 2.25 -12.109375 C 1.9375 -12.109375 1.664062 -12.21875 1.4375 -12.4375 C 1.21875 -12.65625 1.109375 -12.914062 1.109375 -13.21875 C 1.109375 -13.519531 1.21875 -13.78125 1.4375 -14 C 1.664062 -14.21875 1.9375 -14.328125 2.25 -14.328125 C 2.570312 -14.328125 2.847656 -14.21875 3.078125 -14 C 3.304688 -13.78125 3.421875 -13.519531 3.421875 -13.21875 C 3.421875 -12.914062 3.304688 -12.65625 3.078125 -12.4375 C 2.847656 -12.21875 2.570312 -12.109375 2.25 -12.109375 Z M 2.25 -12.109375 "/></g></g></g><g fill="#ffffff" fill-opacity="1"><g transform="translate(28.325738, 305.834922)"><g><path d="M 5.578125 -10.34375 L 5.578125 -8.921875 L 0.171875 -8.921875 L 0.171875 -10.34375 Z M 1.796875 -12.875 L 3.453125 -12.875 L 3.453125 -2.640625 C 3.453125 -2.203125 3.546875 -1.878906 3.734375 -1.671875 C 3.921875 -1.472656 4.234375 -1.375 4.671875 -1.375 C 4.773438 -1.375 4.910156 -1.378906 5.078125 -1.390625 C 5.242188 -1.410156 5.394531 -1.429688 5.53125 -1.453125 L 5.8125 -0.046875 C 5.632812 0.00390625 5.4375 0.0390625 5.21875 0.0625 C 5.007812 0.09375 4.800781 0.109375 4.59375 0.109375 C 3.695312 0.109375 3.003906 -0.117188 2.515625 -0.578125 C 2.035156 -1.035156 1.796875 -1.679688 1.796875 -2.515625 Z M 1.796875 -12.875 "/></g></g></g><g fill="#ffffff" fill-opacity="1"><g transform="translate(35.596432, 305.834922)"><g><path d="M 5.640625 0.21875 C 4.691406 0.21875 3.863281 0 3.15625 -0.4375 C 2.445312 -0.882812 1.894531 -1.507812 1.5 -2.3125 C 1.101562 -3.125 0.90625 -4.054688 0.90625 -5.109375 C 0.90625 -6.191406 1.101562 -7.132812 1.5 -7.9375 C 1.894531 -8.75 2.445312 -9.378906 3.15625 -9.828125 C 3.863281 -10.273438 4.691406 -10.5 5.640625 -10.5 C 6.585938 -10.5 7.414062 -10.273438 8.125 -9.828125 C 8.832031 -9.378906 9.382812 -8.75 9.78125 -7.9375 C 10.175781 -7.132812 10.375 -6.191406 10.375 -5.109375 C 10.375 -4.054688 10.175781 -3.125 9.78125 -2.3125 C 9.382812 -1.507812 8.832031 -0.882812 8.125 -0.4375 C 7.414062 0 6.585938 0.21875 5.640625 0.21875 Z M 5.640625 -1.265625 C 6.328125 -1.265625 6.894531 -1.4375 7.34375 -1.78125 C 7.800781 -2.132812 8.140625 -2.601562 8.359375 -3.1875 C 8.578125 -3.769531 8.6875 -4.410156 8.6875 -5.109375 C 8.6875 -5.816406 8.578125 -6.460938 8.359375 -7.046875 C 8.140625 -7.640625 7.800781 -8.113281 7.34375 -8.46875 C 6.894531 -8.820312 6.328125 -9 5.640625 -9 C 4.960938 -9 4.394531 -8.820312 3.9375 -8.46875 C 3.488281 -8.113281 3.148438 -7.644531 2.921875 -7.0625 C 2.703125 -6.476562 2.59375 -5.828125 2.59375 -5.109375 C 2.59375 -4.410156 2.703125 -3.769531 2.921875 -3.1875 C 3.148438 -2.601562 3.488281 -2.132812 3.9375 -1.78125 C 4.382812 -1.4375 4.953125 -1.265625 5.640625 -1.265625 Z M 5.640625 -1.265625 "/></g></g></g><g fill="#ffffff" fill-opacity="1"><g transform="translate(48.131466, 305.834922)"><g/></g></g><g fill="#ffffff" fill-opacity="1"><g transform="translate(54.64352, 305.834922)"><g><path d="M 4.953125 0.21875 C 4.234375 0.21875 3.59375 0.113281 3.03125 -0.09375 C 2.46875 -0.3125 2.003906 -0.632812 1.640625 -1.0625 C 1.285156 -1.488281 1.054688 -2.007812 0.953125 -2.625 L 2.53125 -2.9375 C 2.664062 -2.351562 2.9375 -1.921875 3.34375 -1.640625 C 3.757812 -1.367188 4.285156 -1.234375 4.921875 -1.234375 C 5.640625 -1.234375 6.210938 -1.382812 6.640625 -1.6875 C 7.066406 -2 7.28125 -2.367188 7.28125 -2.796875 C 7.28125 -3.160156 7.148438 -3.460938 6.890625 -3.703125 C 6.640625 -3.941406 6.265625 -4.113281 5.765625 -4.21875 L 4.046875 -4.640625 C 3.097656 -4.859375 2.394531 -5.203125 1.9375 -5.671875 C 1.476562 -6.140625 1.25 -6.738281 1.25 -7.46875 C 1.25 -8.0625 1.410156 -8.582031 1.734375 -9.03125 C 2.066406 -9.488281 2.519531 -9.847656 3.09375 -10.109375 C 3.664062 -10.367188 4.320312 -10.5 5.0625 -10.5 C 5.769531 -10.5 6.378906 -10.382812 6.890625 -10.15625 C 7.398438 -9.925781 7.8125 -9.613281 8.125 -9.21875 C 8.445312 -8.820312 8.671875 -8.359375 8.796875 -7.828125 L 7.265625 -7.515625 C 7.160156 -7.921875 6.929688 -8.28125 6.578125 -8.59375 C 6.234375 -8.914062 5.726562 -9.078125 5.0625 -9.078125 C 4.4375 -9.078125 3.921875 -8.929688 3.515625 -8.640625 C 3.117188 -8.359375 2.921875 -8 2.921875 -7.5625 C 2.921875 -7.175781 3.0625 -6.863281 3.34375 -6.625 C 3.625 -6.394531 4.054688 -6.210938 4.640625 -6.078125 L 6.21875 -5.703125 C 7.164062 -5.484375 7.863281 -5.140625 8.3125 -4.671875 C 8.769531 -4.203125 9 -3.609375 9 -2.890625 C 9 -2.285156 8.828125 -1.75 8.484375 -1.28125 C 8.140625 -0.8125 7.660156 -0.441406 7.046875 -0.171875 C 6.441406 0.0859375 5.742188 0.21875 4.953125 0.21875 Z M 4.953125 0.21875 "/></g></g></g><g fill="#ffffff" fill-opacity="1"><g transform="translate(65.792239, 305.834922)"><g><path d="M 1.421875 0 L 1.421875 -10.34375 L 3.078125 -10.34375 L 3.078125 0 Z M 2.25 -12.109375 C 1.9375 -12.109375 1.664062 -12.21875 1.4375 -12.4375 C 1.21875 -12.65625 1.109375 -12.914062 1.109375 -13.21875 C 1.109375 -13.519531 1.21875 -13.78125 1.4375 -14 C 1.664062 -14.21875 1.9375 -14.328125 2.25 -14.328125 C 2.570312 -14.328125 2.847656 -14.21875 3.078125 -14 C 3.304688 -13.78125 3.421875 -13.519531 3.421875 -13.21875 C 3.421875 -12.914062 3.304688 -12.65625 3.078125 -12.4375 C 2.847656 -12.21875 2.570312 -12.109375 2.25 -12.109375 Z M 2.25 -12.109375 "/></g></g></g><g fill="#ffffff" fill-opacity="1"><g transform="translate(71.5362, 305.834922)"><g><path d="M 1.421875 0 L 1.421875 -10.34375 L 3.03125 -10.34375 L 3.046875 -8.078125 L 2.890625 -8.078125 C 3.046875 -8.628906 3.28125 -9.082031 3.59375 -9.4375 C 3.90625 -9.800781 4.265625 -10.070312 4.671875 -10.25 C 5.085938 -10.4375 5.523438 -10.53125 5.984375 -10.53125 C 6.742188 -10.53125 7.363281 -10.296875 7.84375 -9.828125 C 8.332031 -9.367188 8.644531 -8.78125 8.78125 -8.0625 L 8.53125 -8.0625 C 8.664062 -8.5625 8.894531 -8.992188 9.21875 -9.359375 C 9.539062 -9.734375 9.9375 -10.019531 10.40625 -10.21875 C 10.875 -10.425781 11.382812 -10.53125 11.9375 -10.53125 C 12.539062 -10.53125 13.09375 -10.398438 13.59375 -10.140625 C 14.09375 -9.878906 14.488281 -9.484375 14.78125 -8.953125 C 15.082031 -8.421875 15.234375 -7.75 15.234375 -6.9375 L 15.234375 0 L 13.5625 0 L 13.5625 -6.890625 C 13.5625 -7.648438 13.347656 -8.191406 12.921875 -8.515625 C 12.503906 -8.847656 12.015625 -9.015625 11.453125 -9.015625 C 10.972656 -9.015625 10.5625 -8.914062 10.21875 -8.71875 C 9.882812 -8.519531 9.625 -8.242188 9.4375 -7.890625 C 9.25 -7.546875 9.15625 -7.15625 9.15625 -6.71875 L 9.15625 0 L 7.5 0 L 7.5 -7.0625 C 7.5 -7.644531 7.300781 -8.113281 6.90625 -8.46875 C 6.519531 -8.832031 6.03125 -9.015625 5.4375 -9.015625 C 5.019531 -9.015625 4.628906 -8.914062 4.265625 -8.71875 C 3.910156 -8.53125 3.625 -8.25 3.40625 -7.875 C 3.1875 -7.5 3.078125 -7.03125 3.078125 -6.46875 L 3.078125 0 Z M 1.421875 0 "/></g></g></g><g fill="#ffffff" fill-opacity="1"><g transform="translate(89.42915, 305.834922)"><g><path d="M 1.421875 3.921875 L 1.421875 -10.34375 L 3.03125 -10.34375 L 3.03125 -8.71875 L 3.171875 -8.71875 C 3.304688 -8.945312 3.492188 -9.195312 3.734375 -9.46875 C 3.972656 -9.75 4.289062 -9.988281 4.6875 -10.1875 C 5.09375 -10.394531 5.609375 -10.5 6.234375 -10.5 C 7.109375 -10.5 7.875 -10.28125 8.53125 -9.84375 C 9.1875 -9.40625 9.703125 -8.785156 10.078125 -7.984375 C 10.453125 -7.179688 10.640625 -6.238281 10.640625 -5.15625 C 10.640625 -4.0625 10.453125 -3.113281 10.078125 -2.3125 C 9.710938 -1.507812 9.195312 -0.882812 8.53125 -0.4375 C 7.875 0 7.109375 0.21875 6.234375 0.21875 C 5.628906 0.21875 5.125 0.117188 4.71875 -0.078125 C 4.320312 -0.285156 4.003906 -0.53125 3.765625 -0.8125 C 3.523438 -1.09375 3.332031 -1.351562 3.1875 -1.59375 L 3.078125 -1.59375 L 3.078125 3.921875 Z M 5.984375 -1.28125 C 6.617188 -1.28125 7.15625 -1.445312 7.59375 -1.78125 C 8.039062 -2.113281 8.378906 -2.570312 8.609375 -3.15625 C 8.835938 -3.75 8.953125 -4.414062 8.953125 -5.15625 C 8.953125 -5.90625 8.835938 -6.566406 8.609375 -7.140625 C 8.378906 -7.722656 8.046875 -8.175781 7.609375 -8.5 C 7.171875 -8.832031 6.628906 -9 5.984375 -9 C 5.347656 -9 4.8125 -8.835938 4.375 -8.515625 C 3.9375 -8.191406 3.601562 -7.742188 3.375 -7.171875 C 3.144531 -6.597656 3.03125 -5.925781 3.03125 -5.15625 C 3.03125 -4.394531 3.144531 -3.722656 3.375 -3.140625 C 3.601562 -2.554688 3.9375 -2.097656 4.375 -1.765625 C 4.820312 -1.441406 5.359375 -1.28125 5.984375 -1.28125 Z M 5.984375 -1.28125 "/></g></g></g><g fill="#ffffff" fill-opacity="1"><g transform="translate(102.226459, 305.834922)"><g><path d="M 3.078125 -13.953125 L 3.078125 0 L 1.421875 0 L 1.421875 -13.953125 Z M 3.078125 -13.953125 "/></g></g></g><g fill="#ffffff" fill-opacity="1"><g transform="translate(107.97042, 305.834922)"><g><path d="M 5.75 0.21875 C 4.75 0.21875 3.882812 -0.00390625 3.15625 -0.453125 C 2.4375 -0.898438 1.878906 -1.519531 1.484375 -2.3125 C 1.097656 -3.113281 0.90625 -4.046875 0.90625 -5.109375 C 0.90625 -6.160156 1.097656 -7.09375 1.484375 -7.90625 C 1.867188 -8.71875 2.410156 -9.351562 3.109375 -9.8125 C 3.816406 -10.269531 4.632812 -10.5 5.5625 -10.5 C 6.15625 -10.5 6.722656 -10.398438 7.265625 -10.203125 C 7.804688 -10.003906 8.289062 -9.691406 8.71875 -9.265625 C 9.15625 -8.847656 9.5 -8.304688 9.75 -7.640625 C 10 -6.984375 10.125 -6.195312 10.125 -5.28125 L 10.125 -4.625 L 1.984375 -4.625 L 1.984375 -6.03125 L 9.203125 -6.03125 L 8.453125 -5.53125 C 8.453125 -6.207031 8.335938 -6.804688 8.109375 -7.328125 C 7.890625 -7.859375 7.566406 -8.269531 7.140625 -8.5625 C 6.710938 -8.863281 6.1875 -9.015625 5.5625 -9.015625 C 4.945312 -9.015625 4.414062 -8.863281 3.96875 -8.5625 C 3.519531 -8.257812 3.175781 -7.859375 2.9375 -7.359375 C 2.695312 -6.867188 2.578125 -6.328125 2.578125 -5.734375 L 2.578125 -4.859375 C 2.578125 -4.097656 2.707031 -3.445312 2.96875 -2.90625 C 3.226562 -2.375 3.597656 -1.96875 4.078125 -1.6875 C 4.554688 -1.40625 5.113281 -1.265625 5.75 -1.265625 C 6.175781 -1.265625 6.554688 -1.328125 6.890625 -1.453125 C 7.234375 -1.578125 7.523438 -1.757812 7.765625 -2 C 8.015625 -2.25 8.203125 -2.550781 8.328125 -2.90625 L 9.953125 -2.546875 C 9.796875 -2.003906 9.519531 -1.523438 9.125 -1.109375 C 8.738281 -0.691406 8.257812 -0.363281 7.6875 -0.125 C 7.113281 0.101562 6.46875 0.21875 5.75 0.21875 Z M 5.75 0.21875 "/></g></g></g><g fill="#ffffff" fill-opacity="1"><g transform="translate(120.20571, 305.834922)"><g><path d="M 4.953125 0.21875 C 4.234375 0.21875 3.59375 0.113281 3.03125 -0.09375 C 2.46875 -0.3125 2.003906 -0.632812 1.640625 -1.0625 C 1.285156 -1.488281 1.054688 -2.007812 0.953125 -2.625 L 2.53125 -2.9375 C 2.664062 -2.351562 2.9375 -1.921875 3.34375 -1.640625 C 3.757812 -1.367188 4.285156 -1.234375 4.921875 -1.234375 C 5.640625 -1.234375 6.210938 -1.382812 6.640625 -1.6875 C 7.066406 -2 7.28125 -2.367188 7.28125 -2.796875 C 7.28125 -3.160156 7.148438 -3.460938 6.890625 -3.703125 C 6.640625 -3.941406 6.265625 -4.113281 5.765625 -4.21875 L 4.046875 -4.640625 C 3.097656 -4.859375 2.394531 -5.203125 1.9375 -5.671875 C 1.476562 -6.140625 1.25 -6.738281 1.25 -7.46875 C 1.25 -8.0625 1.410156 -8.582031 1.734375 -9.03125 C 2.066406 -9.488281 2.519531 -9.847656 3.09375 -10.109375 C 3.664062 -10.367188 4.320312 -10.5 5.0625 -10.5 C 5.769531 -10.5 6.378906 -10.382812 6.890625 -10.15625 C 7.398438 -9.925781 7.8125 -9.613281 8.125 -9.21875 C 8.445312 -8.820312 8.671875 -8.359375 8.796875 -7.828125 L 7.265625 -7.515625 C 7.160156 -7.921875 6.929688 -8.28125 6.578125 -8.59375 C 6.234375 -8.914062 5.726562 -9.078125 5.0625 -9.078125 C 4.4375 -9.078125 3.921875 -8.929688 3.515625 -8.640625 C 3.117188 -8.359375 2.921875 -8 2.921875 -7.5625 C 2.921875 -7.175781 3.0625 -6.863281 3.34375 -6.625 C 3.625 -6.394531 4.054688 -6.210938 4.640625 -6.078125 L 6.21875 -5.703125 C 7.164062 -5.484375 7.863281 -5.140625 8.3125 -4.671875 C 8.769531 -4.203125 9 -3.609375 9 -2.890625 C 9 -2.285156 8.828125 -1.75 8.484375 -1.28125 C 8.140625 -0.8125 7.660156 -0.441406 7.046875 -0.171875 C 6.441406 0.0859375 5.742188 0.21875 4.953125 0.21875 Z M 4.953125 0.21875 "/></g></g></g><g fill="#ffffff" fill-opacity="1"><g transform="translate(131.354429, 305.834922)"><g/></g></g><g fill="#ffffff" fill-opacity="1"><g transform="translate(137.866483, 305.834922)"><g><path d="M 5.3125 0.21875 C 4.445312 0.21875 3.679688 0 3.015625 -0.4375 C 2.359375 -0.882812 1.84375 -1.507812 1.46875 -2.3125 C 1.09375 -3.113281 0.90625 -4.0625 0.90625 -5.15625 C 0.90625 -6.238281 1.09375 -7.179688 1.46875 -7.984375 C 1.84375 -8.785156 2.359375 -9.40625 3.015625 -9.84375 C 3.679688 -10.28125 4.445312 -10.5 5.3125 -10.5 C 5.9375 -10.5 6.445312 -10.394531 6.84375 -10.1875 C 7.25 -9.988281 7.566406 -9.75 7.796875 -9.46875 C 8.035156 -9.195312 8.222656 -8.945312 8.359375 -8.71875 L 8.46875 -8.71875 L 8.46875 -13.953125 L 10.140625 -13.953125 L 10.140625 0 L 8.53125 0 L 8.53125 -1.59375 L 8.375 -1.59375 C 8.226562 -1.351562 8.03125 -1.09375 7.78125 -0.8125 C 7.539062 -0.53125 7.222656 -0.285156 6.828125 -0.078125 C 6.429688 0.117188 5.925781 0.21875 5.3125 0.21875 Z M 5.5625 -1.28125 C 6.1875 -1.28125 6.71875 -1.441406 7.15625 -1.765625 C 7.601562 -2.097656 7.941406 -2.554688 8.171875 -3.140625 C 8.398438 -3.722656 8.515625 -4.394531 8.515625 -5.15625 C 8.515625 -5.925781 8.398438 -6.597656 8.171875 -7.171875 C 7.941406 -7.742188 7.609375 -8.191406 7.171875 -8.515625 C 6.734375 -8.835938 6.195312 -9 5.5625 -9 C 4.914062 -9 4.375 -8.832031 3.9375 -8.5 C 3.5 -8.175781 3.164062 -7.722656 2.9375 -7.140625 C 2.707031 -6.566406 2.59375 -5.90625 2.59375 -5.15625 C 2.59375 -4.414062 2.707031 -3.75 2.9375 -3.15625 C 3.164062 -2.570312 3.5 -2.113281 3.9375 -1.78125 C 4.382812 -1.445312 4.925781 -1.28125 5.5625 -1.28125 Z M 5.5625 -1.28125 "/></g></g></g><g fill="#ffffff" fill-opacity="1"><g transform="translate(150.663792, 305.834922)"><g><path d="M 5.75 0.21875 C 4.75 0.21875 3.882812 -0.00390625 3.15625 -0.453125 C 2.4375 -0.898438 1.878906 -1.519531 1.484375 -2.3125 C 1.097656 -3.113281 0.90625 -4.046875 0.90625 -5.109375 C 0.90625 -6.160156 1.097656 -7.09375 1.484375 -7.90625 C 1.867188 -8.71875 2.410156 -9.351562 3.109375 -9.8125 C 3.816406 -10.269531 4.632812 -10.5 5.5625 -10.5 C 6.15625 -10.5 6.722656 -10.398438 7.265625 -10.203125 C 7.804688 -10.003906 8.289062 -9.691406 8.71875 -9.265625 C 9.15625 -8.847656 9.5 -8.304688 9.75 -7.640625 C 10 -6.984375 10.125 -6.195312 10.125 -5.28125 L 10.125 -4.625 L 1.984375 -4.625 L 1.984375 -6.03125 L 9.203125 -6.03125 L 8.453125 -5.53125 C 8.453125 -6.207031 8.335938 -6.804688 8.109375 -7.328125 C 7.890625 -7.859375 7.566406 -8.269531 7.140625 -8.5625 C 6.710938 -8.863281 6.1875 -9.015625 5.5625 -9.015625 C 4.945312 -9.015625 4.414062 -8.863281 3.96875 -8.5625 C 3.519531 -8.257812 3.175781 -7.859375 2.9375 -7.359375 C 2.695312 -6.867188 2.578125 -6.328125 2.578125 -5.734375 L 2.578125 -4.859375 C 2.578125 -4.097656 2.707031 -3.445312 2.96875 -2.90625 C 3.226562 -2.375 3.597656 -1.96875 4.078125 -1.6875 C 4.554688 -1.40625 5.113281 -1.265625 5.75 -1.265625 C 6.175781 -1.265625 6.554688 -1.328125 6.890625 -1.453125 C 7.234375 -1.578125 7.523438 -1.757812 7.765625 -2 C 8.015625 -2.25 8.203125 -2.550781 8.328125 -2.90625 L 9.953125 -2.546875 C 9.796875 -2.003906 9.519531 -1.523438 9.125 -1.109375 C 8.738281 -0.691406 8.257812 -0.363281 7.6875 -0.125 C 7.113281 0.101562 6.46875 0.21875 5.75 0.21875 Z M 5.75 0.21875 "/></g></g></g><g fill="#ffffff" fill-opacity="1"><g transform="translate(162.899082, 305.834922)"><g/></g></g><g fill="#ffffff" fill-opacity="1"><g transform="translate(169.411136, 305.834922)"><g><path d="M 5.625 4.125 C 4.863281 4.125 4.195312 4.019531 3.625 3.8125 C 3.050781 3.613281 2.578125 3.335938 2.203125 2.984375 C 1.828125 2.628906 1.546875 2.234375 1.359375 1.796875 L 2.78125 1.109375 C 2.914062 1.347656 3.09375 1.585938 3.3125 1.828125 C 3.539062 2.066406 3.84375 2.265625 4.21875 2.421875 C 4.59375 2.578125 5.0625 2.65625 5.625 2.65625 C 6.46875 2.65625 7.15625 2.445312 7.6875 2.03125 C 8.21875 1.625 8.484375 0.992188 8.484375 0.140625 L 8.484375 -1.828125 L 8.359375 -1.828125 C 8.210938 -1.585938 8.019531 -1.332031 7.78125 -1.0625 C 7.539062 -0.789062 7.222656 -0.5625 6.828125 -0.375 C 6.429688 -0.1875 5.921875 -0.09375 5.296875 -0.09375 C 4.453125 -0.09375 3.695312 -0.289062 3.03125 -0.6875 C 2.375 -1.09375 1.851562 -1.675781 1.46875 -2.4375 C 1.09375 -3.207031 0.90625 -4.128906 0.90625 -5.203125 C 0.90625 -6.273438 1.09375 -7.207031 1.46875 -8 C 1.84375 -8.789062 2.363281 -9.40625 3.03125 -9.84375 C 3.695312 -10.28125 4.460938 -10.5 5.328125 -10.5 C 5.953125 -10.5 6.460938 -10.394531 6.859375 -10.1875 C 7.253906 -9.988281 7.570312 -9.75 7.8125 -9.46875 C 8.0625 -9.1875 8.257812 -8.925781 8.40625 -8.6875 L 8.53125 -8.6875 L 8.53125 -10.34375 L 10.140625 -10.34375 L 10.140625 0.21875 C 10.140625 1.125 9.9375 1.863281 9.53125 2.4375 C 9.132812 3.019531 8.59375 3.445312 7.90625 3.71875 C 7.226562 3.988281 6.46875 4.125 5.625 4.125 Z M 5.578125 -1.578125 C 6.203125 -1.578125 6.734375 -1.722656 7.171875 -2.015625 C 7.617188 -2.304688 7.957031 -2.726562 8.1875 -3.28125 C 8.414062 -3.832031 8.53125 -4.484375 8.53125 -5.234375 C 8.53125 -5.984375 8.414062 -6.640625 8.1875 -7.203125 C 7.957031 -7.765625 7.625 -8.203125 7.1875 -8.515625 C 6.75 -8.835938 6.210938 -9 5.578125 -9 C 4.929688 -9 4.382812 -8.832031 3.9375 -8.5 C 3.5 -8.175781 3.164062 -7.734375 2.9375 -7.171875 C 2.707031 -6.609375 2.59375 -5.960938 2.59375 -5.234375 C 2.59375 -4.492188 2.707031 -3.847656 2.9375 -3.296875 C 3.164062 -2.753906 3.503906 -2.332031 3.953125 -2.03125 C 4.398438 -1.726562 4.941406 -1.578125 5.578125 -1.578125 Z M 5.578125 -1.578125 "/></g></g></g><g fill="#ffffff" fill-opacity="1"><g transform="translate(182.217807, 305.834922)"><g><path d="M 5.75 0.21875 C 4.75 0.21875 3.882812 -0.00390625 3.15625 -0.453125 C 2.4375 -0.898438 1.878906 -1.519531 1.484375 -2.3125 C 1.097656 -3.113281 0.90625 -4.046875 0.90625 -5.109375 C 0.90625 -6.160156 1.097656 -7.09375 1.484375 -7.90625 C 1.867188 -8.71875 2.410156 -9.351562 3.109375 -9.8125 C 3.816406 -10.269531 4.632812 -10.5 5.5625 -10.5 C 6.15625 -10.5 6.722656 -10.398438 7.265625 -10.203125 C 7.804688 -10.003906 8.289062 -9.691406 8.71875 -9.265625 C 9.15625 -8.847656 9.5 -8.304688 9.75 -7.640625 C 10 -6.984375 10.125 -6.195312 10.125 -5.28125 L 10.125 -4.625 L 1.984375 -4.625 L 1.984375 -6.03125 L 9.203125 -6.03125 L 8.453125 -5.53125 C 8.453125 -6.207031 8.335938 -6.804688 8.109375 -7.328125 C 7.890625 -7.859375 7.566406 -8.269531 7.140625 -8.5625 C 6.710938 -8.863281 6.1875 -9.015625 5.5625 -9.015625 C 4.945312 -9.015625 4.414062 -8.863281 3.96875 -8.5625 C 3.519531 -8.257812 3.175781 -7.859375 2.9375 -7.359375 C 2.695312 -6.867188 2.578125 -6.328125 2.578125 -5.734375 L 2.578125 -4.859375 C 2.578125 -4.097656 2.707031 -3.445312 2.96875 -2.90625 C 3.226562 -2.375 3.597656 -1.96875 4.078125 -1.6875 C 4.554688 -1.40625 5.113281 -1.265625 5.75 -1.265625 C 6.175781 -1.265625 6.554688 -1.328125 6.890625 -1.453125 C 7.234375 -1.578125 7.523438 -1.757812 7.765625 -2 C 8.015625 -2.25 8.203125 -2.550781 8.328125 -2.90625 L 9.953125 -2.546875 C 9.796875 -2.003906 9.519531 -1.523438 9.125 -1.109375 C 8.738281 -0.691406 8.257812 -0.363281 7.6875 -0.125 C 7.113281 0.101562 6.46875 0.21875 5.75 0.21875 Z M 5.75 0.21875 "/></g></g></g><g fill="#ffffff" fill-opacity="1"><g transform="translate(194.453096, 305.834922)"><g><path d="M 1.421875 0 L 1.421875 -10.34375 L 3.015625 -10.34375 L 3.015625 -8.75 L 3.109375 -8.75 C 3.304688 -9.269531 3.640625 -9.691406 4.109375 -10.015625 C 4.585938 -10.335938 5.132812 -10.5 5.75 -10.5 C 5.882812 -10.5 6.03125 -10.492188 6.1875 -10.484375 C 6.351562 -10.472656 6.476562 -10.46875 6.5625 -10.46875 L 6.5625 -8.78125 C 6.519531 -8.800781 6.398438 -8.820312 6.203125 -8.84375 C 6.003906 -8.863281 5.789062 -8.875 5.5625 -8.875 C 5.09375 -8.875 4.671875 -8.773438 4.296875 -8.578125 C 3.921875 -8.378906 3.625 -8.097656 3.40625 -7.734375 C 3.1875 -7.378906 3.078125 -6.953125 3.078125 -6.453125 L 3.078125 0 Z M 1.421875 0 "/></g></g></g><g fill="#ffffff" fill-opacity="1"><g transform="translate(202.838617, 305.834922)"><g><path d="M 1.421875 0 L 1.421875 -10.34375 L 3.078125 -10.34375 L 3.078125 0 Z M 2.25 -12.109375 C 1.9375 -12.109375 1.664062 -12.21875 1.4375 -12.4375 C 1.21875 -12.65625 1.109375 -12.914062 1.109375 -13.21875 C 1.109375 -13.519531 1.21875 -13.78125 1.4375 -14 C 1.664062 -14.21875 1.9375 -14.328125 2.25 -14.328125 C 2.570312 -14.328125 2.847656 -14.21875 3.078125 -14 C 3.304688 -13.78125 3.421875 -13.519531 3.421875 -13.21875 C 3.421875 -12.914062 3.304688 -12.65625 3.078125 -12.4375 C 2.847656 -12.21875 2.570312 -12.109375 2.25 -12.109375 Z M 2.25 -12.109375 "/></g></g></g><g fill="#ffffff" fill-opacity="1"><g transform="translate(208.582566, 305.834922)"><g><path d="M 1.421875 0 L 1.421875 -10.34375 L 3.015625 -10.34375 L 3.015625 -8.75 L 3.109375 -8.75 C 3.304688 -9.269531 3.640625 -9.691406 4.109375 -10.015625 C 4.585938 -10.335938 5.132812 -10.5 5.75 -10.5 C 5.882812 -10.5 6.03125 -10.492188 6.1875 -10.484375 C 6.351562 -10.472656 6.476562 -10.46875 6.5625 -10.46875 L 6.5625 -8.78125 C 6.519531 -8.800781 6.398438 -8.820312 6.203125 -8.84375 C 6.003906 -8.863281 5.789062 -8.875 5.5625 -8.875 C 5.09375 -8.875 4.671875 -8.773438 4.296875 -8.578125 C 3.921875 -8.378906 3.625 -8.097656 3.40625 -7.734375 C 3.1875 -7.378906 3.078125 -6.953125 3.078125 -6.453125 L 3.078125 0 Z M 1.421875 0 "/></g></g></g><g fill="#ffffff" fill-opacity="1"><g transform="translate(216.818146, 305.834922)"><g/></g></g><g fill="#ffffff" fill-opacity="1"><g transform="translate(223.3302, 305.834922)"><g><path d="M 4.953125 0.21875 C 4.234375 0.21875 3.59375 0.113281 3.03125 -0.09375 C 2.46875 -0.3125 2.003906 -0.632812 1.640625 -1.0625 C 1.285156 -1.488281 1.054688 -2.007812 0.953125 -2.625 L 2.53125 -2.9375 C 2.664062 -2.351562 2.9375 -1.921875 3.34375 -1.640625 C 3.757812 -1.367188 4.285156 -1.234375 4.921875 -1.234375 C 5.640625 -1.234375 6.210938 -1.382812 6.640625 -1.6875 C 7.066406 -2 7.28125 -2.367188 7.28125 -2.796875 C 7.28125 -3.160156 7.148438 -3.460938 6.890625 -3.703125 C 6.640625 -3.941406 6.265625 -4.113281 5.765625 -4.21875 L 4.046875 -4.640625 C 3.097656 -4.859375 2.394531 -5.203125 1.9375 -5.671875 C 1.476562 -6.140625 1.25 -6.738281 1.25 -7.46875 C 1.25 -8.0625 1.410156 -8.582031 1.734375 -9.03125 C 2.066406 -9.488281 2.519531 -9.847656 3.09375 -10.109375 C 3.664062 -10.367188 4.320312 -10.5 5.0625 -10.5 C 5.769531 -10.5 6.378906 -10.382812 6.890625 -10.15625 C 7.398438 -9.925781 7.8125 -9.613281 8.125 -9.21875 C 8.445312 -8.820312 8.671875 -8.359375 8.796875 -7.828125 L 7.265625 -7.515625 C 7.160156 -7.921875 6.929688 -8.28125 6.578125 -8.59375 C 6.234375 -8.914062 5.726562 -9.078125 5.0625 -9.078125 C 4.4375 -9.078125 3.921875 -8.929688 3.515625 -8.640625 C 3.117188 -8.359375 2.921875 -8 2.921875 -7.5625 C 2.921875 -7.175781 3.0625 -6.863281 3.34375 -6.625 C 3.625 -6.394531 4.054688 -6.210938 4.640625 -6.078125 L 6.21875 -5.703125 C 7.164062 -5.484375 7.863281 -5.140625 8.3125 -4.671875 C 8.769531 -4.203125 9 -3.609375 9 -2.890625 C 9 -2.285156 8.828125 -1.75 8.484375 -1.28125 C 8.140625 -0.8125 7.660156 -0.441406 7.046875 -0.171875 C 6.441406 0.0859375 5.742188 0.21875 4.953125 0.21875 Z M 4.953125 0.21875 "/></g></g></g><g fill="#ffffff" fill-opacity="1"><g transform="translate(234.478942, 305.834922)"><g><path d="M 5.75 0.21875 C 4.75 0.21875 3.882812 -0.00390625 3.15625 -0.453125 C 2.4375 -0.898438 1.878906 -1.519531 1.484375 -2.3125 C 1.097656 -3.113281 0.90625 -4.046875 0.90625 -5.109375 C 0.90625 -6.160156 1.097656 -7.09375 1.484375 -7.90625 C 1.867188 -8.71875 2.410156 -9.351562 3.109375 -9.8125 C 3.816406 -10.269531 4.632812 -10.5 5.5625 -10.5 C 6.15625 -10.5 6.722656 -10.398438 7.265625 -10.203125 C 7.804688 -10.003906 8.289062 -9.691406 8.71875 -9.265625 C 9.15625 -8.847656 9.5 -8.304688 9.75 -7.640625 C 10 -6.984375 10.125 -6.195312 10.125 -5.28125 L 10.125 -4.625 L 1.984375 -4.625 L 1.984375 -6.03125 L 9.203125 -6.03125 L 8.453125 -5.53125 C 8.453125 -6.207031 8.335938 -6.804688 8.109375 -7.328125 C 7.890625 -7.859375 7.566406 -8.269531 7.140625 -8.5625 C 6.710938 -8.863281 6.1875 -9.015625 5.5625 -9.015625 C 4.945312 -9.015625 4.414062 -8.863281 3.96875 -8.5625 C 3.519531 -8.257812 3.175781 -7.859375 2.9375 -7.359375 C 2.695312 -6.867188 2.578125 -6.328125 2.578125 -5.734375 L 2.578125 -4.859375 C 2.578125 -4.097656 2.707031 -3.445312 2.96875 -2.90625 C 3.226562 -2.375 3.597656 -1.96875 4.078125 -1.6875 C 4.554688 -1.40625 5.113281 -1.265625 5.75 -1.265625 C 6.175781 -1.265625 6.554688 -1.328125 6.890625 -1.453125 C 7.234375 -1.578125 7.523438 -1.757812 7.765625 -2 C 8.015625 -2.25 8.203125 -2.550781 8.328125 -2.90625 L 9.953125 -2.546875 C 9.796875 -2.003906 9.519531 -1.523438 9.125 -1.109375 C 8.738281 -0.691406 8.257812 -0.363281 7.6875 -0.125 C 7.113281 0.101562 6.46875 0.21875 5.75 0.21875 Z M 5.75 0.21875 "/></g></g></g><g fill="#ffffff" fill-opacity="1"><g transform="translate(246.714232, 305.834922)"><g><path d="M 4.984375 0.140625 C 4.285156 0.140625 3.664062 -0.00390625 3.125 -0.296875 C 2.59375 -0.585938 2.175781 -1.023438 1.875 -1.609375 C 1.570312 -2.191406 1.421875 -2.921875 1.421875 -3.796875 L 1.421875 -10.34375 L 3.078125 -10.34375 L 3.078125 -3.9375 C 3.078125 -3.125 3.285156 -2.488281 3.703125 -2.03125 C 4.128906 -1.582031 4.707031 -1.359375 5.4375 -1.359375 C 5.9375 -1.359375 6.382812 -1.460938 6.78125 -1.671875 C 7.175781 -1.890625 7.488281 -2.207031 7.71875 -2.625 C 7.945312 -3.050781 8.0625 -3.566406 8.0625 -4.171875 L 8.0625 -10.34375 L 9.75 -10.34375 L 9.75 0 L 8.125 0 L 8.125 -2.515625 L 8.40625 -2.515625 C 8.082031 -1.546875 7.625 -0.859375 7.03125 -0.453125 C 6.4375 -0.0546875 5.753906 0.140625 4.984375 0.140625 Z M 4.984375 0.140625 "/></g></g></g><g fill="#ffffff" fill-opacity="1"><g transform="translate(259.118116, 305.834922)"><g/></g></g><g fill="#ffffff" fill-opacity="1"><g transform="translate(265.63017, 305.834922)"><g><path d="M 5.3125 0.21875 C 4.445312 0.21875 3.679688 0 3.015625 -0.4375 C 2.359375 -0.882812 1.84375 -1.507812 1.46875 -2.3125 C 1.09375 -3.113281 0.90625 -4.0625 0.90625 -5.15625 C 0.90625 -6.238281 1.09375 -7.179688 1.46875 -7.984375 C 1.84375 -8.785156 2.359375 -9.40625 3.015625 -9.84375 C 3.679688 -10.28125 4.445312 -10.5 5.3125 -10.5 C 5.9375 -10.5 6.445312 -10.394531 6.84375 -10.1875 C 7.25 -9.988281 7.566406 -9.75 7.796875 -9.46875 C 8.035156 -9.195312 8.222656 -8.945312 8.359375 -8.71875 L 8.46875 -8.71875 L 8.46875 -13.953125 L 10.140625 -13.953125 L 10.140625 0 L 8.53125 0 L 8.53125 -1.59375 L 8.375 -1.59375 C 8.226562 -1.351562 8.03125 -1.09375 7.78125 -0.8125 C 7.539062 -0.53125 7.222656 -0.285156 6.828125 -0.078125 C 6.429688 0.117188 5.925781 0.21875 5.3125 0.21875 Z M 5.5625 -1.28125 C 6.1875 -1.28125 6.71875 -1.441406 7.15625 -1.765625 C 7.601562 -2.097656 7.941406 -2.554688 8.171875 -3.140625 C 8.398438 -3.722656 8.515625 -4.394531 8.515625 -5.15625 C 8.515625 -5.925781 8.398438 -6.597656 8.171875 -7.171875 C 7.941406 -7.742188 7.609375 -8.191406 7.171875 -8.515625 C 6.734375 -8.835938 6.195312 -9 5.5625 -9 C 4.914062 -9 4.375 -8.832031 3.9375 -8.5 C 3.5 -8.175781 3.164062 -7.722656 2.9375 -7.140625 C 2.707031 -6.566406 2.59375 -5.90625 2.59375 -5.15625 C 2.59375 -4.414062 2.707031 -3.75 2.9375 -3.15625 C 3.164062 -2.570312 3.5 -2.113281 3.9375 -1.78125 C 4.382812 -1.445312 4.925781 -1.28125 5.5625 -1.28125 Z M 5.5625 -1.28125 "/></g></g></g><g fill="#ffffff" fill-opacity="1"><g transform="translate(278.427479, 305.834922)"><g><path d="M 1.421875 0 L 1.421875 -10.34375 L 3.078125 -10.34375 L 3.078125 0 Z M 2.25 -12.109375 C 1.9375 -12.109375 1.664062 -12.21875 1.4375 -12.4375 C 1.21875 -12.65625 1.109375 -12.914062 1.109375 -13.21875 C 1.109375 -13.519531 1.21875 -13.78125 1.4375 -14 C 1.664062 -14.21875 1.9375 -14.328125 2.25 -14.328125 C 2.570312 -14.328125 2.847656 -14.21875 3.078125 -14 C 3.304688 -13.78125 3.421875 -13.519531 3.421875 -13.21875 C 3.421875 -12.914062 3.304688 -12.65625 3.078125 -12.4375 C 2.847656 -12.21875 2.570312 -12.109375 2.25 -12.109375 Z M 2.25 -12.109375 "/></g></g></g><g fill="#ffffff" fill-opacity="1"><g transform="translate(284.171429, 305.834922)"><g><path d="M 3.078125 -6.171875 L 3.078125 0 L 1.421875 0 L 1.421875 -10.34375 L 3.015625 -10.34375 L 3.03125 -7.84375 L 2.75 -7.84375 C 3.0625 -8.789062 3.507812 -9.46875 4.09375 -9.875 C 4.6875 -10.289062 5.378906 -10.5 6.171875 -10.5 C 6.867188 -10.5 7.484375 -10.351562 8.015625 -10.0625 C 8.554688 -9.769531 8.976562 -9.332031 9.28125 -8.75 C 9.582031 -8.164062 9.734375 -7.429688 9.734375 -6.546875 L 9.734375 0 L 8.0625 0 L 8.0625 -6.40625 C 8.0625 -7.21875 7.851562 -7.847656 7.4375 -8.296875 C 7.019531 -8.753906 6.445312 -8.984375 5.71875 -8.984375 C 5.21875 -8.984375 4.769531 -8.875 4.375 -8.65625 C 3.976562 -8.445312 3.660156 -8.132812 3.421875 -7.71875 C 3.191406 -7.300781 3.078125 -6.785156 3.078125 -6.171875 Z M 3.078125 -6.171875 "/></g></g></g><g fill="#ffffff" fill-opacity="1"><g transform="translate(296.565975, 305.834922)"><g><path d="M 3.078125 -6.171875 L 3.078125 0 L 1.421875 0 L 1.421875 -13.953125 L 3.078125 -13.953125 L 3.078125 -7.84375 L 2.75 -7.84375 C 3.0625 -8.789062 3.507812 -9.46875 4.09375 -9.875 C 4.6875 -10.289062 5.378906 -10.5 6.171875 -10.5 C 6.867188 -10.5 7.484375 -10.351562 8.015625 -10.0625 C 8.554688 -9.769531 8.976562 -9.332031 9.28125 -8.75 C 9.59375 -8.164062 9.75 -7.429688 9.75 -6.546875 L 9.75 0 L 8.0625 0 L 8.0625 -6.40625 C 8.0625 -7.21875 7.851562 -7.847656 7.4375 -8.296875 C 7.019531 -8.753906 6.445312 -8.984375 5.71875 -8.984375 C 5.21875 -8.984375 4.769531 -8.875 4.375 -8.65625 C 3.976562 -8.445312 3.660156 -8.132812 3.421875 -7.71875 C 3.191406 -7.300781 3.078125 -6.785156 3.078125 -6.171875 Z M 3.078125 -6.171875 "/></g></g></g><g fill="#ffffff" fill-opacity="1"><g transform="translate(308.969859, 305.834922)"><g><path d="M 5.75 0.21875 C 4.75 0.21875 3.882812 -0.00390625 3.15625 -0.453125 C 2.4375 -0.898438 1.878906 -1.519531 1.484375 -2.3125 C 1.097656 -3.113281 0.90625 -4.046875 0.90625 -5.109375 C 0.90625 -6.160156 1.097656 -7.09375 1.484375 -7.90625 C 1.867188 -8.71875 2.410156 -9.351562 3.109375 -9.8125 C 3.816406 -10.269531 4.632812 -10.5 5.5625 -10.5 C 6.15625 -10.5 6.722656 -10.398438 7.265625 -10.203125 C 7.804688 -10.003906 8.289062 -9.691406 8.71875 -9.265625 C 9.15625 -8.847656 9.5 -8.304688 9.75 -7.640625 C 10 -6.984375 10.125 -6.195312 10.125 -5.28125 L 10.125 -4.625 L 1.984375 -4.625 L 1.984375 -6.03125 L 9.203125 -6.03125 L 8.453125 -5.53125 C 8.453125 -6.207031 8.335938 -6.804688 8.109375 -7.328125 C 7.890625 -7.859375 7.566406 -8.269531 7.140625 -8.5625 C 6.710938 -8.863281 6.1875 -9.015625 5.5625 -9.015625 C 4.945312 -9.015625 4.414062 -8.863281 3.96875 -8.5625 C 3.519531 -8.257812 3.175781 -7.859375 2.9375 -7.359375 C 2.695312 -6.867188 2.578125 -6.328125 2.578125 -5.734375 L 2.578125 -4.859375 C 2.578125 -4.097656 2.707031 -3.445312 2.96875 -2.90625 C 3.226562 -2.375 3.597656 -1.96875 4.078125 -1.6875 C 4.554688 -1.40625 5.113281 -1.265625 5.75 -1.265625 C 6.175781 -1.265625 6.554688 -1.328125 6.890625 -1.453125 C 7.234375 -1.578125 7.523438 -1.757812 7.765625 -2 C 8.015625 -2.25 8.203125 -2.550781 8.328125 -2.90625 L 9.953125 -2.546875 C 9.796875 -2.003906 9.519531 -1.523438 9.125 -1.109375 C 8.738281 -0.691406 8.257812 -0.363281 7.6875 -0.125 C 7.113281 0.101562 6.46875 0.21875 5.75 0.21875 Z M 5.75 0.21875 "/></g></g></g><g fill="#ffffff" fill-opacity="1"><g transform="translate(321.205148, 305.834922)"><g><path d="M 1.421875 0 L 1.421875 -10.34375 L 3.078125 -10.34375 L 3.078125 0 Z M 2.25 -12.109375 C 1.9375 -12.109375 1.664062 -12.21875 1.4375 -12.4375 C 1.21875 -12.65625 1.109375 -12.914062 1.109375 -13.21875 C 1.109375 -13.519531 1.21875 -13.78125 1.4375 -14 C 1.664062 -14.21875 1.9375 -14.328125 2.25 -14.328125 C 2.570312 -14.328125 2.847656 -14.21875 3.078125 -14 C 3.304688 -13.78125 3.421875 -13.519531 3.421875 -13.21875 C 3.421875 -12.914062 3.304688 -12.65625 3.078125 -12.4375 C 2.847656 -12.21875 2.570312 -12.109375 2.25 -12.109375 Z M 2.25 -12.109375 "/></g></g></g><g fill="#ffffff" fill-opacity="1"><g transform="translate(326.949121, 305.834922)"><g><path d="M 1.421875 0 L 1.421875 -10.34375 L 3.015625 -10.34375 L 3.015625 -8.75 L 3.109375 -8.75 C 3.304688 -9.269531 3.640625 -9.691406 4.109375 -10.015625 C 4.585938 -10.335938 5.132812 -10.5 5.75 -10.5 C 5.882812 -10.5 6.03125 -10.492188 6.1875 -10.484375 C 6.351562 -10.472656 6.476562 -10.46875 6.5625 -10.46875 L 6.5625 -8.78125 C 6.519531 -8.800781 6.398438 -8.820312 6.203125 -8.84375 C 6.003906 -8.863281 5.789062 -8.875 5.5625 -8.875 C 5.09375 -8.875 4.671875 -8.773438 4.296875 -8.578125 C 3.921875 -8.378906 3.625 -8.097656 3.40625 -7.734375 C 3.1875 -7.378906 3.078125 -6.953125 3.078125 -6.453125 L 3.078125 0 Z M 1.421875 0 "/></g></g></g><g fill="#ffffff" fill-opacity="1"><g transform="translate(334.894181, 305.834922)"><g><path d="M 5.640625 0.21875 C 4.691406 0.21875 3.863281 0 3.15625 -0.4375 C 2.445312 -0.882812 1.894531 -1.507812 1.5 -2.3125 C 1.101562 -3.125 0.90625 -4.054688 0.90625 -5.109375 C 0.90625 -6.191406 1.101562 -7.132812 1.5 -7.9375 C 1.894531 -8.75 2.445312 -9.378906 3.15625 -9.828125 C 3.863281 -10.273438 4.691406 -10.5 5.640625 -10.5 C 6.585938 -10.5 7.414062 -10.273438 8.125 -9.828125 C 8.832031 -9.378906 9.382812 -8.75 9.78125 -7.9375 C 10.175781 -7.132812 10.375 -6.191406 10.375 -5.109375 C 10.375 -4.054688 10.175781 -3.125 9.78125 -2.3125 C 9.382812 -1.507812 8.832031 -0.882812 8.125 -0.4375 C 7.414062 0 6.585938 0.21875 5.640625 0.21875 Z M 5.640625 -1.265625 C 6.328125 -1.265625 6.894531 -1.4375 7.34375 -1.78125 C 7.800781 -2.132812 8.140625 -2.601562 8.359375 -3.1875 C 8.578125 -3.769531 8.6875 -4.410156 8.6875 -5.109375 C 8.6875 -5.816406 8.578125 -6.460938 8.359375 -7.046875 C 8.140625 -7.640625 7.800781 -8.113281 7.34375 -8.46875 C 6.894531 -8.820312 6.328125 -9 5.640625 -9 C 4.960938 -9 4.394531 -8.820312 3.9375 -8.46875 C 3.488281 -8.113281 3.148438 -7.644531 2.921875 -7.0625 C 2.703125 -6.476562 2.59375 -5.828125 2.59375 -5.109375 C 2.59375 -4.410156 2.703125 -3.769531 2.921875 -3.1875 C 3.148438 -2.601562 3.488281 -2.132812 3.9375 -1.78125 C 4.382812 -1.4375 4.953125 -1.265625 5.640625 -1.265625 Z M 5.640625 -1.265625 "/></g></g></g></svg>