<svg xmlns="http://www.w3.org/2000/svg" xmlns:xlink="http://www.w3.org/1999/xlink" width="500" zoomAndPan="magnify" viewBox="0 0 375 374.999991" height="500" preserveAspectRatio="xMidYMid meet" version="1.0"><defs><g/><clipPath id="51b8ad83d7"><path d="M 122.1875 45.152344 L 252.800781 45.152344 L 252.800781 187.5 L 122.1875 187.5 Z M 122.1875 45.152344 " clip-rule="nonzero"/></clipPath><clipPath id="f9c0105154"><path d="M 232.550781 187.5 L 142.4375 187.5 C 131.253906 187.5 122.1875 178.433594 122.1875 167.25 L 122.1875 65.566406 C 122.1875 54.382812 131.253906 45.316406 142.4375 45.316406 L 232.550781 45.316406 C 243.734375 45.316406 252.800781 54.382812 252.800781 65.566406 L 252.800781 167.25 C 252.800781 178.433594 243.734375 187.5 232.550781 187.5 Z M 232.550781 187.5 " clip-rule="nonzero"/></clipPath><clipPath id="d2b10b7afe"><path d="M 0.1875 0.320312 L 130.800781 0.320312 L 130.800781 142.5 L 0.1875 142.5 Z M 0.1875 0.320312 " clip-rule="nonzero"/></clipPath><clipPath id="db505fc7db"><path d="M 110.550781 142.5 L 20.4375 142.5 C 9.253906 142.5 0.1875 133.433594 0.1875 122.25 L 0.1875 20.566406 C 0.1875 9.382812 9.253906 0.316406 20.4375 0.316406 L 110.550781 0.316406 C 121.734375 0.316406 130.800781 9.382812 130.800781 20.566406 L 130.800781 122.25 C 130.800781 133.433594 121.734375 142.5 110.550781 142.5 Z M 110.550781 142.5 " clip-rule="nonzero"/></clipPath><radialGradient gradientTransform="matrix(-1, 0, 0, -1, 130.799704, 142.502332)" gradientUnits="userSpaceOnUse" r="193.068759" cx="0" id="7418daa945" cy="0" fx="0" fy="0"><stop stop-opacity="1" stop-color="rgb(13.383484%, 0%, 33.462524%)" offset="0"/><stop stop-opacity="1" stop-color="rgb(13.467407%, 0%, 33.662415%)" offset="0.0078125"/><stop stop-opacity="1" stop-color="rgb(13.522339%, 0%, 33.795166%)" offset="0.0117188"/><stop stop-opacity="1" stop-color="rgb(13.577271%, 0%, 33.927917%)" offset="0.015625"/><stop stop-opacity="1" stop-color="rgb(13.632202%, 0%, 34.062195%)" offset="0.0195312"/><stop stop-opacity="1" stop-color="rgb(13.687134%, 0%, 34.194946%)" offset="0.0234375"/><stop stop-opacity="1" stop-color="rgb(13.742065%, 0%, 34.327698%)" offset="0.0273438"/><stop stop-opacity="1" stop-color="rgb(13.798523%, 0%, 34.461975%)" offset="0.03125"/><stop stop-opacity="1" stop-color="rgb(13.853455%, 0%, 34.594727%)" offset="0.0351562"/><stop stop-opacity="1" stop-color="rgb(13.908386%, 0%, 34.727478%)" offset="0.0390625"/><stop stop-opacity="1" stop-color="rgb(13.963318%, 0%, 34.861755%)" offset="0.0429688"/><stop stop-opacity="1" stop-color="rgb(14.01825%, 0%, 34.994507%)" offset="0.046875"/><stop stop-opacity="1" stop-color="rgb(14.073181%, 0%, 35.128784%)" offset="0.0507812"/><stop stop-opacity="1" stop-color="rgb(14.129639%, 0%, 35.261536%)" offset="0.0546875"/><stop stop-opacity="1" stop-color="rgb(14.18457%, 0%, 35.394287%)" offset="0.0585938"/><stop stop-opacity="1" stop-color="rgb(14.239502%, 0%, 35.528564%)" offset="0.0625"/><stop stop-opacity="1" stop-color="rgb(14.294434%, 0%, 35.661316%)" offset="0.0664062"/><stop stop-opacity="1" stop-color="rgb(14.349365%, 0%, 35.794067%)" offset="0.0703125"/><stop stop-opacity="1" stop-color="rgb(14.404297%, 0%, 35.928345%)" offset="0.0742188"/><stop stop-opacity="1" stop-color="rgb(14.459229%, 0%, 36.061096%)" offset="0.078125"/><stop stop-opacity="1" stop-color="rgb(14.515686%, 0%, 36.193848%)" offset="0.0820312"/><stop stop-opacity="1" stop-color="rgb(14.570618%, 0%, 36.328125%)" offset="0.0859375"/><stop stop-opacity="1" stop-color="rgb(14.625549%, 0%, 36.460876%)" offset="0.0898438"/><stop stop-opacity="1" stop-color="rgb(14.680481%, 0%, 36.593628%)" offset="0.09375"/><stop stop-opacity="1" stop-color="rgb(14.735413%, 0%, 36.727905%)" offset="0.0976562"/><stop stop-opacity="1" stop-color="rgb(14.790344%, 0%, 36.860657%)" offset="0.101562"/><stop stop-opacity="1" stop-color="rgb(14.845276%, 0%, 36.993408%)" offset="0.105469"/><stop stop-opacity="1" stop-color="rgb(14.901733%, 0%, 37.127686%)" offset="0.109375"/><stop stop-opacity="1" stop-color="rgb(14.956665%, 0%, 37.260437%)" offset="0.113281"/><stop stop-opacity="1" stop-color="rgb(15.011597%, 0%, 37.393188%)" offset="0.117188"/><stop stop-opacity="1" stop-color="rgb(15.066528%, 0%, 37.527466%)" offset="0.121094"/><stop stop-opacity="1" stop-color="rgb(15.12146%, 0%, 37.660217%)" offset="0.125"/><stop stop-opacity="1" stop-color="rgb(15.176392%, 0%, 37.792969%)" offset="0.128906"/><stop stop-opacity="1" stop-color="rgb(15.231323%, 0%, 37.927246%)" offset="0.132812"/><stop stop-opacity="1" stop-color="rgb(15.287781%, 0%, 38.059998%)" offset="0.136719"/><stop stop-opacity="1" stop-color="rgb(15.342712%, 0%, 38.192749%)" offset="0.140625"/><stop stop-opacity="1" stop-color="rgb(15.397644%, 0%, 38.327026%)" offset="0.144531"/><stop stop-opacity="1" stop-color="rgb(15.452576%, 0%, 38.459778%)" offset="0.148438"/><stop stop-opacity="1" stop-color="rgb(15.507507%, 0%, 38.594055%)" offset="0.152344"/><stop stop-opacity="1" stop-color="rgb(15.562439%, 0%, 38.726807%)" offset="0.15625"/><stop stop-opacity="1" stop-color="rgb(15.617371%, 0%, 38.859558%)" offset="0.160156"/><stop stop-opacity="1" stop-color="rgb(15.673828%, 0%, 38.993835%)" offset="0.164062"/><stop stop-opacity="1" stop-color="rgb(15.72876%, 0%, 39.126587%)" offset="0.167969"/><stop stop-opacity="1" stop-color="rgb(15.783691%, 0%, 39.259338%)" offset="0.171875"/><stop stop-opacity="1" stop-color="rgb(15.838623%, 0%, 39.393616%)" offset="0.175781"/><stop stop-opacity="1" stop-color="rgb(15.893555%, 0%, 39.526367%)" offset="0.179688"/><stop stop-opacity="1" stop-color="rgb(15.948486%, 0%, 39.659119%)" offset="0.183594"/><stop stop-opacity="1" stop-color="rgb(16.004944%, 0%, 39.793396%)" offset="0.1875"/><stop stop-opacity="1" stop-color="rgb(16.059875%, 0%, 39.926147%)" offset="0.191406"/><stop stop-opacity="1" stop-color="rgb(16.114807%, 0%, 40.058899%)" offset="0.195312"/><stop stop-opacity="1" stop-color="rgb(16.169739%, 0%, 40.193176%)" offset="0.199219"/><stop stop-opacity="1" stop-color="rgb(16.22467%, 0%, 40.325928%)" offset="0.203125"/><stop stop-opacity="1" stop-color="rgb(16.279602%, 0%, 40.458679%)" offset="0.207031"/><stop stop-opacity="1" stop-color="rgb(16.334534%, 0%, 40.592957%)" offset="0.210938"/><stop stop-opacity="1" stop-color="rgb(16.390991%, 0%, 40.725708%)" offset="0.214844"/><stop stop-opacity="1" stop-color="rgb(16.445923%, 0%, 40.858459%)" offset="0.21875"/><stop stop-opacity="1" stop-color="rgb(16.500854%, 0%, 40.992737%)" offset="0.222656"/><stop stop-opacity="1" stop-color="rgb(16.555786%, 0%, 41.125488%)" offset="0.226562"/><stop stop-opacity="1" stop-color="rgb(16.610718%, 0%, 41.25824%)" offset="0.230469"/><stop stop-opacity="1" stop-color="rgb(16.665649%, 0%, 41.392517%)" offset="0.234375"/><stop stop-opacity="1" stop-color="rgb(16.720581%, 0%, 41.525269%)" offset="0.238281"/><stop stop-opacity="1" stop-color="rgb(16.777039%, 0%, 41.659546%)" offset="0.242188"/><stop stop-opacity="1" stop-color="rgb(16.83197%, 0%, 41.792297%)" offset="0.246094"/><stop stop-opacity="1" stop-color="rgb(16.886902%, 0%, 41.925049%)" offset="0.25"/><stop stop-opacity="1" stop-color="rgb(16.969299%, 0%, 42.124939%)" offset="0.253906"/><stop stop-opacity="1" stop-color="rgb(17.079163%, 0%, 42.391968%)" offset="0.261719"/><stop stop-opacity="1" stop-color="rgb(17.190552%, 0%, 42.658997%)" offset="0.269531"/><stop stop-opacity="1" stop-color="rgb(17.300415%, 0%, 42.9245%)" offset="0.277344"/><stop stop-opacity="1" stop-color="rgb(17.410278%, 0%, 43.191528%)" offset="0.285156"/><stop stop-opacity="1" stop-color="rgb(17.520142%, 0%, 43.458557%)" offset="0.292969"/><stop stop-opacity="1" stop-color="rgb(17.631531%, 0%, 43.72406%)" offset="0.300781"/><stop stop-opacity="1" stop-color="rgb(17.741394%, 0%, 43.991089%)" offset="0.308594"/><stop stop-opacity="1" stop-color="rgb(17.851257%, 0%, 44.258118%)" offset="0.316406"/><stop stop-opacity="1" stop-color="rgb(17.962646%, 0%, 44.523621%)" offset="0.324219"/><stop stop-opacity="1" stop-color="rgb(18.07251%, 0%, 44.790649%)" offset="0.332031"/><stop stop-opacity="1" stop-color="rgb(18.182373%, 0%, 45.057678%)" offset="0.339844"/><stop stop-opacity="1" stop-color="rgb(18.293762%, 0%, 45.324707%)" offset="0.347656"/><stop stop-opacity="1" stop-color="rgb(18.403625%, 0%, 45.59021%)" offset="0.355469"/><stop stop-opacity="1" stop-color="rgb(18.513489%, 0%, 45.857239%)" offset="0.363281"/><stop stop-opacity="1" stop-color="rgb(18.623352%, 0%, 46.124268%)" offset="0.371094"/><stop stop-opacity="1" stop-color="rgb(18.734741%, 0%, 46.389771%)" offset="0.378906"/><stop stop-opacity="1" stop-color="rgb(18.844604%, 0%, 46.656799%)" offset="0.386719"/><stop stop-opacity="1" stop-color="rgb(18.954468%, 0%, 46.923828%)" offset="0.394531"/><stop stop-opacity="1" stop-color="rgb(19.065857%, 0%, 47.189331%)" offset="0.402344"/><stop stop-opacity="1" stop-color="rgb(19.17572%, 0%, 47.45636%)" offset="0.410156"/><stop stop-opacity="1" stop-color="rgb(19.285583%, 0%, 47.723389%)" offset="0.417969"/><stop stop-opacity="1" stop-color="rgb(19.395447%, 0%, 47.988892%)" offset="0.425781"/><stop stop-opacity="1" stop-color="rgb(19.506836%, 0%, 48.25592%)" offset="0.433594"/><stop stop-opacity="1" stop-color="rgb(19.616699%, 0%, 48.522949%)" offset="0.441406"/><stop stop-opacity="1" stop-color="rgb(19.726562%, 0%, 48.789978%)" offset="0.449219"/><stop stop-opacity="1" stop-color="rgb(19.837952%, 0%, 49.055481%)" offset="0.457031"/><stop stop-opacity="1" stop-color="rgb(19.947815%, 0%, 49.32251%)" offset="0.464844"/><stop stop-opacity="1" stop-color="rgb(20.057678%, 0%, 49.589539%)" offset="0.472656"/><stop stop-opacity="1" stop-color="rgb(20.169067%, 0%, 49.855042%)" offset="0.480469"/><stop stop-opacity="1" stop-color="rgb(20.278931%, 0%, 50.12207%)" offset="0.488281"/><stop stop-opacity="1" stop-color="rgb(20.388794%, 0%, 50.389099%)" offset="0.496094"/><stop stop-opacity="1" stop-color="rgb(20.471191%, 0%, 50.588989%)" offset="0.503906"/><stop stop-opacity="1" stop-color="rgb(20.527649%, 0%, 50.721741%)" offset="0.507812"/><stop stop-opacity="1" stop-color="rgb(20.582581%, 0%, 50.854492%)" offset="0.511719"/><stop stop-opacity="1" stop-color="rgb(20.637512%, 0%, 50.98877%)" offset="0.515625"/><stop stop-opacity="1" stop-color="rgb(20.692444%, 0%, 51.121521%)" offset="0.519531"/><stop stop-opacity="1" stop-color="rgb(20.747375%, 0%, 51.255798%)" offset="0.523438"/><stop stop-opacity="1" stop-color="rgb(20.802307%, 0%, 51.38855%)" offset="0.527344"/><stop stop-opacity="1" stop-color="rgb(20.857239%, 0%, 51.521301%)" offset="0.53125"/><stop stop-opacity="1" stop-color="rgb(20.913696%, 0%, 51.655579%)" offset="0.535156"/><stop stop-opacity="1" stop-color="rgb(20.968628%, 0%, 51.78833%)" offset="0.539062"/><stop stop-opacity="1" stop-color="rgb(21.02356%, 0%, 51.921082%)" offset="0.542969"/><stop stop-opacity="1" stop-color="rgb(21.078491%, 0%, 52.055359%)" offset="0.546875"/><stop stop-opacity="1" stop-color="rgb(21.133423%, 0%, 52.18811%)" offset="0.550781"/><stop stop-opacity="1" stop-color="rgb(21.188354%, 0%, 52.320862%)" offset="0.554688"/><stop stop-opacity="1" stop-color="rgb(21.243286%, 0%, 52.455139%)" offset="0.558594"/><stop stop-opacity="1" stop-color="rgb(21.299744%, 0%, 52.587891%)" offset="0.5625"/><stop stop-opacity="1" stop-color="rgb(21.354675%, 0%, 52.720642%)" offset="0.566406"/><stop stop-opacity="1" stop-color="rgb(21.409607%, 0%, 52.854919%)" offset="0.570312"/><stop stop-opacity="1" stop-color="rgb(21.464539%, 0%, 52.987671%)" offset="0.574219"/><stop stop-opacity="1" stop-color="rgb(21.51947%, 0%, 53.120422%)" offset="0.578125"/><stop stop-opacity="1" stop-color="rgb(21.574402%, 0%, 53.2547%)" offset="0.582031"/><stop stop-opacity="1" stop-color="rgb(21.630859%, 0%, 53.387451%)" offset="0.585938"/><stop stop-opacity="1" stop-color="rgb(21.685791%, 0%, 53.520203%)" offset="0.589844"/><stop stop-opacity="1" stop-color="rgb(21.740723%, 0%, 53.65448%)" offset="0.59375"/><stop stop-opacity="1" stop-color="rgb(21.795654%, 0%, 53.787231%)" offset="0.597656"/><stop stop-opacity="1" stop-color="rgb(21.850586%, 0%, 53.919983%)" offset="0.601562"/><stop stop-opacity="1" stop-color="rgb(21.905518%, 0%, 54.05426%)" offset="0.605469"/><stop stop-opacity="1" stop-color="rgb(21.960449%, 0%, 54.187012%)" offset="0.609375"/><stop stop-opacity="1" stop-color="rgb(22.016907%, 0%, 54.321289%)" offset="0.613281"/><stop stop-opacity="1" stop-color="rgb(22.071838%, 0%, 54.454041%)" offset="0.617188"/><stop stop-opacity="1" stop-color="rgb(22.12677%, 0%, 54.586792%)" offset="0.621094"/><stop stop-opacity="1" stop-color="rgb(22.181702%, 0%, 54.721069%)" offset="0.625"/><stop stop-opacity="1" stop-color="rgb(22.264099%, 0%, 54.920959%)" offset="0.628906"/><stop stop-opacity="1" stop-color="rgb(22.373962%, 0%, 55.186462%)" offset="0.636719"/><stop stop-opacity="1" stop-color="rgb(22.485352%, 0%, 55.453491%)" offset="0.644531"/><stop stop-opacity="1" stop-color="rgb(22.595215%, 0%, 55.72052%)" offset="0.652344"/><stop stop-opacity="1" stop-color="rgb(22.705078%, 0%, 55.986023%)" offset="0.660156"/><stop stop-opacity="1" stop-color="rgb(22.816467%, 0%, 56.253052%)" offset="0.667969"/><stop stop-opacity="1" stop-color="rgb(22.926331%, 0%, 56.520081%)" offset="0.675781"/><stop stop-opacity="1" stop-color="rgb(23.036194%, 0%, 56.785583%)" offset="0.683594"/><stop stop-opacity="1" stop-color="rgb(23.147583%, 0%, 57.052612%)" offset="0.691406"/><stop stop-opacity="1" stop-color="rgb(23.257446%, 0%, 57.319641%)" offset="0.699219"/><stop stop-opacity="1" stop-color="rgb(23.36731%, 0%, 57.585144%)" offset="0.707031"/><stop stop-opacity="1" stop-color="rgb(23.477173%, 0%, 57.852173%)" offset="0.714844"/><stop stop-opacity="1" stop-color="rgb(23.588562%, 0%, 58.119202%)" offset="0.722656"/><stop stop-opacity="1" stop-color="rgb(23.698425%, 0%, 58.38623%)" offset="0.730469"/><stop stop-opacity="1" stop-color="rgb(23.808289%, 0%, 58.651733%)" offset="0.738281"/><stop stop-opacity="1" stop-color="rgb(23.919678%, 0%, 58.918762%)" offset="0.746094"/><stop stop-opacity="1" stop-color="rgb(24.002075%, 0%, 59.118652%)" offset="0.753906"/><stop stop-opacity="1" stop-color="rgb(24.057007%, 0%, 59.251404%)" offset="0.757812"/><stop stop-opacity="1" stop-color="rgb(24.111938%, 0%, 59.385681%)" offset="0.761719"/><stop stop-opacity="1" stop-color="rgb(24.16687%, 0%, 59.518433%)" offset="0.765625"/><stop stop-opacity="1" stop-color="rgb(24.221802%, 0%, 59.651184%)" offset="0.769531"/><stop stop-opacity="1" stop-color="rgb(24.278259%, 0%, 59.785461%)" offset="0.773438"/><stop stop-opacity="1" stop-color="rgb(24.333191%, 0%, 59.918213%)" offset="0.777344"/><stop stop-opacity="1" stop-color="rgb(24.388123%, 0%, 60.050964%)" offset="0.78125"/><stop stop-opacity="1" stop-color="rgb(24.443054%, 0%, 60.185242%)" offset="0.785156"/><stop stop-opacity="1" stop-color="rgb(24.497986%, 0%, 60.317993%)" offset="0.789062"/><stop stop-opacity="1" stop-color="rgb(24.552917%, 0%, 60.450745%)" offset="0.792969"/><stop stop-opacity="1" stop-color="rgb(24.607849%, 0%, 60.585022%)" offset="0.796875"/><stop stop-opacity="1" stop-color="rgb(24.664307%, 0%, 60.717773%)" offset="0.800781"/><stop stop-opacity="1" stop-color="rgb(24.719238%, 0%, 60.852051%)" offset="0.804688"/><stop stop-opacity="1" stop-color="rgb(24.77417%, 0%, 60.984802%)" offset="0.808594"/><stop stop-opacity="1" stop-color="rgb(24.829102%, 0%, 61.117554%)" offset="0.8125"/><stop stop-opacity="1" stop-color="rgb(24.911499%, 0%, 61.317444%)" offset="0.816406"/><stop stop-opacity="1" stop-color="rgb(25.022888%, 0%, 61.584473%)" offset="0.824219"/><stop stop-opacity="1" stop-color="rgb(25.132751%, 0%, 61.851501%)" offset="0.832031"/><stop stop-opacity="1" stop-color="rgb(25.242615%, 0%, 62.117004%)" offset="0.839844"/><stop stop-opacity="1" stop-color="rgb(25.352478%, 0%, 62.384033%)" offset="0.847656"/><stop stop-opacity="1" stop-color="rgb(25.463867%, 0%, 62.651062%)" offset="0.855469"/><stop stop-opacity="1" stop-color="rgb(25.57373%, 0%, 62.916565%)" offset="0.863281"/><stop stop-opacity="1" stop-color="rgb(25.683594%, 0%, 63.183594%)" offset="0.871094"/><stop stop-opacity="1" stop-color="rgb(25.767517%, 0%, 63.383484%)" offset="0.878906"/><stop stop-opacity="1" stop-color="rgb(25.822449%, 0%, 63.516235%)" offset="0.882812"/><stop stop-opacity="1" stop-color="rgb(25.87738%, 0%, 63.650513%)" offset="0.886719"/><stop stop-opacity="1" stop-color="rgb(25.932312%, 0%, 63.783264%)" offset="0.890625"/><stop stop-opacity="1" stop-color="rgb(25.987244%, 0%, 63.917542%)" offset="0.894531"/><stop stop-opacity="1" stop-color="rgb(26.042175%, 0%, 64.050293%)" offset="0.898438"/><stop stop-opacity="1" stop-color="rgb(26.097107%, 0%, 64.183044%)" offset="0.902344"/><stop stop-opacity="1" stop-color="rgb(26.153564%, 0%, 64.317322%)" offset="0.90625"/><stop stop-opacity="1" stop-color="rgb(26.235962%, 0%, 64.517212%)" offset="0.910156"/><stop stop-opacity="1" stop-color="rgb(26.345825%, 0%, 64.782715%)" offset="0.917969"/><stop stop-opacity="1" stop-color="rgb(26.455688%, 0%, 65.049744%)" offset="0.925781"/><stop stop-opacity="1" stop-color="rgb(26.567078%, 0%, 65.316772%)" offset="0.933594"/><stop stop-opacity="1" stop-color="rgb(26.649475%, 0%, 65.516663%)" offset="0.941406"/><stop stop-opacity="1" stop-color="rgb(26.704407%, 0%, 65.649414%)" offset="0.945312"/><stop stop-opacity="1" stop-color="rgb(26.759338%, 0%, 65.782166%)" offset="0.949219"/><stop stop-opacity="1" stop-color="rgb(26.81427%, 0%, 65.916443%)" offset="0.953125"/><stop stop-opacity="1" stop-color="rgb(26.898193%, 0%, 66.116333%)" offset="0.957031"/><stop stop-opacity="1" stop-color="rgb(27.008057%, 0%, 66.381836%)" offset="0.964844"/><stop stop-opacity="1" stop-color="rgb(27.090454%, 0%, 66.581726%)" offset="0.972656"/><stop stop-opacity="1" stop-color="rgb(27.145386%, 0%, 66.716003%)" offset="0.976562"/><stop stop-opacity="1" stop-color="rgb(27.227783%, 0%, 66.915894%)" offset="0.980469"/><stop stop-opacity="1" stop-color="rgb(27.311707%, 0%, 67.115784%)" offset="0.988281"/><stop stop-opacity="1" stop-color="rgb(27.394104%, 0%, 67.315674%)" offset="0.992188"/><stop stop-opacity="1" stop-color="rgb(27.449036%, 0%, 67.449951%)" offset="1"/></radialGradient><clipPath id="ee0155beaa"><rect x="0" width="131" y="0" height="143"/></clipPath><clipPath id="2de8d5de4d"><path d="M 165.917969 122.425781 L 172.152344 122.425781 L 172.152344 155.976562 L 165.917969 155.976562 Z M 165.917969 122.425781 " clip-rule="nonzero"/></clipPath><clipPath id="7b5a7cf14f"><path d="M 169.035156 122.425781 C 170.753906 122.425781 172.152344 123.820312 172.152344 125.542969 L 172.152344 152.855469 C 172.152344 154.578125 170.753906 155.972656 169.035156 155.972656 C 167.3125 155.972656 165.917969 154.578125 165.917969 152.855469 L 165.917969 125.542969 C 165.917969 123.820312 167.3125 122.425781 169.035156 122.425781 Z M 169.035156 122.425781 " clip-rule="nonzero"/></clipPath><clipPath id="542a4ac93c"><path d="M 0.917969 0.425781 L 7.152344 0.425781 L 7.152344 33.976562 L 0.917969 33.976562 Z M 0.917969 0.425781 " clip-rule="nonzero"/></clipPath><clipPath id="b1c0691c6b"><path d="M 4.035156 0.425781 C 5.753906 0.425781 7.152344 1.820312 7.152344 3.542969 L 7.152344 30.855469 C 7.152344 32.578125 5.753906 33.972656 4.035156 33.972656 C 2.3125 33.972656 0.917969 32.578125 0.917969 30.855469 L 0.917969 3.542969 C 0.917969 1.820312 2.3125 0.425781 4.035156 0.425781 Z M 4.035156 0.425781 " clip-rule="nonzero"/></clipPath><clipPath id="a7565184b9"><rect x="0" width="8" y="0" height="34"/></clipPath><clipPath id="7e3f991a37"><path d="M 183.101562 101.949219 L 189.1875 101.949219 L 189.1875 155.988281 L 183.101562 155.988281 Z M 183.101562 101.949219 " clip-rule="nonzero"/></clipPath><clipPath id="54b1b48d12"><path d="M 186.144531 101.949219 C 186.953125 101.949219 187.726562 102.269531 188.296875 102.84375 C 188.867188 103.414062 189.1875 104.1875 189.1875 104.996094 L 189.1875 152.929688 C 189.1875 153.734375 188.867188 154.507812 188.296875 155.082031 C 187.726562 155.652344 186.953125 155.972656 186.144531 155.972656 C 185.335938 155.972656 184.5625 155.652344 183.992188 155.082031 C 183.421875 154.507812 183.101562 153.734375 183.101562 152.929688 L 183.101562 104.996094 C 183.101562 104.1875 183.421875 103.414062 183.992188 102.84375 C 184.5625 102.269531 185.335938 101.949219 186.144531 101.949219 Z M 186.144531 101.949219 " clip-rule="nonzero"/></clipPath><clipPath id="f8fac46ab7"><path d="M 0.101562 0.949219 L 6.1875 0.949219 L 6.1875 54.988281 L 0.101562 54.988281 Z M 0.101562 0.949219 " clip-rule="nonzero"/></clipPath><clipPath id="3cdb98a0cc"><path d="M 3.144531 0.949219 C 3.953125 0.949219 4.726562 1.269531 5.296875 1.84375 C 5.867188 2.414062 6.1875 3.1875 6.1875 3.996094 L 6.1875 51.929688 C 6.1875 52.734375 5.867188 53.507812 5.296875 54.082031 C 4.726562 54.652344 3.953125 54.972656 3.144531 54.972656 C 2.335938 54.972656 1.5625 54.652344 0.992188 54.082031 C 0.421875 53.507812 0.101562 52.734375 0.101562 51.929688 L 0.101562 3.996094 C 0.101562 3.1875 0.421875 2.414062 0.992188 1.84375 C 1.5625 1.269531 2.335938 0.949219 3.144531 0.949219 Z M 3.144531 0.949219 " clip-rule="nonzero"/></clipPath><clipPath id="ad072fe54b"><rect x="0" width="7" y="0" height="55"/></clipPath><clipPath id="ee1ef9a5fd"><path d="M 200.214844 73.863281 L 206.304688 73.863281 L 206.304688 155.992188 L 200.214844 155.992188 Z M 200.214844 73.863281 " clip-rule="nonzero"/></clipPath><clipPath id="d40c84e291"><path d="M 203.257812 73.863281 C 204.066406 73.863281 204.839844 74.183594 205.410156 74.753906 C 205.984375 75.324219 206.304688 76.101562 206.304688 76.90625 L 206.304688 152.929688 C 206.304688 153.734375 205.984375 154.507812 205.410156 155.082031 C 204.839844 155.652344 204.066406 155.972656 203.257812 155.972656 C 202.453125 155.972656 201.675781 155.652344 201.105469 155.082031 C 200.535156 154.507812 200.214844 153.734375 200.214844 152.929688 L 200.214844 76.90625 C 200.214844 76.101562 200.535156 75.324219 201.105469 74.753906 C 201.675781 74.183594 202.453125 73.863281 203.257812 73.863281 Z M 203.257812 73.863281 " clip-rule="nonzero"/></clipPath><clipPath id="7fcd495da3"><path d="M 0.214844 0.863281 L 6.304688 0.863281 L 6.304688 82.992188 L 0.214844 82.992188 Z M 0.214844 0.863281 " clip-rule="nonzero"/></clipPath><clipPath id="223fca7612"><path d="M 3.257812 0.863281 C 4.066406 0.863281 4.839844 1.183594 5.410156 1.753906 C 5.984375 2.324219 6.304688 3.101562 6.304688 3.90625 L 6.304688 79.929688 C 6.304688 80.734375 5.984375 81.507812 5.410156 82.082031 C 4.839844 82.652344 4.066406 82.972656 3.257812 82.972656 C 2.453125 82.972656 1.675781 82.652344 1.105469 82.082031 C 0.535156 81.507812 0.214844 80.734375 0.214844 79.929688 L 0.214844 3.90625 C 0.214844 3.101562 0.535156 2.324219 1.105469 1.753906 C 1.675781 1.183594 2.453125 0.863281 3.257812 0.863281 Z M 3.257812 0.863281 " clip-rule="nonzero"/></clipPath><clipPath id="68b5b18f8a"><rect x="0" width="7" y="0" height="83"/></clipPath><clipPath id="d6f1450580"><rect x="0" width="375" y="0" height="97"/></clipPath><clipPath id="bd1ab28cf4"><rect x="0" width="344" y="0" height="24"/></clipPath></defs><g clip-path="url(#51b8ad83d7)"><g clip-path="url(#f9c0105154)"><g transform="matrix(1, 0, 0, 1, 122, 45)"><g clip-path="url(#ee0155beaa)"><g clip-path="url(#d2b10b7afe)"><g clip-path="url(#db505fc7db)"><path fill="url(#7418daa945)" d="M 130.800781 142.5 L 130.800781 0.320312 L 0.1875 0.320312 L 0.1875 142.5 Z M 130.800781 142.5 " fill-rule="nonzero"/></g></g></g></g></g></g><g clip-path="url(#2de8d5de4d)"><g clip-path="url(#7b5a7cf14f)"><g transform="matrix(1, 0, 0, 1, 165, 122)"><g clip-path="url(#a7565184b9)"><g clip-path="url(#542a4ac93c)"><g clip-path="url(#b1c0691c6b)"><path fill="#ffffff" d="M 0.917969 0.425781 L 7.152344 0.425781 L 7.152344 33.976562 L 0.917969 33.976562 Z M 0.917969 0.425781 " fill-opacity="1" fill-rule="nonzero"/></g></g></g></g></g></g><g clip-path="url(#7e3f991a37)"><g clip-path="url(#54b1b48d12)"><g transform="matrix(1, 0, 0, 1, 183, 101)"><g clip-path="url(#ad072fe54b)"><g clip-path="url(#f8fac46ab7)"><g clip-path="url(#3cdb98a0cc)"><path fill="#ffffff" d="M 0.101562 0.949219 L 6.1875 0.949219 L 6.1875 54.964844 L 0.101562 54.964844 Z M 0.101562 0.949219 " fill-opacity="1" fill-rule="nonzero"/></g></g></g></g></g></g><g clip-path="url(#ee1ef9a5fd)"><g clip-path="url(#d40c84e291)"><g transform="matrix(1, 0, 0, 1, 200, 73)"><g clip-path="url(#68b5b18f8a)"><g clip-path="url(#7fcd495da3)"><g clip-path="url(#223fca7612)"><path fill="#ffffff" d="M 0.214844 0.863281 L 6.304688 0.863281 L 6.304688 82.96875 L 0.214844 82.96875 Z M 0.214844 0.863281 " fill-opacity="1" fill-rule="nonzero"/></g></g></g></g></g></g><g transform="matrix(1, 0, 0, 1, 0, 173)"><g clip-path="url(#d6f1450580)"><g fill="#ffffff" fill-opacity="1"><g transform="translate(-3.89657, 76.693552)"><g><path d="M 10.484375 0 C 9.066406 0 7.914062 -0.441406 7.03125 -1.328125 C 6.144531 -2.210938 5.703125 -3.316406 5.703125 -4.640625 L 5.703125 -48.546875 C 5.703125 -49.867188 6.144531 -50.972656 7.03125 -51.859375 C 7.914062 -52.742188 9.015625 -53.1875 10.328125 -53.1875 L 35.03125 -53.1875 C 36.34375 -53.1875 37.441406 -52.769531 38.328125 -51.9375 C 39.210938 -51.101562 39.65625 -50.023438 39.65625 -48.703125 C 39.65625 -47.585938 39.210938 -46.597656 38.328125 -45.734375 C 37.441406 -44.878906 36.34375 -44.453125 35.03125 -44.453125 L 14.515625 -44.453125 L 15.203125 -45.359375 L 15.203125 -30.09375 L 14.671875 -31.078125 L 31.609375 -31.078125 C 32.921875 -31.078125 34.019531 -30.65625 34.90625 -29.8125 C 35.800781 -28.976562 36.25 -27.90625 36.25 -26.59375 C 36.25 -25.476562 35.800781 -24.488281 34.90625 -23.625 C 34.019531 -22.769531 32.921875 -22.34375 31.609375 -22.34375 L 14.515625 -22.34375 L 15.203125 -23.015625 L 15.203125 -4.640625 C 15.203125 -3.316406 14.734375 -2.210938 13.796875 -1.328125 C 12.859375 -0.441406 11.753906 0 10.484375 0 Z M 10.484375 0 "/></g></g></g><g fill="#ffffff" fill-opacity="1"><g transform="translate(38.802656, 76.693552)"><g><path d="M 14.8125 -4.640625 C 14.8125 -3.316406 14.367188 -2.210938 13.484375 -1.328125 C 12.597656 -0.441406 11.5 0 10.1875 0 C 8.914062 0 7.847656 -0.441406 6.984375 -1.328125 C 6.128906 -2.210938 5.703125 -3.316406 5.703125 -4.640625 L 5.703125 -51.59375 C 5.703125 -52.90625 6.144531 -54.003906 7.03125 -54.890625 C 7.914062 -55.785156 9.015625 -56.234375 10.328125 -56.234375 C 11.648438 -56.234375 12.726562 -55.785156 13.5625 -54.890625 C 14.394531 -54.003906 14.8125 -52.90625 14.8125 -51.59375 Z M 14.8125 -4.640625 "/></g></g></g><g fill="#ffffff" fill-opacity="1"><g transform="translate(58.936603, 76.693552)"><g><path d="M 35.109375 -40.65625 C 36.421875 -40.65625 37.503906 -40.210938 38.359375 -39.328125 C 39.222656 -38.441406 39.65625 -37.335938 39.65625 -36.015625 L 39.65625 -16.71875 C 39.65625 -11.34375 38.160156 -7.082031 35.171875 -3.9375 C 32.191406 -0.800781 27.890625 0.765625 22.265625 0.765625 C 16.640625 0.765625 12.34375 -0.800781 9.375 -3.9375 C 6.414062 -7.082031 4.9375 -11.34375 4.9375 -16.71875 L 4.9375 -36.015625 C 4.9375 -37.335938 5.363281 -38.441406 6.21875 -39.328125 C 7.082031 -40.210938 8.175781 -40.65625 9.5 -40.65625 C 10.8125 -40.65625 11.898438 -40.210938 12.765625 -39.328125 C 13.628906 -38.441406 14.0625 -37.335938 14.0625 -36.015625 L 14.0625 -16.71875 C 14.0625 -13.625 14.742188 -11.328125 16.109375 -9.828125 C 17.472656 -8.335938 19.523438 -7.59375 22.265625 -7.59375 C 25.046875 -7.59375 27.117188 -8.335938 28.484375 -9.828125 C 29.859375 -11.328125 30.546875 -13.625 30.546875 -16.71875 L 30.546875 -36.015625 C 30.546875 -37.335938 30.972656 -38.441406 31.828125 -39.328125 C 32.691406 -40.210938 33.785156 -40.65625 35.109375 -40.65625 Z M 35.109375 -40.65625 "/></g></g></g><g fill="#ffffff" fill-opacity="1"><g transform="translate(103.535262, 76.693552)"><g><path d="M 5.78125 -40.65625 C 7.25 -40.65625 8.488281 -40.019531 9.5 -38.75 L 34.875 -7.21875 C 35.53125 -6.40625 35.859375 -5.492188 35.859375 -4.484375 C 35.859375 -3.210938 35.378906 -2.117188 34.421875 -1.203125 C 33.460938 -0.296875 32.398438 0.15625 31.234375 0.15625 C 29.765625 0.15625 28.519531 -0.503906 27.5 -1.828125 L 2.125 -33.359375 C 1.46875 -34.171875 1.140625 -35.082031 1.140625 -36.09375 C 1.140625 -37.40625 1.609375 -38.492188 2.546875 -39.359375 C 3.484375 -40.222656 4.5625 -40.65625 5.78125 -40.65625 Z M 5.84375 0.078125 C 4.832031 0.078125 3.832031 -0.3125 2.84375 -1.09375 C 1.863281 -1.882812 1.375 -2.835938 1.375 -3.953125 C 1.375 -4.960938 1.75 -5.925781 2.5 -6.84375 L 14.140625 -21.046875 L 18.6875 -13.453125 L 9.5 -1.828125 C 8.53125 -0.554688 7.3125 0.078125 5.84375 0.078125 Z M 31.15625 -40.65625 C 32.375 -40.65625 33.398438 -40.234375 34.234375 -39.390625 C 35.066406 -38.554688 35.484375 -37.609375 35.484375 -36.546875 C 35.484375 -36.035156 35.40625 -35.523438 35.25 -35.015625 C 35.101562 -34.515625 34.828125 -34.035156 34.421875 -33.578125 L 22.953125 -19.609375 L 18.15625 -26.21875 L 27.5 -38.59375 C 28.519531 -39.96875 29.738281 -40.65625 31.15625 -40.65625 Z M 31.15625 -40.65625 "/></g></g></g><g fill="#ffffff" fill-opacity="1"><g transform="translate(140.541688, 76.693552)"><g><path d="M 9.421875 -53.1875 C 9.773438 -53.1875 10.140625 -53.109375 10.515625 -52.953125 C 10.898438 -52.804688 11.21875 -52.554688 11.46875 -52.203125 L 32.453125 -20.75 L 30.390625 -20.8125 L 51.4375 -52.203125 C 52 -52.960938 52.6875 -53.289062 53.5 -53.1875 C 54.101562 -53.1875 54.617188 -52.96875 55.046875 -52.53125 C 55.484375 -52.101562 55.703125 -51.5625 55.703125 -50.90625 L 55.703125 -2.28125 C 55.703125 -1.675781 55.472656 -1.144531 55.015625 -0.6875 C 54.554688 -0.226562 54 0 53.34375 0 C 52.632812 0 52.050781 -0.226562 51.59375 -0.6875 C 51.132812 -1.144531 50.90625 -1.675781 50.90625 -2.28125 L 50.90625 -46.28125 L 52.28125 -46.125 L 33.046875 -17.015625 C 32.898438 -16.710938 32.671875 -16.472656 32.359375 -16.296875 C 32.054688 -16.117188 31.707031 -16.054688 31.3125 -16.109375 C 30.957031 -16.054688 30.613281 -16.117188 30.28125 -16.296875 C 29.945312 -16.472656 29.679688 -16.710938 29.484375 -17.015625 L 10.1875 -46.421875 L 11.625 -47.421875 L 11.625 -2.28125 C 11.625 -1.675781 11.40625 -1.144531 10.96875 -0.6875 C 10.539062 -0.226562 10 0 9.34375 0 C 8.6875 0 8.15625 -0.226562 7.75 -0.6875 C 7.34375 -1.144531 7.140625 -1.675781 7.140625 -2.28125 L 7.140625 -50.90625 C 7.140625 -51.519531 7.351562 -52.050781 7.78125 -52.5 C 8.21875 -52.957031 8.765625 -53.1875 9.421875 -53.1875 Z M 9.421875 -53.1875 "/></g></g></g><g fill="#ffffff" fill-opacity="1"><g transform="translate(203.37489, 76.693552)"><g><path d="M 42.171875 -19.453125 C 42.171875 -15.597656 41.332031 -12.140625 39.65625 -9.078125 C 37.988281 -6.015625 35.710938 -3.609375 32.828125 -1.859375 C 29.941406 -0.109375 26.648438 0.765625 22.953125 0.765625 C 19.347656 0.765625 16.085938 -0.109375 13.171875 -1.859375 C 10.265625 -3.609375 7.960938 -6.015625 6.265625 -9.078125 C 4.566406 -12.140625 3.71875 -15.597656 3.71875 -19.453125 C 3.71875 -23.347656 4.566406 -26.816406 6.265625 -29.859375 C 7.960938 -32.898438 10.265625 -35.304688 13.171875 -37.078125 C 16.085938 -38.847656 19.347656 -39.734375 22.953125 -39.734375 C 26.648438 -39.734375 29.941406 -38.847656 32.828125 -37.078125 C 35.710938 -35.304688 37.988281 -32.898438 39.65625 -29.859375 C 41.332031 -26.816406 42.171875 -23.347656 42.171875 -19.453125 Z M 37.609375 -19.453125 C 37.609375 -22.546875 36.972656 -25.296875 35.703125 -27.703125 C 34.441406 -30.109375 32.707031 -32.003906 30.5 -33.390625 C 28.300781 -34.785156 25.785156 -35.484375 22.953125 -35.484375 C 20.210938 -35.484375 17.726562 -34.785156 15.5 -33.390625 C 13.269531 -32.003906 11.507812 -30.109375 10.21875 -27.703125 C 8.925781 -25.296875 8.28125 -22.546875 8.28125 -19.453125 C 8.28125 -16.359375 8.925781 -13.617188 10.21875 -11.234375 C 11.507812 -8.859375 13.269531 -6.972656 15.5 -5.578125 C 17.726562 -4.191406 20.210938 -3.5 22.953125 -3.5 C 25.785156 -3.5 28.300781 -4.191406 30.5 -5.578125 C 32.707031 -6.972656 34.441406 -8.859375 35.703125 -11.234375 C 36.972656 -13.617188 37.609375 -16.359375 37.609375 -19.453125 Z M 37.609375 -19.453125 "/></g></g></g><g fill="#ffffff" fill-opacity="1"><g transform="translate(249.265158, 76.693552)"><g><path d="M 24.3125 -39.734375 C 27.65625 -39.734375 30.328125 -39.0625 32.328125 -37.71875 C 34.328125 -36.382812 35.769531 -34.5625 36.65625 -32.25 C 37.550781 -29.945312 38 -27.40625 38 -24.625 L 38 -2.28125 C 38 -1.675781 37.769531 -1.144531 37.3125 -0.6875 C 36.851562 -0.226562 36.320312 0 35.71875 0 C 35.007812 0 34.453125 -0.226562 34.046875 -0.6875 C 33.640625 -1.144531 33.4375 -1.675781 33.4375 -2.28125 L 33.4375 -24.390625 C 33.4375 -26.421875 33.101562 -28.269531 32.4375 -29.9375 C 31.78125 -31.613281 30.703125 -32.957031 29.203125 -33.96875 C 27.710938 -34.976562 25.753906 -35.484375 23.328125 -35.484375 C 21.148438 -35.484375 19.082031 -34.976562 17.125 -33.96875 C 15.175781 -32.957031 13.59375 -31.613281 12.375 -29.9375 C 11.164062 -28.269531 10.5625 -26.421875 10.5625 -24.390625 L 10.5625 -2.28125 C 10.5625 -1.675781 10.332031 -1.144531 9.875 -0.6875 C 9.414062 -0.226562 8.882812 0 8.28125 0 C 7.570312 0 7.015625 -0.226562 6.609375 -0.6875 C 6.203125 -1.144531 6 -1.675781 6 -2.28125 L 6 -36.328125 C 6 -36.929688 6.210938 -37.457031 6.640625 -37.90625 C 7.078125 -38.363281 7.625 -38.59375 8.28125 -38.59375 C 8.9375 -38.59375 9.476562 -38.363281 9.90625 -37.90625 C 10.34375 -37.457031 10.5625 -36.929688 10.5625 -36.328125 L 10.5625 -29.9375 L 8.8125 -27.203125 C 8.914062 -28.828125 9.4375 -30.382812 10.375 -31.875 C 11.3125 -33.363281 12.515625 -34.703125 13.984375 -35.890625 C 15.453125 -37.085938 17.082031 -38.023438 18.875 -38.703125 C 20.675781 -39.390625 22.488281 -39.734375 24.3125 -39.734375 Z M 24.3125 -39.734375 "/></g></g></g><g fill="#ffffff" fill-opacity="1"><g transform="translate(293.180023, 76.693552)"><g><path d="M 23.5625 0.765625 C 19.65625 0.765625 16.207031 -0.0664062 13.21875 -1.734375 C 10.226562 -3.410156 7.894531 -5.742188 6.21875 -8.734375 C 4.550781 -11.722656 3.71875 -15.21875 3.71875 -19.21875 C 3.71875 -23.53125 4.566406 -27.203125 6.265625 -30.234375 C 7.960938 -33.273438 10.164062 -35.617188 12.875 -37.265625 C 15.582031 -38.910156 18.457031 -39.734375 21.5 -39.734375 C 23.726562 -39.734375 25.894531 -39.34375 28 -38.5625 C 30.101562 -37.78125 31.976562 -36.613281 33.625 -35.0625 C 35.269531 -33.519531 36.585938 -31.632812 37.578125 -29.40625 C 38.566406 -27.175781 39.109375 -24.59375 39.203125 -21.65625 C 39.148438 -21.050781 38.894531 -20.53125 38.4375 -20.09375 C 37.988281 -19.664062 37.460938 -19.453125 36.859375 -19.453125 L 6.375 -19.453125 L 5.46875 -23.5625 L 35.40625 -23.5625 L 34.421875 -22.640625 L 34.421875 -24.15625 C 34.210938 -26.539062 33.453125 -28.566406 32.140625 -30.234375 C 30.828125 -31.910156 29.234375 -33.175781 27.359375 -34.03125 C 25.484375 -34.894531 23.53125 -35.328125 21.5 -35.328125 C 19.976562 -35.328125 18.421875 -35.023438 16.828125 -34.421875 C 15.234375 -33.816406 13.789062 -32.867188 12.5 -31.578125 C 11.207031 -30.285156 10.15625 -28.632812 9.34375 -26.625 C 8.53125 -24.625 8.125 -22.257812 8.125 -19.53125 C 8.125 -16.539062 8.734375 -13.828125 9.953125 -11.390625 C 11.171875 -8.960938 12.929688 -7.039062 15.234375 -5.625 C 17.535156 -4.207031 20.285156 -3.5 23.484375 -3.5 C 25.253906 -3.5 26.847656 -3.75 28.265625 -4.25 C 29.679688 -4.757812 30.921875 -5.429688 31.984375 -6.265625 C 33.046875 -7.097656 33.9375 -7.972656 34.65625 -8.890625 C 35.207031 -9.347656 35.765625 -9.578125 36.328125 -9.578125 C 36.828125 -9.578125 37.265625 -9.375 37.640625 -8.96875 C 38.023438 -8.5625 38.21875 -8.101562 38.21875 -7.59375 C 38.21875 -6.988281 37.960938 -6.457031 37.453125 -6 C 35.941406 -4.175781 33.96875 -2.59375 31.53125 -1.25 C 29.101562 0.09375 26.445312 0.765625 23.5625 0.765625 Z M 23.5625 0.765625 "/></g></g></g><g fill="#ffffff" fill-opacity="1"><g transform="translate(335.727264, 76.693552)"><g><path d="M 34.953125 -39.515625 C 35.609375 -39.515625 36.148438 -39.285156 36.578125 -38.828125 C 37.015625 -38.367188 37.234375 -37.835938 37.234375 -37.234375 L 37.234375 -3.71875 C 37.234375 0.382812 36.421875 3.835938 34.796875 6.640625 C 33.179688 9.453125 31.003906 11.582031 28.265625 13.03125 C 25.523438 14.476562 22.410156 15.203125 18.921875 15.203125 C 16.742188 15.203125 14.726562 14.957031 12.875 14.46875 C 11.03125 13.988281 9.523438 13.367188 8.359375 12.609375 C 7.753906 12.253906 7.296875 11.820312 6.984375 11.3125 C 6.679688 10.8125 6.660156 10.28125 6.921875 9.71875 C 7.171875 9.007812 7.5625 8.539062 8.09375 8.3125 C 8.625 8.09375 9.164062 8.109375 9.71875 8.359375 C 10.582031 8.816406 11.820312 9.375 13.4375 10.03125 C 15.0625 10.6875 16.914062 11.015625 19 11.015625 C 21.78125 11.015625 24.195312 10.429688 26.25 9.265625 C 28.300781 8.097656 29.882812 6.410156 31 4.203125 C 32.113281 2.003906 32.671875 -0.609375 32.671875 -3.640625 L 32.671875 -9.125 L 33.203125 -7.296875 C 32.441406 -5.722656 31.363281 -4.328125 29.96875 -3.109375 C 28.582031 -1.898438 26.988281 -0.953125 25.1875 -0.265625 C 23.382812 0.421875 21.472656 0.765625 19.453125 0.765625 C 16.410156 0.765625 13.890625 0.144531 11.890625 -1.09375 C 9.890625 -2.34375 8.40625 -4.054688 7.4375 -6.234375 C 6.476562 -8.410156 6 -10.96875 6 -13.90625 L 6 -37.234375 C 6 -37.835938 6.203125 -38.367188 6.609375 -38.828125 C 7.015625 -39.285156 7.570312 -39.515625 8.28125 -39.515625 C 8.9375 -39.515625 9.476562 -39.285156 9.90625 -38.828125 C 10.34375 -38.367188 10.5625 -37.835938 10.5625 -37.234375 L 10.5625 -14.59375 C 10.5625 -11.039062 11.332031 -8.300781 12.875 -6.375 C 14.425781 -4.457031 16.945312 -3.5 20.4375 -3.5 C 22.613281 -3.5 24.613281 -4.015625 26.4375 -5.046875 C 28.257812 -6.085938 29.753906 -7.457031 30.921875 -9.15625 C 32.085938 -10.851562 32.671875 -12.664062 32.671875 -14.59375 L 32.671875 -37.234375 C 32.671875 -37.835938 32.882812 -38.367188 33.3125 -38.828125 C 33.75 -39.285156 34.296875 -39.515625 34.953125 -39.515625 Z M 34.953125 -39.515625 "/></g></g></g></g></g><g transform="matrix(1, 0, 0, 1, 0, 251)"><g clip-path="url(#bd1ab28cf4)"><g fill="#ffffff" fill-opacity="1"><g transform="translate(-0.321209, 18.603271)"><g><path d="M 4.953125 0.1875 C 3.742188 0.1875 2.757812 -0.164062 2 -0.875 C 1.238281 -1.59375 0.859375 -2.609375 0.859375 -3.921875 L 0.859375 -4.65625 L 2.59375 -4.65625 L 2.59375 -3.921875 C 2.59375 -3.078125 2.804688 -2.429688 3.234375 -1.984375 C 3.671875 -1.546875 4.242188 -1.328125 4.953125 -1.328125 C 5.660156 -1.328125 6.226562 -1.546875 6.65625 -1.984375 C 7.09375 -2.429688 7.3125 -3.078125 7.3125 -3.921875 L 7.3125 -13.703125 L 9.03125 -13.703125 L 9.03125 -3.921875 C 9.03125 -2.609375 8.648438 -1.59375 7.890625 -0.875 C 7.140625 -0.164062 6.160156 0.1875 4.953125 0.1875 Z M 4.953125 0.1875 "/></g></g></g><g fill="#ffffff" fill-opacity="1"><g transform="translate(11.512298, 18.603271)"><g><path d="M 5.640625 0.21875 C 4.660156 0.21875 3.8125 0 3.09375 -0.4375 C 2.382812 -0.882812 1.835938 -1.5 1.453125 -2.28125 C 1.078125 -3.0625 0.890625 -3.972656 0.890625 -5.015625 C 0.890625 -6.046875 1.078125 -6.960938 1.453125 -7.765625 C 1.835938 -8.566406 2.375 -9.191406 3.0625 -9.640625 C 3.75 -10.085938 4.550781 -10.3125 5.46875 -10.3125 C 6.039062 -10.3125 6.59375 -10.210938 7.125 -10.015625 C 7.664062 -9.816406 8.144531 -9.507812 8.5625 -9.09375 C 8.988281 -8.6875 9.320312 -8.15625 9.5625 -7.5 C 9.8125 -6.851562 9.9375 -6.082031 9.9375 -5.1875 L 9.9375 -4.546875 L 1.953125 -4.546875 L 1.953125 -5.921875 L 9.046875 -5.921875 L 8.296875 -5.421875 C 8.296875 -6.097656 8.1875 -6.691406 7.96875 -7.203125 C 7.75 -7.722656 7.429688 -8.125 7.015625 -8.40625 C 6.597656 -8.695312 6.082031 -8.84375 5.46875 -8.84375 C 4.851562 -8.84375 4.328125 -8.695312 3.890625 -8.40625 C 3.453125 -8.113281 3.117188 -7.722656 2.890625 -7.234375 C 2.660156 -6.742188 2.546875 -6.207031 2.546875 -5.625 L 2.546875 -4.765625 C 2.546875 -4.023438 2.671875 -3.390625 2.921875 -2.859375 C 3.171875 -2.328125 3.53125 -1.921875 4 -1.640625 C 4.476562 -1.367188 5.03125 -1.234375 5.65625 -1.234375 C 6.070312 -1.234375 6.445312 -1.296875 6.78125 -1.421875 C 7.113281 -1.546875 7.398438 -1.726562 7.640625 -1.96875 C 7.878906 -2.207031 8.0625 -2.503906 8.1875 -2.859375 L 9.765625 -2.5 C 9.617188 -1.96875 9.351562 -1.492188 8.96875 -1.078125 C 8.59375 -0.671875 8.117188 -0.351562 7.546875 -0.125 C 6.984375 0.101562 6.347656 0.21875 5.640625 0.21875 Z M 5.640625 0.21875 "/></g></g></g><g fill="#ffffff" fill-opacity="1"><g transform="translate(23.529811, 18.603271)"><g><path d="M 1.390625 0 L 1.390625 -10.15625 L 3.03125 -10.15625 L 3.03125 0 Z M 2.21875 -11.890625 C 1.90625 -11.890625 1.632812 -11.992188 1.40625 -12.203125 C 1.1875 -12.421875 1.078125 -12.679688 1.078125 -12.984375 C 1.078125 -13.285156 1.1875 -13.539062 1.40625 -13.75 C 1.632812 -13.957031 1.90625 -14.0625 2.21875 -14.0625 C 2.53125 -14.0625 2.796875 -13.957031 3.015625 -13.75 C 3.242188 -13.539062 3.359375 -13.285156 3.359375 -12.984375 C 3.359375 -12.679688 3.242188 -12.421875 3.015625 -12.203125 C 2.796875 -11.992188 2.53125 -11.890625 2.21875 -11.890625 Z M 2.21875 -11.890625 "/></g></g></g><g fill="#ffffff" fill-opacity="1"><g transform="translate(29.208359, 18.603271)"><g><path d="M 5.484375 -10.15625 L 5.484375 -8.765625 L 0.171875 -8.765625 L 0.171875 -10.15625 Z M 1.75 -12.65625 L 3.390625 -12.65625 L 3.390625 -2.59375 C 3.390625 -2.15625 3.476562 -1.835938 3.65625 -1.640625 C 3.84375 -1.441406 4.148438 -1.34375 4.578125 -1.34375 C 4.691406 -1.34375 4.828125 -1.351562 4.984375 -1.375 C 5.148438 -1.394531 5.300781 -1.410156 5.4375 -1.421875 L 5.703125 -0.046875 C 5.535156 0.00390625 5.34375 0.0390625 5.125 0.0625 C 4.914062 0.0820312 4.710938 0.09375 4.515625 0.09375 C 3.628906 0.09375 2.945312 -0.125 2.46875 -0.5625 C 1.988281 -1.007812 1.75 -1.644531 1.75 -2.46875 Z M 1.75 -12.65625 "/></g></g></g><g fill="#ffffff" fill-opacity="1"><g transform="translate(36.349641, 18.603271)"><g><path d="M 5.53125 0.21875 C 4.613281 0.21875 3.804688 0 3.109375 -0.4375 C 2.410156 -0.875 1.863281 -1.488281 1.46875 -2.28125 C 1.082031 -3.070312 0.890625 -3.988281 0.890625 -5.03125 C 0.890625 -6.082031 1.082031 -7.003906 1.46875 -7.796875 C 1.863281 -8.585938 2.410156 -9.203125 3.109375 -9.640625 C 3.804688 -10.085938 4.613281 -10.3125 5.53125 -10.3125 C 6.457031 -10.3125 7.269531 -10.085938 7.96875 -9.640625 C 8.675781 -9.203125 9.222656 -8.585938 9.609375 -7.796875 C 9.992188 -7.003906 10.1875 -6.082031 10.1875 -5.03125 C 10.1875 -3.988281 9.992188 -3.070312 9.609375 -2.28125 C 9.222656 -1.488281 8.675781 -0.875 7.96875 -0.4375 C 7.269531 0 6.457031 0.21875 5.53125 0.21875 Z M 5.53125 -1.234375 C 6.207031 -1.234375 6.769531 -1.40625 7.21875 -1.75 C 7.664062 -2.09375 7.992188 -2.550781 8.203125 -3.125 C 8.421875 -3.707031 8.53125 -4.34375 8.53125 -5.03125 C 8.53125 -5.71875 8.421875 -6.347656 8.203125 -6.921875 C 7.992188 -7.503906 7.664062 -7.96875 7.21875 -8.3125 C 6.769531 -8.664062 6.207031 -8.84375 5.53125 -8.84375 C 4.863281 -8.84375 4.3125 -8.664062 3.875 -8.3125 C 3.4375 -7.96875 3.101562 -7.507812 2.875 -6.9375 C 2.65625 -6.363281 2.546875 -5.726562 2.546875 -5.03125 C 2.546875 -4.34375 2.65625 -3.707031 2.875 -3.125 C 3.101562 -2.550781 3.4375 -2.09375 3.875 -1.75 C 4.3125 -1.40625 4.863281 -1.234375 5.53125 -1.234375 Z M 5.53125 -1.234375 "/></g></g></g><g fill="#ffffff" fill-opacity="1"><g transform="translate(48.661563, 18.603271)"><g/></g></g><g fill="#ffffff" fill-opacity="1"><g transform="translate(55.057708, 18.603271)"><g><path d="M 4.859375 0.21875 C 4.160156 0.21875 3.535156 0.113281 2.984375 -0.09375 C 2.429688 -0.300781 1.972656 -0.613281 1.609375 -1.03125 C 1.253906 -1.457031 1.023438 -1.972656 0.921875 -2.578125 L 2.5 -2.875 C 2.625 -2.3125 2.882812 -1.890625 3.28125 -1.609375 C 3.6875 -1.335938 4.207031 -1.203125 4.84375 -1.203125 C 5.539062 -1.203125 6.097656 -1.351562 6.515625 -1.65625 C 6.941406 -1.957031 7.15625 -2.320312 7.15625 -2.75 C 7.15625 -3.101562 7.023438 -3.394531 6.765625 -3.625 C 6.515625 -3.863281 6.144531 -4.039062 5.65625 -4.15625 L 3.96875 -4.546875 C 3.039062 -4.765625 2.347656 -5.101562 1.890625 -5.5625 C 1.441406 -6.03125 1.21875 -6.625 1.21875 -7.34375 C 1.21875 -7.925781 1.378906 -8.4375 1.703125 -8.875 C 2.023438 -9.320312 2.46875 -9.671875 3.03125 -9.921875 C 3.601562 -10.179688 4.25 -10.3125 4.96875 -10.3125 C 5.664062 -10.3125 6.265625 -10.195312 6.765625 -9.96875 C 7.273438 -9.75 7.679688 -9.441406 7.984375 -9.046875 C 8.296875 -8.660156 8.515625 -8.207031 8.640625 -7.6875 L 7.140625 -7.390625 C 7.023438 -7.785156 6.796875 -8.140625 6.453125 -8.453125 C 6.117188 -8.765625 5.628906 -8.921875 4.984375 -8.921875 C 4.367188 -8.921875 3.863281 -8.773438 3.46875 -8.484375 C 3.070312 -8.203125 2.875 -7.847656 2.875 -7.421875 C 2.875 -7.046875 3.007812 -6.742188 3.28125 -6.515625 C 3.5625 -6.285156 3.984375 -6.101562 4.546875 -5.96875 L 6.109375 -5.609375 C 7.046875 -5.378906 7.734375 -5.035156 8.171875 -4.578125 C 8.617188 -4.128906 8.84375 -3.550781 8.84375 -2.84375 C 8.84375 -2.238281 8.671875 -1.707031 8.328125 -1.25 C 7.992188 -0.789062 7.523438 -0.429688 6.921875 -0.171875 C 6.328125 0.0859375 5.640625 0.21875 4.859375 0.21875 Z M 4.859375 0.21875 "/></g></g></g><g fill="#ffffff" fill-opacity="1"><g transform="translate(66.00799, 18.603271)"><g><path d="M 1.390625 0 L 1.390625 -10.15625 L 3.03125 -10.15625 L 3.03125 0 Z M 2.21875 -11.890625 C 1.90625 -11.890625 1.632812 -11.992188 1.40625 -12.203125 C 1.1875 -12.421875 1.078125 -12.679688 1.078125 -12.984375 C 1.078125 -13.285156 1.1875 -13.539062 1.40625 -13.75 C 1.632812 -13.957031 1.90625 -14.0625 2.21875 -14.0625 C 2.53125 -14.0625 2.796875 -13.957031 3.015625 -13.75 C 3.242188 -13.539062 3.359375 -13.285156 3.359375 -12.984375 C 3.359375 -12.679688 3.242188 -12.421875 3.015625 -12.203125 C 2.796875 -11.992188 2.53125 -11.890625 2.21875 -11.890625 Z M 2.21875 -11.890625 "/></g></g></g><g fill="#ffffff" fill-opacity="1"><g transform="translate(71.649714, 18.603271)"><g><path d="M 1.390625 0 L 1.390625 -10.15625 L 2.984375 -10.15625 L 2.984375 -7.9375 L 2.84375 -7.9375 C 3 -8.46875 3.226562 -8.910156 3.53125 -9.265625 C 3.832031 -9.628906 4.1875 -9.898438 4.59375 -10.078125 C 5 -10.253906 5.425781 -10.34375 5.875 -10.34375 C 6.625 -10.34375 7.234375 -10.113281 7.703125 -9.65625 C 8.179688 -9.207031 8.488281 -8.625 8.625 -7.90625 L 8.375 -7.90625 C 8.507812 -8.40625 8.734375 -8.835938 9.046875 -9.203125 C 9.367188 -9.566406 9.757812 -9.847656 10.21875 -10.046875 C 10.675781 -10.242188 11.175781 -10.34375 11.71875 -10.34375 C 12.3125 -10.34375 12.851562 -10.210938 13.34375 -9.953125 C 13.84375 -9.691406 14.234375 -9.300781 14.515625 -8.78125 C 14.804688 -8.257812 14.953125 -7.601562 14.953125 -6.8125 L 14.953125 0 L 13.328125 0 L 13.328125 -6.765625 C 13.328125 -7.515625 13.117188 -8.046875 12.703125 -8.359375 C 12.285156 -8.679688 11.800781 -8.84375 11.25 -8.84375 C 10.78125 -8.84375 10.378906 -8.742188 10.046875 -8.546875 C 9.710938 -8.359375 9.453125 -8.09375 9.265625 -7.75 C 9.078125 -7.414062 8.984375 -7.03125 8.984375 -6.59375 L 8.984375 0 L 7.359375 0 L 7.359375 -6.9375 C 7.359375 -7.507812 7.164062 -7.96875 6.78125 -8.3125 C 6.394531 -8.664062 5.914062 -8.84375 5.34375 -8.84375 C 4.9375 -8.84375 4.554688 -8.75 4.203125 -8.5625 C 3.847656 -8.382812 3.5625 -8.109375 3.34375 -7.734375 C 3.132812 -7.359375 3.03125 -6.898438 3.03125 -6.359375 L 3.03125 0 Z M 1.390625 0 "/></g></g></g><g fill="#ffffff" fill-opacity="1"><g transform="translate(89.224187, 18.603271)"><g><path d="M 1.390625 3.84375 L 1.390625 -10.15625 L 2.96875 -10.15625 L 2.96875 -8.5625 L 3.125 -8.5625 C 3.257812 -8.78125 3.441406 -9.023438 3.671875 -9.296875 C 3.898438 -9.566406 4.210938 -9.800781 4.609375 -10 C 5.003906 -10.207031 5.507812 -10.3125 6.125 -10.3125 C 6.976562 -10.3125 7.726562 -10.09375 8.375 -9.65625 C 9.019531 -9.226562 9.523438 -8.617188 9.890625 -7.828125 C 10.265625 -7.046875 10.453125 -6.125 10.453125 -5.0625 C 10.453125 -3.988281 10.269531 -3.054688 9.90625 -2.265625 C 9.539062 -1.472656 9.035156 -0.859375 8.390625 -0.421875 C 7.742188 0.00390625 6.988281 0.21875 6.125 0.21875 C 5.53125 0.21875 5.035156 0.117188 4.640625 -0.078125 C 4.242188 -0.285156 3.925781 -0.523438 3.6875 -0.796875 C 3.457031 -1.078125 3.269531 -1.332031 3.125 -1.5625 L 3.03125 -1.5625 L 3.03125 3.84375 Z M 5.875 -1.25 C 6.5 -1.25 7.023438 -1.414062 7.453125 -1.75 C 7.890625 -2.082031 8.21875 -2.535156 8.4375 -3.109375 C 8.664062 -3.679688 8.78125 -4.332031 8.78125 -5.0625 C 8.78125 -5.800781 8.671875 -6.453125 8.453125 -7.015625 C 8.234375 -7.578125 7.90625 -8.019531 7.46875 -8.34375 C 7.039062 -8.675781 6.507812 -8.84375 5.875 -8.84375 C 5.25 -8.84375 4.722656 -8.679688 4.296875 -8.359375 C 3.867188 -8.046875 3.539062 -7.609375 3.3125 -7.046875 C 3.09375 -6.484375 2.984375 -5.820312 2.984375 -5.0625 C 2.984375 -4.3125 3.09375 -3.648438 3.3125 -3.078125 C 3.539062 -2.503906 3.867188 -2.054688 4.296875 -1.734375 C 4.734375 -1.410156 5.257812 -1.25 5.875 -1.25 Z M 5.875 -1.25 "/></g></g></g><g fill="#ffffff" fill-opacity="1"><g transform="translate(101.793716, 18.603271)"><g><path d="M 3.03125 -13.703125 L 3.03125 0 L 1.390625 0 L 1.390625 -13.703125 Z M 3.03125 -13.703125 "/></g></g></g><g fill="#ffffff" fill-opacity="1"><g transform="translate(107.435439, 18.603271)"><g><path d="M 5.640625 0.21875 C 4.660156 0.21875 3.8125 0 3.09375 -0.4375 C 2.382812 -0.882812 1.835938 -1.5 1.453125 -2.28125 C 1.078125 -3.0625 0.890625 -3.972656 0.890625 -5.015625 C 0.890625 -6.046875 1.078125 -6.960938 1.453125 -7.765625 C 1.835938 -8.566406 2.375 -9.191406 3.0625 -9.640625 C 3.75 -10.085938 4.550781 -10.3125 5.46875 -10.3125 C 6.039062 -10.3125 6.59375 -10.210938 7.125 -10.015625 C 7.664062 -9.816406 8.144531 -9.507812 8.5625 -9.09375 C 8.988281 -8.6875 9.320312 -8.15625 9.5625 -7.5 C 9.8125 -6.851562 9.9375 -6.082031 9.9375 -5.1875 L 9.9375 -4.546875 L 1.953125 -4.546875 L 1.953125 -5.921875 L 9.046875 -5.921875 L 8.296875 -5.421875 C 8.296875 -6.097656 8.1875 -6.691406 7.96875 -7.203125 C 7.75 -7.722656 7.429688 -8.125 7.015625 -8.40625 C 6.597656 -8.695312 6.082031 -8.84375 5.46875 -8.84375 C 4.851562 -8.84375 4.328125 -8.695312 3.890625 -8.40625 C 3.453125 -8.113281 3.117188 -7.722656 2.890625 -7.234375 C 2.660156 -6.742188 2.546875 -6.207031 2.546875 -5.625 L 2.546875 -4.765625 C 2.546875 -4.023438 2.671875 -3.390625 2.921875 -2.859375 C 3.171875 -2.328125 3.53125 -1.921875 4 -1.640625 C 4.476562 -1.367188 5.03125 -1.234375 5.65625 -1.234375 C 6.070312 -1.234375 6.445312 -1.296875 6.78125 -1.421875 C 7.113281 -1.546875 7.398438 -1.726562 7.640625 -1.96875 C 7.878906 -2.207031 8.0625 -2.503906 8.1875 -2.859375 L 9.765625 -2.5 C 9.617188 -1.96875 9.351562 -1.492188 8.96875 -1.078125 C 8.59375 -0.671875 8.117188 -0.351562 7.546875 -0.125 C 6.984375 0.101562 6.347656 0.21875 5.640625 0.21875 Z M 5.640625 0.21875 "/></g></g></g><g fill="#ffffff" fill-opacity="1"><g transform="translate(119.452952, 18.603271)"><g><path d="M 4.859375 0.21875 C 4.160156 0.21875 3.535156 0.113281 2.984375 -0.09375 C 2.429688 -0.300781 1.972656 -0.613281 1.609375 -1.03125 C 1.253906 -1.457031 1.023438 -1.972656 0.921875 -2.578125 L 2.5 -2.875 C 2.625 -2.3125 2.882812 -1.890625 3.28125 -1.609375 C 3.6875 -1.335938 4.207031 -1.203125 4.84375 -1.203125 C 5.539062 -1.203125 6.097656 -1.351562 6.515625 -1.65625 C 6.941406 -1.957031 7.15625 -2.320312 7.15625 -2.75 C 7.15625 -3.101562 7.023438 -3.394531 6.765625 -3.625 C 6.515625 -3.863281 6.144531 -4.039062 5.65625 -4.15625 L 3.96875 -4.546875 C 3.039062 -4.765625 2.347656 -5.101562 1.890625 -5.5625 C 1.441406 -6.03125 1.21875 -6.625 1.21875 -7.34375 C 1.21875 -7.925781 1.378906 -8.4375 1.703125 -8.875 C 2.023438 -9.320312 2.46875 -9.671875 3.03125 -9.921875 C 3.601562 -10.179688 4.25 -10.3125 4.96875 -10.3125 C 5.664062 -10.3125 6.265625 -10.195312 6.765625 -9.96875 C 7.273438 -9.75 7.679688 -9.441406 7.984375 -9.046875 C 8.296875 -8.660156 8.515625 -8.207031 8.640625 -7.6875 L 7.140625 -7.390625 C 7.023438 -7.785156 6.796875 -8.140625 6.453125 -8.453125 C 6.117188 -8.765625 5.628906 -8.921875 4.984375 -8.921875 C 4.367188 -8.921875 3.863281 -8.773438 3.46875 -8.484375 C 3.070312 -8.203125 2.875 -7.847656 2.875 -7.421875 C 2.875 -7.046875 3.007812 -6.742188 3.28125 -6.515625 C 3.5625 -6.285156 3.984375 -6.101562 4.546875 -5.96875 L 6.109375 -5.609375 C 7.046875 -5.378906 7.734375 -5.035156 8.171875 -4.578125 C 8.617188 -4.128906 8.84375 -3.550781 8.84375 -2.84375 C 8.84375 -2.238281 8.671875 -1.707031 8.328125 -1.25 C 7.992188 -0.789062 7.523438 -0.429688 6.921875 -0.171875 C 6.328125 0.0859375 5.640625 0.21875 4.859375 0.21875 Z M 4.859375 0.21875 "/></g></g></g><g fill="#ffffff" fill-opacity="1"><g transform="translate(130.403235, 18.603271)"><g/></g></g><g fill="#ffffff" fill-opacity="1"><g transform="translate(136.79938, 18.603271)"><g><path d="M 5.21875 0.21875 C 4.363281 0.21875 3.609375 0.00390625 2.953125 -0.421875 C 2.304688 -0.859375 1.800781 -1.472656 1.4375 -2.265625 C 1.070312 -3.054688 0.890625 -3.988281 0.890625 -5.0625 C 0.890625 -6.125 1.070312 -7.046875 1.4375 -7.828125 C 1.800781 -8.617188 2.3125 -9.226562 2.96875 -9.65625 C 3.625 -10.09375 4.375 -10.3125 5.21875 -10.3125 C 5.832031 -10.3125 6.332031 -10.207031 6.71875 -10 C 7.113281 -9.800781 7.425781 -9.566406 7.65625 -9.296875 C 7.894531 -9.023438 8.082031 -8.78125 8.21875 -8.5625 L 8.3125 -8.5625 L 8.3125 -13.703125 L 9.953125 -13.703125 L 9.953125 0 L 8.375 0 L 8.375 -1.5625 L 8.21875 -1.5625 C 8.082031 -1.332031 7.894531 -1.078125 7.65625 -0.796875 C 7.414062 -0.523438 7.097656 -0.285156 6.703125 -0.078125 C 6.316406 0.117188 5.820312 0.21875 5.21875 0.21875 Z M 5.453125 -1.25 C 6.078125 -1.25 6.601562 -1.410156 7.03125 -1.734375 C 7.46875 -2.054688 7.796875 -2.503906 8.015625 -3.078125 C 8.242188 -3.648438 8.359375 -4.3125 8.359375 -5.0625 C 8.359375 -5.820312 8.242188 -6.484375 8.015625 -7.046875 C 7.796875 -7.609375 7.46875 -8.046875 7.03125 -8.359375 C 6.601562 -8.679688 6.078125 -8.84375 5.453125 -8.84375 C 4.828125 -8.84375 4.296875 -8.675781 3.859375 -8.34375 C 3.429688 -8.019531 3.101562 -7.578125 2.875 -7.015625 C 2.65625 -6.453125 2.546875 -5.800781 2.546875 -5.0625 C 2.546875 -4.332031 2.65625 -3.679688 2.875 -3.109375 C 3.101562 -2.535156 3.4375 -2.082031 3.875 -1.75 C 4.3125 -1.414062 4.835938 -1.25 5.453125 -1.25 Z M 5.453125 -1.25 "/></g></g></g><g fill="#ffffff" fill-opacity="1"><g transform="translate(149.368909, 18.603271)"><g><path d="M 5.640625 0.21875 C 4.660156 0.21875 3.8125 0 3.09375 -0.4375 C 2.382812 -0.882812 1.835938 -1.5 1.453125 -2.28125 C 1.078125 -3.0625 0.890625 -3.972656 0.890625 -5.015625 C 0.890625 -6.046875 1.078125 -6.960938 1.453125 -7.765625 C 1.835938 -8.566406 2.375 -9.191406 3.0625 -9.640625 C 3.75 -10.085938 4.550781 -10.3125 5.46875 -10.3125 C 6.039062 -10.3125 6.59375 -10.210938 7.125 -10.015625 C 7.664062 -9.816406 8.144531 -9.507812 8.5625 -9.09375 C 8.988281 -8.6875 9.320312 -8.15625 9.5625 -7.5 C 9.8125 -6.851562 9.9375 -6.082031 9.9375 -5.1875 L 9.9375 -4.546875 L 1.953125 -4.546875 L 1.953125 -5.921875 L 9.046875 -5.921875 L 8.296875 -5.421875 C 8.296875 -6.097656 8.1875 -6.691406 7.96875 -7.203125 C 7.75 -7.722656 7.429688 -8.125 7.015625 -8.40625 C 6.597656 -8.695312 6.082031 -8.84375 5.46875 -8.84375 C 4.851562 -8.84375 4.328125 -8.695312 3.890625 -8.40625 C 3.453125 -8.113281 3.117188 -7.722656 2.890625 -7.234375 C 2.660156 -6.742188 2.546875 -6.207031 2.546875 -5.625 L 2.546875 -4.765625 C 2.546875 -4.023438 2.671875 -3.390625 2.921875 -2.859375 C 3.171875 -2.328125 3.53125 -1.921875 4 -1.640625 C 4.476562 -1.367188 5.03125 -1.234375 5.65625 -1.234375 C 6.070312 -1.234375 6.445312 -1.296875 6.78125 -1.421875 C 7.113281 -1.546875 7.398438 -1.726562 7.640625 -1.96875 C 7.878906 -2.207031 8.0625 -2.503906 8.1875 -2.859375 L 9.765625 -2.5 C 9.617188 -1.96875 9.351562 -1.492188 8.96875 -1.078125 C 8.59375 -0.671875 8.117188 -0.351562 7.546875 -0.125 C 6.984375 0.101562 6.347656 0.21875 5.640625 0.21875 Z M 5.640625 0.21875 "/></g></g></g><g fill="#ffffff" fill-opacity="1"><g transform="translate(161.386422, 18.603271)"><g/></g></g><g fill="#ffffff" fill-opacity="1"><g transform="translate(167.782568, 18.603271)"><g><path d="M 5.53125 4.046875 C 4.78125 4.046875 4.125 3.945312 3.5625 3.75 C 3 3.550781 2.53125 3.273438 2.15625 2.921875 C 1.789062 2.578125 1.515625 2.1875 1.328125 1.75 L 2.734375 1.078125 C 2.867188 1.316406 3.046875 1.550781 3.265625 1.78125 C 3.484375 2.019531 3.773438 2.21875 4.140625 2.375 C 4.503906 2.53125 4.96875 2.609375 5.53125 2.609375 C 6.351562 2.609375 7.023438 2.40625 7.546875 2 C 8.078125 1.601562 8.34375 0.984375 8.34375 0.140625 L 8.34375 -1.796875 L 8.21875 -1.796875 C 8.070312 -1.554688 7.878906 -1.300781 7.640625 -1.03125 C 7.410156 -0.769531 7.097656 -0.546875 6.703125 -0.359375 C 6.316406 -0.179688 5.816406 -0.09375 5.203125 -0.09375 C 4.378906 -0.09375 3.640625 -0.289062 2.984375 -0.6875 C 2.335938 -1.082031 1.828125 -1.65625 1.453125 -2.40625 C 1.078125 -3.15625 0.890625 -4.054688 0.890625 -5.109375 C 0.890625 -6.160156 1.070312 -7.070312 1.4375 -7.84375 C 1.8125 -8.625 2.320312 -9.226562 2.96875 -9.65625 C 3.625 -10.09375 4.378906 -10.3125 5.234375 -10.3125 C 5.835938 -10.3125 6.335938 -10.210938 6.734375 -10.015625 C 7.128906 -9.816406 7.445312 -9.578125 7.6875 -9.296875 C 7.925781 -9.023438 8.113281 -8.769531 8.25 -8.53125 L 8.375 -8.53125 L 8.375 -10.15625 L 9.96875 -10.15625 L 9.96875 0.21875 C 9.96875 1.113281 9.769531 1.84375 9.375 2.40625 C 8.976562 2.96875 8.441406 3.378906 7.765625 3.640625 C 7.097656 3.910156 6.351562 4.046875 5.53125 4.046875 Z M 5.46875 -1.546875 C 6.09375 -1.546875 6.617188 -1.6875 7.046875 -1.96875 C 7.484375 -2.257812 7.8125 -2.675781 8.03125 -3.21875 C 8.257812 -3.757812 8.375 -4.398438 8.375 -5.140625 C 8.375 -5.867188 8.257812 -6.507812 8.03125 -7.0625 C 7.8125 -7.625 7.484375 -8.0625 7.046875 -8.375 C 6.617188 -8.6875 6.09375 -8.84375 5.46875 -8.84375 C 4.84375 -8.84375 4.3125 -8.679688 3.875 -8.359375 C 3.4375 -8.035156 3.101562 -7.59375 2.875 -7.03125 C 2.65625 -6.476562 2.546875 -5.847656 2.546875 -5.140625 C 2.546875 -4.421875 2.660156 -3.789062 2.890625 -3.25 C 3.117188 -2.707031 3.445312 -2.285156 3.875 -1.984375 C 4.3125 -1.691406 4.84375 -1.546875 5.46875 -1.546875 Z M 5.46875 -1.546875 "/></g></g></g><g fill="#ffffff" fill-opacity="1"><g transform="translate(180.361291, 18.603271)"><g><path d="M 5.640625 0.21875 C 4.660156 0.21875 3.8125 0 3.09375 -0.4375 C 2.382812 -0.882812 1.835938 -1.5 1.453125 -2.28125 C 1.078125 -3.0625 0.890625 -3.972656 0.890625 -5.015625 C 0.890625 -6.046875 1.078125 -6.960938 1.453125 -7.765625 C 1.835938 -8.566406 2.375 -9.191406 3.0625 -9.640625 C 3.75 -10.085938 4.550781 -10.3125 5.46875 -10.3125 C 6.039062 -10.3125 6.59375 -10.210938 7.125 -10.015625 C 7.664062 -9.816406 8.144531 -9.507812 8.5625 -9.09375 C 8.988281 -8.6875 9.320312 -8.15625 9.5625 -7.5 C 9.8125 -6.851562 9.9375 -6.082031 9.9375 -5.1875 L 9.9375 -4.546875 L 1.953125 -4.546875 L 1.953125 -5.921875 L 9.046875 -5.921875 L 8.296875 -5.421875 C 8.296875 -6.097656 8.1875 -6.691406 7.96875 -7.203125 C 7.75 -7.722656 7.429688 -8.125 7.015625 -8.40625 C 6.597656 -8.695312 6.082031 -8.84375 5.46875 -8.84375 C 4.851562 -8.84375 4.328125 -8.695312 3.890625 -8.40625 C 3.453125 -8.113281 3.117188 -7.722656 2.890625 -7.234375 C 2.660156 -6.742188 2.546875 -6.207031 2.546875 -5.625 L 2.546875 -4.765625 C 2.546875 -4.023438 2.671875 -3.390625 2.921875 -2.859375 C 3.171875 -2.328125 3.53125 -1.921875 4 -1.640625 C 4.476562 -1.367188 5.03125 -1.234375 5.65625 -1.234375 C 6.070312 -1.234375 6.445312 -1.296875 6.78125 -1.421875 C 7.113281 -1.546875 7.398438 -1.726562 7.640625 -1.96875 C 7.878906 -2.207031 8.0625 -2.503906 8.1875 -2.859375 L 9.765625 -2.5 C 9.617188 -1.96875 9.351562 -1.492188 8.96875 -1.078125 C 8.59375 -0.671875 8.117188 -0.351562 7.546875 -0.125 C 6.984375 0.101562 6.347656 0.21875 5.640625 0.21875 Z M 5.640625 0.21875 "/></g></g></g><g fill="#ffffff" fill-opacity="1"><g transform="translate(192.378804, 18.603271)"><g><path d="M 1.390625 0 L 1.390625 -10.15625 L 2.96875 -10.15625 L 2.96875 -8.59375 L 3.0625 -8.59375 C 3.25 -9.101562 3.570312 -9.515625 4.03125 -9.828125 C 4.5 -10.148438 5.039062 -10.3125 5.65625 -10.3125 C 5.78125 -10.3125 5.921875 -10.304688 6.078125 -10.296875 C 6.242188 -10.285156 6.367188 -10.28125 6.453125 -10.28125 L 6.453125 -8.625 C 6.398438 -8.644531 6.273438 -8.664062 6.078125 -8.6875 C 5.890625 -8.707031 5.6875 -8.71875 5.46875 -8.71875 C 5.007812 -8.71875 4.59375 -8.617188 4.21875 -8.421875 C 3.84375 -8.234375 3.550781 -7.957031 3.34375 -7.59375 C 3.132812 -7.238281 3.03125 -6.820312 3.03125 -6.34375 L 3.03125 0 Z M 1.390625 0 "/></g></g></g><g fill="#ffffff" fill-opacity="1"><g transform="translate(200.61507, 18.603271)"><g><path d="M 1.390625 0 L 1.390625 -10.15625 L 3.03125 -10.15625 L 3.03125 0 Z M 2.21875 -11.890625 C 1.90625 -11.890625 1.632812 -11.992188 1.40625 -12.203125 C 1.1875 -12.421875 1.078125 -12.679688 1.078125 -12.984375 C 1.078125 -13.285156 1.1875 -13.539062 1.40625 -13.75 C 1.632812 -13.957031 1.90625 -14.0625 2.21875 -14.0625 C 2.53125 -14.0625 2.796875 -13.957031 3.015625 -13.75 C 3.242188 -13.539062 3.359375 -13.285156 3.359375 -12.984375 C 3.359375 -12.679688 3.242188 -12.421875 3.015625 -12.203125 C 2.796875 -11.992188 2.53125 -11.890625 2.21875 -11.890625 Z M 2.21875 -11.890625 "/></g></g></g><g fill="#ffffff" fill-opacity="1"><g transform="translate(206.256783, 18.603271)"><g><path d="M 1.390625 0 L 1.390625 -10.15625 L 2.96875 -10.15625 L 2.96875 -8.59375 L 3.0625 -8.59375 C 3.25 -9.101562 3.570312 -9.515625 4.03125 -9.828125 C 4.5 -10.148438 5.039062 -10.3125 5.65625 -10.3125 C 5.78125 -10.3125 5.921875 -10.304688 6.078125 -10.296875 C 6.242188 -10.285156 6.367188 -10.28125 6.453125 -10.28125 L 6.453125 -8.625 C 6.398438 -8.644531 6.273438 -8.664062 6.078125 -8.6875 C 5.890625 -8.707031 5.6875 -8.71875 5.46875 -8.71875 C 5.007812 -8.71875 4.59375 -8.617188 4.21875 -8.421875 C 3.84375 -8.234375 3.550781 -7.957031 3.34375 -7.59375 C 3.132812 -7.238281 3.03125 -6.820312 3.03125 -6.34375 L 3.03125 0 Z M 1.390625 0 "/></g></g></g><g fill="#ffffff" fill-opacity="1"><g transform="translate(214.345777, 18.603271)"><g/></g></g><g fill="#ffffff" fill-opacity="1"><g transform="translate(220.741922, 18.603271)"><g><path d="M 4.859375 0.21875 C 4.160156 0.21875 3.535156 0.113281 2.984375 -0.09375 C 2.429688 -0.300781 1.972656 -0.613281 1.609375 -1.03125 C 1.253906 -1.457031 1.023438 -1.972656 0.921875 -2.578125 L 2.5 -2.875 C 2.625 -2.3125 2.882812 -1.890625 3.28125 -1.609375 C 3.6875 -1.335938 4.207031 -1.203125 4.84375 -1.203125 C 5.539062 -1.203125 6.097656 -1.351562 6.515625 -1.65625 C 6.941406 -1.957031 7.15625 -2.320312 7.15625 -2.75 C 7.15625 -3.101562 7.023438 -3.394531 6.765625 -3.625 C 6.515625 -3.863281 6.144531 -4.039062 5.65625 -4.15625 L 3.96875 -4.546875 C 3.039062 -4.765625 2.347656 -5.101562 1.890625 -5.5625 C 1.441406 -6.03125 1.21875 -6.625 1.21875 -7.34375 C 1.21875 -7.925781 1.378906 -8.4375 1.703125 -8.875 C 2.023438 -9.320312 2.46875 -9.671875 3.03125 -9.921875 C 3.601562 -10.179688 4.25 -10.3125 4.96875 -10.3125 C 5.664062 -10.3125 6.265625 -10.195312 6.765625 -9.96875 C 7.273438 -9.75 7.679688 -9.441406 7.984375 -9.046875 C 8.296875 -8.660156 8.515625 -8.207031 8.640625 -7.6875 L 7.140625 -7.390625 C 7.023438 -7.785156 6.796875 -8.140625 6.453125 -8.453125 C 6.117188 -8.765625 5.628906 -8.921875 4.984375 -8.921875 C 4.367188 -8.921875 3.863281 -8.773438 3.46875 -8.484375 C 3.070312 -8.203125 2.875 -7.847656 2.875 -7.421875 C 2.875 -7.046875 3.007812 -6.742188 3.28125 -6.515625 C 3.5625 -6.285156 3.984375 -6.101562 4.546875 -5.96875 L 6.109375 -5.609375 C 7.046875 -5.378906 7.734375 -5.035156 8.171875 -4.578125 C 8.617188 -4.128906 8.84375 -3.550781 8.84375 -2.84375 C 8.84375 -2.238281 8.671875 -1.707031 8.328125 -1.25 C 7.992188 -0.789062 7.523438 -0.429688 6.921875 -0.171875 C 6.328125 0.0859375 5.640625 0.21875 4.859375 0.21875 Z M 4.859375 0.21875 "/></g></g></g><g fill="#ffffff" fill-opacity="1"><g transform="translate(231.692227, 18.603271)"><g><path d="M 5.640625 0.21875 C 4.660156 0.21875 3.8125 0 3.09375 -0.4375 C 2.382812 -0.882812 1.835938 -1.5 1.453125 -2.28125 C 1.078125 -3.0625 0.890625 -3.972656 0.890625 -5.015625 C 0.890625 -6.046875 1.078125 -6.960938 1.453125 -7.765625 C 1.835938 -8.566406 2.375 -9.191406 3.0625 -9.640625 C 3.75 -10.085938 4.550781 -10.3125 5.46875 -10.3125 C 6.039062 -10.3125 6.59375 -10.210938 7.125 -10.015625 C 7.664062 -9.816406 8.144531 -9.507812 8.5625 -9.09375 C 8.988281 -8.6875 9.320312 -8.15625 9.5625 -7.5 C 9.8125 -6.851562 9.9375 -6.082031 9.9375 -5.1875 L 9.9375 -4.546875 L 1.953125 -4.546875 L 1.953125 -5.921875 L 9.046875 -5.921875 L 8.296875 -5.421875 C 8.296875 -6.097656 8.1875 -6.691406 7.96875 -7.203125 C 7.75 -7.722656 7.429688 -8.125 7.015625 -8.40625 C 6.597656 -8.695312 6.082031 -8.84375 5.46875 -8.84375 C 4.851562 -8.84375 4.328125 -8.695312 3.890625 -8.40625 C 3.453125 -8.113281 3.117188 -7.722656 2.890625 -7.234375 C 2.660156 -6.742188 2.546875 -6.207031 2.546875 -5.625 L 2.546875 -4.765625 C 2.546875 -4.023438 2.671875 -3.390625 2.921875 -2.859375 C 3.171875 -2.328125 3.53125 -1.921875 4 -1.640625 C 4.476562 -1.367188 5.03125 -1.234375 5.65625 -1.234375 C 6.070312 -1.234375 6.445312 -1.296875 6.78125 -1.421875 C 7.113281 -1.546875 7.398438 -1.726562 7.640625 -1.96875 C 7.878906 -2.207031 8.0625 -2.503906 8.1875 -2.859375 L 9.765625 -2.5 C 9.617188 -1.96875 9.351562 -1.492188 8.96875 -1.078125 C 8.59375 -0.671875 8.117188 -0.351562 7.546875 -0.125 C 6.984375 0.101562 6.347656 0.21875 5.640625 0.21875 Z M 5.640625 0.21875 "/></g></g></g><g fill="#ffffff" fill-opacity="1"><g transform="translate(243.70974, 18.603271)"><g><path d="M 4.890625 0.140625 C 4.203125 0.140625 3.59375 0 3.0625 -0.28125 C 2.539062 -0.570312 2.128906 -1.003906 1.828125 -1.578125 C 1.535156 -2.148438 1.390625 -2.867188 1.390625 -3.734375 L 1.390625 -10.15625 L 3.03125 -10.15625 L 3.03125 -3.875 C 3.03125 -3.070312 3.234375 -2.445312 3.640625 -2 C 4.054688 -1.550781 4.625 -1.328125 5.34375 -1.328125 C 5.832031 -1.328125 6.269531 -1.429688 6.65625 -1.640625 C 7.039062 -1.859375 7.347656 -2.171875 7.578125 -2.578125 C 7.804688 -2.992188 7.921875 -3.503906 7.921875 -4.109375 L 7.921875 -10.15625 L 9.5625 -10.15625 L 9.5625 0 L 7.984375 0 L 7.984375 -2.46875 L 8.25 -2.46875 C 7.9375 -1.519531 7.488281 -0.847656 6.90625 -0.453125 C 6.320312 -0.0546875 5.648438 0.140625 4.890625 0.140625 Z M 4.890625 0.140625 "/></g></g></g><g fill="#ffffff" fill-opacity="1"><g transform="translate(255.892847, 18.603271)"><g/></g></g><g fill="#ffffff" fill-opacity="1"><g transform="translate(262.288992, 18.603271)"><g><path d="M 5.21875 0.21875 C 4.363281 0.21875 3.609375 0.00390625 2.953125 -0.421875 C 2.304688 -0.859375 1.800781 -1.472656 1.4375 -2.265625 C 1.070312 -3.054688 0.890625 -3.988281 0.890625 -5.0625 C 0.890625 -6.125 1.070312 -7.046875 1.4375 -7.828125 C 1.800781 -8.617188 2.3125 -9.226562 2.96875 -9.65625 C 3.625 -10.09375 4.375 -10.3125 5.21875 -10.3125 C 5.832031 -10.3125 6.332031 -10.207031 6.71875 -10 C 7.113281 -9.800781 7.425781 -9.566406 7.65625 -9.296875 C 7.894531 -9.023438 8.082031 -8.78125 8.21875 -8.5625 L 8.3125 -8.5625 L 8.3125 -13.703125 L 9.953125 -13.703125 L 9.953125 0 L 8.375 0 L 8.375 -1.5625 L 8.21875 -1.5625 C 8.082031 -1.332031 7.894531 -1.078125 7.65625 -0.796875 C 7.414062 -0.523438 7.097656 -0.285156 6.703125 -0.078125 C 6.316406 0.117188 5.820312 0.21875 5.21875 0.21875 Z M 5.453125 -1.25 C 6.078125 -1.25 6.601562 -1.410156 7.03125 -1.734375 C 7.46875 -2.054688 7.796875 -2.503906 8.015625 -3.078125 C 8.242188 -3.648438 8.359375 -4.3125 8.359375 -5.0625 C 8.359375 -5.820312 8.242188 -6.484375 8.015625 -7.046875 C 7.796875 -7.609375 7.46875 -8.046875 7.03125 -8.359375 C 6.601562 -8.679688 6.078125 -8.84375 5.453125 -8.84375 C 4.828125 -8.84375 4.296875 -8.675781 3.859375 -8.34375 C 3.429688 -8.019531 3.101562 -7.578125 2.875 -7.015625 C 2.65625 -6.453125 2.546875 -5.800781 2.546875 -5.0625 C 2.546875 -4.332031 2.65625 -3.679688 2.875 -3.109375 C 3.101562 -2.535156 3.4375 -2.082031 3.875 -1.75 C 4.3125 -1.414062 4.835938 -1.25 5.453125 -1.25 Z M 5.453125 -1.25 "/></g></g></g><g fill="#ffffff" fill-opacity="1"><g transform="translate(274.858521, 18.603271)"><g><path d="M 1.390625 0 L 1.390625 -10.15625 L 3.03125 -10.15625 L 3.03125 0 Z M 2.21875 -11.890625 C 1.90625 -11.890625 1.632812 -11.992188 1.40625 -12.203125 C 1.1875 -12.421875 1.078125 -12.679688 1.078125 -12.984375 C 1.078125 -13.285156 1.1875 -13.539062 1.40625 -13.75 C 1.632812 -13.957031 1.90625 -14.0625 2.21875 -14.0625 C 2.53125 -14.0625 2.796875 -13.957031 3.015625 -13.75 C 3.242188 -13.539062 3.359375 -13.285156 3.359375 -12.984375 C 3.359375 -12.679688 3.242188 -12.421875 3.015625 -12.203125 C 2.796875 -11.992188 2.53125 -11.890625 2.21875 -11.890625 Z M 2.21875 -11.890625 "/></g></g></g><g fill="#ffffff" fill-opacity="1"><g transform="translate(280.500234, 18.603271)"><g><path d="M 3.03125 -6.046875 L 3.03125 0 L 1.390625 0 L 1.390625 -10.15625 L 2.96875 -10.15625 L 2.96875 -7.703125 L 2.703125 -7.703125 C 3.015625 -8.628906 3.457031 -9.296875 4.03125 -9.703125 C 4.601562 -10.109375 5.28125 -10.3125 6.0625 -10.3125 C 6.75 -10.3125 7.351562 -10.164062 7.875 -9.875 C 8.40625 -9.59375 8.816406 -9.164062 9.109375 -8.59375 C 9.410156 -8.019531 9.5625 -7.296875 9.5625 -6.421875 L 9.5625 0 L 7.921875 0 L 7.921875 -6.296875 C 7.921875 -7.085938 7.710938 -7.707031 7.296875 -8.15625 C 6.890625 -8.601562 6.328125 -8.828125 5.609375 -8.828125 C 5.117188 -8.828125 4.675781 -8.722656 4.28125 -8.515625 C 3.894531 -8.304688 3.585938 -7.992188 3.359375 -7.578125 C 3.140625 -7.171875 3.03125 -6.660156 3.03125 -6.046875 Z M 3.03125 -6.046875 "/></g></g></g><g fill="#ffffff" fill-opacity="1"><g transform="translate(292.674168, 18.603271)"><g><path d="M 3.03125 -6.046875 L 3.03125 0 L 1.390625 0 L 1.390625 -13.703125 L 3.03125 -13.703125 L 3.03125 -7.703125 L 2.703125 -7.703125 C 3.015625 -8.628906 3.457031 -9.296875 4.03125 -9.703125 C 4.601562 -10.109375 5.28125 -10.3125 6.0625 -10.3125 C 6.75 -10.3125 7.351562 -10.164062 7.875 -9.875 C 8.40625 -9.59375 8.816406 -9.164062 9.109375 -8.59375 C 9.410156 -8.019531 9.5625 -7.296875 9.5625 -6.421875 L 9.5625 0 L 7.921875 0 L 7.921875 -6.296875 C 7.921875 -7.085938 7.710938 -7.707031 7.296875 -8.15625 C 6.890625 -8.601562 6.328125 -8.828125 5.609375 -8.828125 C 5.117188 -8.828125 4.675781 -8.722656 4.28125 -8.515625 C 3.894531 -8.304688 3.585938 -7.992188 3.359375 -7.578125 C 3.140625 -7.171875 3.03125 -6.660156 3.03125 -6.046875 Z M 3.03125 -6.046875 "/></g></g></g><g fill="#ffffff" fill-opacity="1"><g transform="translate(304.857274, 18.603271)"><g><path d="M 5.640625 0.21875 C 4.660156 0.21875 3.8125 0 3.09375 -0.4375 C 2.382812 -0.882812 1.835938 -1.5 1.453125 -2.28125 C 1.078125 -3.0625 0.890625 -3.972656 0.890625 -5.015625 C 0.890625 -6.046875 1.078125 -6.960938 1.453125 -7.765625 C 1.835938 -8.566406 2.375 -9.191406 3.0625 -9.640625 C 3.75 -10.085938 4.550781 -10.3125 5.46875 -10.3125 C 6.039062 -10.3125 6.59375 -10.210938 7.125 -10.015625 C 7.664062 -9.816406 8.144531 -9.507812 8.5625 -9.09375 C 8.988281 -8.6875 9.320312 -8.15625 9.5625 -7.5 C 9.8125 -6.851562 9.9375 -6.082031 9.9375 -5.1875 L 9.9375 -4.546875 L 1.953125 -4.546875 L 1.953125 -5.921875 L 9.046875 -5.921875 L 8.296875 -5.421875 C 8.296875 -6.097656 8.1875 -6.691406 7.96875 -7.203125 C 7.75 -7.722656 7.429688 -8.125 7.015625 -8.40625 C 6.597656 -8.695312 6.082031 -8.84375 5.46875 -8.84375 C 4.851562 -8.84375 4.328125 -8.695312 3.890625 -8.40625 C 3.453125 -8.113281 3.117188 -7.722656 2.890625 -7.234375 C 2.660156 -6.742188 2.546875 -6.207031 2.546875 -5.625 L 2.546875 -4.765625 C 2.546875 -4.023438 2.671875 -3.390625 2.921875 -2.859375 C 3.171875 -2.328125 3.53125 -1.921875 4 -1.640625 C 4.476562 -1.367188 5.03125 -1.234375 5.65625 -1.234375 C 6.070312 -1.234375 6.445312 -1.296875 6.78125 -1.421875 C 7.113281 -1.546875 7.398438 -1.726562 7.640625 -1.96875 C 7.878906 -2.207031 8.0625 -2.503906 8.1875 -2.859375 L 9.765625 -2.5 C 9.617188 -1.96875 9.351562 -1.492188 8.96875 -1.078125 C 8.59375 -0.671875 8.117188 -0.351562 7.546875 -0.125 C 6.984375 0.101562 6.347656 0.21875 5.640625 0.21875 Z M 5.640625 0.21875 "/></g></g></g><g fill="#ffffff" fill-opacity="1"><g transform="translate(316.874787, 18.603271)"><g><path d="M 1.390625 0 L 1.390625 -10.15625 L 3.03125 -10.15625 L 3.03125 0 Z M 2.21875 -11.890625 C 1.90625 -11.890625 1.632812 -11.992188 1.40625 -12.203125 C 1.1875 -12.421875 1.078125 -12.679688 1.078125 -12.984375 C 1.078125 -13.285156 1.1875 -13.539062 1.40625 -13.75 C 1.632812 -13.957031 1.90625 -14.0625 2.21875 -14.0625 C 2.53125 -14.0625 2.796875 -13.957031 3.015625 -13.75 C 3.242188 -13.539062 3.359375 -13.285156 3.359375 -12.984375 C 3.359375 -12.679688 3.242188 -12.421875 3.015625 -12.203125 C 2.796875 -11.992188 2.53125 -11.890625 2.21875 -11.890625 Z M 2.21875 -11.890625 "/></g></g></g><g fill="#ffffff" fill-opacity="1"><g transform="translate(322.516522, 18.603271)"><g><path d="M 1.390625 0 L 1.390625 -10.15625 L 2.96875 -10.15625 L 2.96875 -8.59375 L 3.0625 -8.59375 C 3.25 -9.101562 3.570312 -9.515625 4.03125 -9.828125 C 4.5 -10.148438 5.039062 -10.3125 5.65625 -10.3125 C 5.78125 -10.3125 5.921875 -10.304688 6.078125 -10.296875 C 6.242188 -10.285156 6.367188 -10.28125 6.453125 -10.28125 L 6.453125 -8.625 C 6.398438 -8.644531 6.273438 -8.664062 6.078125 -8.6875 C 5.890625 -8.707031 5.6875 -8.71875 5.46875 -8.71875 C 5.007812 -8.71875 4.59375 -8.617188 4.21875 -8.421875 C 3.84375 -8.234375 3.550781 -7.957031 3.34375 -7.59375 C 3.132812 -7.238281 3.03125 -6.820312 3.03125 -6.34375 L 3.03125 0 Z M 1.390625 0 "/></g></g></g><g fill="#ffffff" fill-opacity="1"><g transform="translate(330.320168, 18.603271)"><g><path d="M 5.53125 0.21875 C 4.613281 0.21875 3.804688 0 3.109375 -0.4375 C 2.410156 -0.875 1.863281 -1.488281 1.46875 -2.28125 C 1.082031 -3.070312 0.890625 -3.988281 0.890625 -5.03125 C 0.890625 -6.082031 1.082031 -7.003906 1.46875 -7.796875 C 1.863281 -8.585938 2.410156 -9.203125 3.109375 -9.640625 C 3.804688 -10.085938 4.613281 -10.3125 5.53125 -10.3125 C 6.457031 -10.3125 7.269531 -10.085938 7.96875 -9.640625 C 8.675781 -9.203125 9.222656 -8.585938 9.609375 -7.796875 C 9.992188 -7.003906 10.1875 -6.082031 10.1875 -5.03125 C 10.1875 -3.988281 9.992188 -3.070312 9.609375 -2.28125 C 9.222656 -1.488281 8.675781 -0.875 7.96875 -0.4375 C 7.269531 0 6.457031 0.21875 5.53125 0.21875 Z M 5.53125 -1.234375 C 6.207031 -1.234375 6.769531 -1.40625 7.21875 -1.75 C 7.664062 -2.09375 7.992188 -2.550781 8.203125 -3.125 C 8.421875 -3.707031 8.53125 -4.34375 8.53125 -5.03125 C 8.53125 -5.71875 8.421875 -6.347656 8.203125 -6.921875 C 7.992188 -7.503906 7.664062 -7.96875 7.21875 -8.3125 C 6.769531 -8.664062 6.207031 -8.84375 5.53125 -8.84375 C 4.863281 -8.84375 4.3125 -8.664062 3.875 -8.3125 C 3.4375 -7.96875 3.101562 -7.507812 2.875 -6.9375 C 2.65625 -6.363281 2.546875 -5.726562 2.546875 -5.03125 C 2.546875 -4.34375 2.65625 -3.707031 2.875 -3.125 C 3.101562 -2.550781 3.4375 -2.09375 3.875 -1.75 C 4.3125 -1.40625 4.863281 -1.234375 5.53125 -1.234375 Z M 5.53125 -1.234375 "/></g></g></g></g></g></svg>